RobotoDelta-opszmax-wghtmin-wdthmax.ufo
<glyph name="exclam" format="1">
  <advance width="550"/>
  <unicode hex="0021"/>
  <outline>
    <contour>
      <point x="210" y="57" type="qcurve" smooth="yes"/>
      <point x="210" y="24"/>
      <point x="245" y="-22"/>
      <point x="276" y="-22" type="qcurve" smooth="yes"/>
      <point x="307" y="-22"/>
      <point x="340" y="24"/>
      <point x="340" y="57" type="qcurve" smooth="yes"/>
      <point x="340" y="89"/>
      <point x="307" y="135"/>
      <point x="276" y="135" type="qcurve" smooth="yes"/>
      <point x="245" y="135"/>
      <point x="210" y="89"/>
    </contour>
    <contour>
      <point x="247" y="380" type="line"/>
      <point x="303" y="380" type="line"/>
      <point x="309" y="1456" type="line"/>
      <point x="242" y="1456" type="line"/>
    </contour>
  </outline>
</glyph>
<glyph name="quotedbl" format="1">
  <advance width="597"/>
  <unicode hex="0022"/>
  <outline>
    <contour>
      <point x="103" y="1139" type="line"/>
      <point x="178" y="1139" type="line"/>
      <point x="184" y="1368" type="line"/>
      <point x="184" y="1456" type="line"/>
      <point x="96" y="1456" type="line"/>
      <point x="96" y="1368" type="line"/>
    </contour>
    <contour>
      <point x="420" y="1139" type="line"/>
      <point x="494" y="1139" type="line"/>
      <point x="501" y="1368" type="line"/>
      <point x="501" y="1456" type="line"/>
      <point x="412" y="1456" type="line"/>
      <point x="412" y="1368" type="line"/>
    </contour>
  </outline>
</glyph>
<glyph name="numbersign" format="1">
  <advance width="1574"/>
  <unicode hex="0023"/>
  <outline>
    <contour>
      <point x="212" y="-20" type="line"/>
      <point x="274" y="-20" type="line"/>
      <point x="836" y="1476" type="line"/>
      <point x="773" y="1476" type="line"/>
    </contour>
    <contour>
      <point x="737" y="-20" type="line"/>
      <point x="802" y="-20" type="line"/>
      <point x="1362" y="1476" type="line"/>
      <point x="1300" y="1476" type="line"/>
    </contour>
    <contour>
      <point x="27" y="452" type="line"/>
      <point x="1456" y="452" type="line"/>
      <point x="1456" y="515" type="line"/>
      <point x="27" y="515" type="line"/>
    </contour>
    <contour>
      <point x="120" y="941" type="line"/>
      <point x="1546" y="941" type="line"/>
      <point x="1546" y="1004" type="line"/>
      <point x="120" y="1004" type="line"/>
    </contour>
  </outline>
</glyph>
<glyph name="dollar" format="1">
  <advance width="1044"/>
  <unicode hex="0024"/>
  <outline>
    <contour>
      <point x="59" y="407" type="line" smooth="yes"/>
      <point x="59" y="216"/>
      <point x="319" y="0"/>
      <point x="533" y="0" type="qcurve" smooth="yes"/>
      <point x="748" y="0"/>
      <point x="996" y="202"/>
      <point x="996" y="366" type="qcurve" smooth="yes"/>
      <point x="996" y="522"/>
      <point x="814" y="703"/>
      <point x="576" y="772" type="qcurve" smooth="yes"/>
      <point x="332" y="842"/>
      <point x="158" y="991"/>
      <point x="158" y="1101" type="qcurve" smooth="yes"/>
      <point x="158" y="1236"/>
      <point x="334" y="1390"/>
      <point x="521" y="1390" type="qcurve" smooth="yes"/>
      <point x="707" y="1390"/>
      <point x="896" y="1204"/>
      <point x="896" y="1055" type="qcurve" smooth="yes"/>
      <point x="896" y="1043" type="line"/>
      <point x="962" y="1043" type="line"/>
      <point x="962" y="1055" type="line" smooth="yes"/>
      <point x="962" y="1225"/>
      <point x="723" y="1456"/>
      <point x="521" y="1456" type="qcurve" smooth="yes"/>
      <point x="315" y="1456"/>
      <point x="93" y="1258"/>
      <point x="93" y="1104" type="qcurve" smooth="yes"/>
      <point x="93" y="955"/>
      <point x="293" y="781"/>
      <point x="534" y="710" type="qcurve" smooth="yes"/>
      <point x="779" y="640"/>
      <point x="931" y="487"/>
      <point x="931" y="368" type="qcurve" smooth="yes"/>
      <point x="931" y="234"/>
      <point x="724" y="66"/>
      <point x="533" y="66" type="qcurve" smooth="yes"/>
      <point x="339" y="66"/>
      <point x="123" y="238"/>
      <point x="123" y="407" type="qcurve" smooth="yes"/>
      <point x="123" y="419" type="line"/>
      <point x="59" y="419" type="line"/>
    </contour>
    <contour>
      <point x="498" y="-150" type="line"/>
      <point x="556" y="-150" type="line"/>
      <point x="556" y="90" type="line"/>
      <point x="556" y="100" type="line"/>
      <point x="556" y="728" type="line"/>
      <point x="498" y="728" type="line"/>
    </contour>
    <contour>
      <point x="501" y="728" type="line"/>
      <point x="559" y="728" type="line"/>
      <point x="559" y="1606" type="line"/>
      <point x="499" y="1606" type="line"/>
      <point x="499" y="1366" type="line"/>
      <point x="501" y="1356" type="line"/>
    </contour>
  </outline>
</glyph>
<glyph name="percent" format="1">
  <advance width="1738"/>
  <unicode hex="0025"/>
  <outline>
    <contour>
      <point x="50" y="1016" type="line" smooth="yes"/>
      <point x="50" y="844"/>
      <point x="206" y="660"/>
      <point x="351" y="660" type="qcurve" smooth="yes"/>
      <point x="497" y="660"/>
      <point x="653" y="844"/>
      <point x="653" y="1016" type="qcurve" smooth="yes"/>
      <point x="653" y="1120" type="line" smooth="yes"/>
      <point x="653" y="1292"/>
      <point x="497" y="1476"/>
      <point x="352" y="1476" type="qcurve" smooth="yes"/>
      <point x="206" y="1476"/>
      <point x="50" y="1292"/>
      <point x="50" y="1120" type="qcurve" smooth="yes"/>
    </contour>
    <contour>
      <point x="133" y="1016" type="qcurve" smooth="yes"/>
      <point x="133" y="1120" type="line" smooth="yes"/>
      <point x="133" y="1253"/>
      <point x="246" y="1396"/>
      <point x="351" y="1396" type="qcurve" smooth="yes"/>
      <point x="457" y="1396"/>
      <point x="570" y="1253"/>
      <point x="570" y="1120" type="qcurve" smooth="yes"/>
      <point x="570" y="1013" type="line" smooth="yes"/>
      <point x="570" y="881"/>
      <point x="457" y="740"/>
      <point x="352" y="740" type="qcurve" smooth="yes"/>
      <point x="246" y="740"/>
      <point x="133" y="883"/>
    </contour>
    <contour>
      <point x="331" y="38" type="line"/>
      <point x="396" y="-8" type="line"/>
      <point x="1405" y="1409" type="line"/>
      <point x="1344" y="1464" type="line"/>
    </contour>
    <contour>
      <point x="1085" y="336" type="line" smooth="yes"/>
      <point x="1085" y="164"/>
      <point x="1241" y="-20"/>
      <point x="1386" y="-20" type="qcurve" smooth="yes"/>
      <point x="1532" y="-20"/>
      <point x="1688" y="164"/>
      <point x="1688" y="336" type="qcurve" smooth="yes"/>
      <point x="1688" y="440" type="line" smooth="yes"/>
      <point x="1688" y="612"/>
      <point x="1532" y="796"/>
      <point x="1387" y="796" type="qcurve" smooth="yes"/>
      <point x="1241" y="796"/>
      <point x="1085" y="612"/>
      <point x="1085" y="440" type="qcurve" smooth="yes"/>
    </contour>
    <contour>
      <point x="1168" y="336" type="qcurve" smooth="yes"/>
      <point x="1168" y="440" type="line" smooth="yes"/>
      <point x="1168" y="573"/>
      <point x="1281" y="716"/>
      <point x="1386" y="716" type="qcurve" smooth="yes"/>
      <point x="1492" y="716"/>
      <point x="1605" y="573"/>
      <point x="1605" y="440" type="qcurve" smooth="yes"/>
      <point x="1605" y="333" type="line" smooth="yes"/>
      <point x="1605" y="201"/>
      <point x="1492" y="60"/>
      <point x="1387" y="60" type="qcurve" smooth="yes"/>
      <point x="1281" y="60"/>
      <point x="1168" y="203"/>
    </contour>
  </outline>
</glyph>
<glyph name="ampersand" format="1">
  <advance width="1192"/>
  <unicode hex="0026"/>
  <outline>
    <contour>
      <point x="73" y="380" type="qcurve" smooth="yes"/>
      <point x="73" y="213"/>
      <point x="302" y="-20"/>
      <point x="503" y="-20" type="qcurve" smooth="yes"/>
      <point x="759" y="-20"/>
      <point x="1107" y="380"/>
      <point x="1107" y="674" type="qcurve"/>
      <point x="1044" y="674" type="line"/>
      <point x="1044" y="385"/>
      <point x="724" y="44"/>
      <point x="503" y="44" type="qcurve" smooth="yes"/>
      <point x="336" y="44"/>
      <point x="137" y="234"/>
      <point x="137" y="378" type="qcurve" smooth="yes"/>
      <point x="137" y="496"/>
      <point x="298" y="680"/>
      <point x="463" y="777" type="qcurve" smooth="yes"/>
      <point x="606" y="865" type="line" smooth="yes"/>
      <point x="698" y="922"/>
      <point x="814" y="1081"/>
      <point x="814" y="1185" type="qcurve" smooth="yes"/>
      <point x="814" y="1314"/>
      <point x="657" y="1486"/>
      <point x="528" y="1486" type="qcurve" smooth="yes"/>
      <point x="398" y="1486"/>
      <point x="229" y="1303"/>
      <point x="229" y="1165" type="qcurve" smooth="yes"/>
      <point x="229" y="1073"/>
      <point x="306" y="914"/>
      <point x="424" y="777" type="qcurve" smooth="yes"/>
      <point x="1095" y="0" type="line"/>
      <point x="1183" y="0" type="line"/>
      <point x="483" y="809" type="line" smooth="yes"/>
      <point x="368" y="937"/>
      <point x="292" y="1086"/>
      <point x="292" y="1165" type="qcurve" smooth="yes"/>
      <point x="292" y="1267"/>
      <point x="419" y="1422"/>
      <point x="528" y="1422" type="qcurve" smooth="yes"/>
      <point x="635" y="1422"/>
      <point x="751" y="1277"/>
      <point x="751" y="1183" type="qcurve" smooth="yes"/>
      <point x="751" y="1098"/>
      <point x="653" y="964"/>
      <point x="565" y="913" type="qcurve" smooth="yes"/>
      <point x="425" y="828" type="line" smooth="yes"/>
      <point x="260" y="731"/>
      <point x="73" y="523"/>
    </contour>
  </outline>
</glyph>
<glyph name="quotesingle" format="1">
  <advance width="309"/>
  <unicode hex="0027"/>
  <outline>
    <contour>
      <point x="116" y="1139" type="line"/>
      <point x="193" y="1139" type="line"/>
      <point x="205" y="1368" type="line"/>
      <point x="205" y="1456" type="line"/>
      <point x="102" y="1456" type="line"/>
      <point x="102" y="1368" type="line"/>
    </contour>
  </outline>
</glyph>
<glyph name="parenleft" format="1">
  <advance width="614"/>
  <unicode hex="0028"/>
  <outline>
    <contour>
      <point x="638" y="-436" type="qcurve"/>
      <point x="638" y="-355" type="line"/>
      <point x="462" y="-290"/>
      <point x="187" y="137"/>
      <point x="187" y="508" type="qcurve" smooth="yes"/>
      <point x="187" y="532" type="line" smooth="yes"/>
      <point x="187" y="903"/>
      <point x="462" y="1330"/>
      <point x="638" y="1395" type="qcurve"/>
      <point x="638" y="1476" type="line"/>
      <point x="417" y="1408"/>
      <point x="104" y="919"/>
      <point x="104" y="525" type="qcurve" smooth="yes"/>
      <point x="104" y="515" type="line" smooth="yes"/>
      <point x="104" y="121"/>
      <point x="417" y="-368"/>
    </contour>
  </outline>
</glyph>
<glyph name="parenright" format="1">
  <advance width="585"/>
  <unicode hex="0029"/>
  <outline>
    <contour>
      <point x="-57.36103896103896" y="-436.0" type="line"/>
      <point x="164.75454545454545" y="-374.63012987012985"/>
      <point x="461.3467532467532" y="119.33116883116884"/>
      <point x="461.3467532467532" y="515.0" type="qcurve" smooth="yes"/>
      <point x="461.3467532467532" y="525.0" type="line" smooth="yes"/>
      <point x="461.3467532467532" y="920.6688311688312"/>
      <point x="164.75454545454545" y="1414.6301298701298"/>
      <point x="-57.36103896103896" y="1476.0" type="qcurve"/>
      <point x="-57.36103896103896" y="1424.725974025974" type="line"/>
      <point x="135.6270902258193" y="1358.6428281374044"/>
      <point x="407.4155844155844" y="919.8360019727108"/>
      <point x="407.4155844155844" y="532.0" type="qcurve" smooth="yes"/>
      <point x="407.4155844155844" y="508.0" type="line" smooth="yes"/>
      <point x="407.4155844155844" y="120.16399802728915"/>
      <point x="135.6270902258193" y="-318.6428281374043"/>
      <point x="-57.36103896103896" y="-384.72597402597404" type="qcurve"/>
    </contour>
  </outline>
</glyph>
<glyph name="asterisk" format="1">
  <advance width="1158"/>
  <unicode hex="002A"/>
  <outline>
    <contour>
      <point x="50.66233766233766" y="1105.5176623376624" type="line"/>
      <point x="546.4025974025974" y="968.2111688311688" type="line"/>
      <point x="236.71337662337663" y="588.6696103896104" type="line"/>
      <point x="276.16948051948054" y="560.32" type="line"/>
      <point x="578.3184415584416" y="946.6711688311689" type="line"/>
      <point x="881.9349350649351" y="560.32" type="line"/>
      <point x="920.3910389610389" y="588.6696103896104" type="line"/>
      <point x="611.7018181818182" y="968.2111688311688" type="line"/>
      <point x="1106.7083116883116" y="1105.5176623376624" type="line"/>
      <point x="1092.1171428571429" y="1157.111168831169" type="line"/>
      <point x="598.4835064935065" y="1003.7267532467532" type="line"/>
      <point x="604.1833766233766" y="1476.0" type="line"/>
      <point x="553.921038961039" y="1476.0" type="line"/>
      <point x="559.6209090909091" y="1003.7267532467532" type="line"/>
      <point x="64.98727272727272" y="1157.111168831169" type="line"/>
    </contour>
  </outline>
</glyph>
<glyph name="plus" format="1">
  <advance width="1130"/>
  <unicode hex="002B"/>
  <outline>
    <contour>
      <point x="32" y="634" type="line"/>
      <point x="1098" y="634" type="line"/>
      <point x="1098" y="714" type="line"/>
      <point x="32" y="714" type="line"/>
    </contour>
    <contour>
      <point x="524" y="165" type="line"/>
      <point x="606" y="165" type="line"/>
      <point x="606" y="1183" type="line"/>
      <point x="524" y="1183" type="line"/>
    </contour>
  </outline>
</glyph>
<glyph name="comma" format="1">
  <advance width="546"/>
  <unicode hex="002C"/>
  <outline>
    <contour>
      <point x="179" y="-148" type="qcurve"/>
      <point x="242" y="-181" type="line"/>
      <point x="285" y="-137"/>
      <point x="331" y="-27"/>
      <point x="331" y="45" type="qcurve" smooth="yes"/>
      <point x="331" y="139" type="line"/>
      <point x="240" y="139" type="line"/>
      <point x="240" y="45" type="line" smooth="yes"/>
      <point x="240" y="-16"/>
      <point x="210" y="-105"/>
    </contour>
  </outline>
</glyph>
<glyph name="hyphen" format="1">
  <advance width="658"/>
  <unicode hex="002D"/>
  <outline>
    <contour>
      <point x="30.46103896103896" y="615.1711688311689" type="line"/>
      <point x="627.1166233766234" y="615.1711688311689" type="line"/>
      <point x="627.1166233766234" y="666.6103896103896" type="line"/>
      <point x="30.46103896103896" y="666.6103896103896" type="line"/>
    </contour>
  </outline>
</glyph>
<glyph name="period" format="1">
  <advance width="486"/>
  <unicode hex="002E"/>
  <outline>
    <contour>
      <point x="176" y="56" type="qcurve" smooth="yes"/>
      <point x="176" y="23"/>
      <point x="210" y="-22"/>
      <point x="243" y="-22" type="qcurve" smooth="yes"/>
      <point x="275" y="-22"/>
      <point x="311" y="23"/>
      <point x="311" y="56" type="qcurve" smooth="yes"/>
      <point x="311" y="89"/>
      <point x="275" y="134"/>
      <point x="243" y="134" type="qcurve" smooth="yes"/>
      <point x="210" y="134"/>
      <point x="176" y="89"/>
    </contour>
  </outline>
</glyph>
<glyph name="slash" format="1">
  <advance width="601"/>
  <unicode hex="002F"/>
  <outline>
    <contour>
      <point x="-124.21428571428571" y="-125.0" type="line"/>
      <point x="-63.59090909090909" y="-125.0" type="line"/>
      <point x="724.651948051948" y="1456.0" type="line"/>
      <point x="662.9210389610389" y="1456.0" type="line"/>
    </contour>
  </outline>
</glyph>
<glyph name="zero" format="1">
  <advance width="1156"/>
  <unicode hex="0030"/>
  <outline>
    <contour>
      <point x="153" y="517" type="line" smooth="yes"/>
      <point x="153" y="259"/>
      <point x="373" y="-27"/>
      <point x="576" y="-27" type="qcurve" smooth="yes"/>
      <point x="779" y="-27"/>
      <point x="1000" y="259"/>
      <point x="1000" y="517" type="qcurve" smooth="yes"/>
      <point x="1000" y="939" type="line" smooth="yes"/>
      <point x="1000" y="1196"/>
      <point x="779" y="1483"/>
      <point x="576" y="1483" type="qcurve" smooth="yes"/>
      <point x="373" y="1483"/>
      <point x="153" y="1196"/>
      <point x="153" y="939" type="qcurve" smooth="yes"/>
    </contour>
    <contour>
      <point x="197" y="507" type="qcurve" smooth="yes"/>
      <point x="197" y="949" type="line" smooth="yes"/>
      <point x="197" y="1169"/>
      <point x="384" y="1439"/>
      <point x="576" y="1439" type="qcurve" smooth="yes"/>
      <point x="767" y="1439"/>
      <point x="956" y="1169"/>
      <point x="956" y="949" type="qcurve" smooth="yes"/>
      <point x="956" y="507" type="line" smooth="yes"/>
      <point x="956" y="284"/>
      <point x="767" y="17"/>
      <point x="576" y="17" type="qcurve" smooth="yes"/>
      <point x="384" y="17"/>
      <point x="197" y="284"/>
    </contour>
  </outline>
</glyph>
<glyph name="one" format="1">
  <advance width="1156"/>
  <unicode hex="0031"/>
  <outline>
    <contour>
      <point x="619" y="0" type="line"/>
      <point x="664" y="0" type="line"/>
      <point x="664" y="1476" type="line"/>
      <point x="636" y="1476" type="line"/>
      <point x="125" y="1328" type="line"/>
      <point x="125" y="1283" type="line"/>
      <point x="619" y="1430" type="line"/>
    </contour>
  </outline>
</glyph>
<glyph name="two" format="1">
  <advance width="1383"/>
  <unicode hex="0032"/>
  <outline>
    <contour>
      <point x="244" y="0" type="line"/>
      <point x="1147" y="0" type="line"/>
      <point x="1147" y="50" type="line"/>
      <point x="310" y="50" type="line"/>
      <point x="815" y="580" type="line" smooth="yes"/>
      <point x="941" y="713"/>
      <point x="1108" y="950"/>
      <point x="1108" y="1091" type="qcurve" smooth="yes"/>
      <point x="1108" y="1248"/>
      <point x="890" y="1486"/>
      <point x="700" y="1486" type="qcurve" smooth="yes"/>
      <point x="506" y="1486"/>
      <point x="255" y="1227"/>
      <point x="255" y="1035" type="qcurve" smooth="yes"/>
      <point x="255" y="1025" type="line"/>
      <point x="308" y="1025" type="line"/>
      <point x="308" y="1035" type="line" smooth="yes"/>
      <point x="308" y="1217"/>
      <point x="532" y="1436"/>
      <point x="700" y="1436" type="qcurve" smooth="yes"/>
      <point x="867" y="1436"/>
      <point x="1054" y="1227"/>
      <point x="1054" y="1081" type="qcurve" smooth="yes"/>
      <point x="1054" y="967"/>
      <point x="906" y="748"/>
      <point x="786" y="624" type="qcurve" smooth="yes"/>
      <point x="244" y="45" type="line"/>
    </contour>
  </outline>
</glyph>
<glyph name="three" format="1">
  <advance width="1270"/>
  <unicode hex="0033"/>
  <outline>
    <contour>
      <point x="148" y="382" type="line" smooth="yes"/>
      <point x="148.0" y="183.0"/>
      <point x="391.0" y="-30.0"/>
      <point x="617" y="-30" type="qcurve" smooth="yes"/>
      <point x="844.0" y="-30.0"/>
      <point x="1088.0" y="193.0"/>
      <point x="1088" y="401" type="qcurve" smooth="yes"/>
      <point x="1088" y="541"/>
      <point x="918" y="729"/>
      <point x="781" y="759" type="qcurve"/>
      <point x="781" y="763" type="line"/>
      <point x="913" y="815"/>
      <point x="1028" y="993"/>
      <point x="1028" y="1099" type="qcurve" smooth="yes"/>
      <point x="1028.0" y="1285.0"/>
      <point x="815.0" y="1486.0"/>
      <point x="617" y="1486" type="qcurve" smooth="yes"/>
      <point x="413.0" y="1486.0"/>
      <point x="193.0" y="1285.0"/>
      <point x="193" y="1098" type="qcurve" smooth="yes"/>
      <point x="193" y="1088" type="line"/>
      <point x="276" y="1088" type="line"/>
      <point x="276" y="1098" type="line" smooth="yes"/>
      <point x="276.0" y="1246.0"/>
      <point x="453.0" y="1406.0"/>
      <point x="617" y="1406" type="qcurve" smooth="yes"/>
      <point x="776.0" y="1406.0"/>
      <point x="947.0" y="1245.0"/>
      <point x="947" y="1096" type="qcurve" smooth="yes"/>
      <point x="947" y="963"/>
      <point x="738" y="799"/>
      <point x="561" y="799" type="qcurve" smooth="yes"/>
      <point x="433" y="799" type="line"/>
      <point x="433" y="719" type="line"/>
      <point x="573" y="719" type="line" smooth="yes"/>
      <point x="755" y="719"/>
      <point x="1005" y="554"/>
      <point x="1005" y="402" type="qcurve" smooth="yes"/>
      <point x="1005.0" y="232.0"/>
      <point x="804.0" y="50.0"/>
      <point x="617" y="50" type="qcurve" smooth="yes"/>
      <point x="430.0" y="50.0"/>
      <point x="229.0" y="222.0"/>
      <point x="229" y="382" type="qcurve" smooth="yes"/>
      <point x="229" y="392" type="line"/>
      <point x="148" y="392" type="line"/>
    </contour>
  </outline>
</glyph>
<glyph name="four" format="1">
  <advance width="1270"/>
  <unicode hex="0034"/>
  <outline>
    <contour>
      <point x="888" y="0" type="line"/>
      <point x="970" y="0" type="line"/>
      <point x="970" y="1456" type="line"/>
      <point x="879" y="1456" type="line"/>
      <point x="89" y="452" type="line"/>
      <point x="89" y="370" type="line"/>
      <point x="1213" y="370" type="line"/>
      <point x="1213" y="450" type="line"/>
      <point x="931" y="450" type="line"/>
      <point x="887" y="450" type="line"/>
      <point x="192" y="450" type="line"/>
      <point x="880" y="1344" type="line"/>
      <point x="888" y="1344" type="line"/>
      <point x="888" y="416" type="line"/>
      <point x="888" y="393" type="line"/>
    </contour>
  </outline>
</glyph>
<glyph name="five" format="1">
  <advance width="1281"/>
  <unicode hex="0035"/>
  <outline>
    <contour>
      <point x="196.46103896103898" y="363.1948051948052" type="line" smooth="yes"/>
      <point x="196.46103896103898" y="193.86363636363637"/>
      <point x="437.11038961038963" y="-27.337662337662337"/>
      <point x="632.3636363636364" y="-27.337662337662337" type="qcurve" smooth="yes"/>
      <point x="829.2792207792207" y="-27.337662337662337"/>
      <point x="1082.2662337662337" y="229.4090909090909"/>
      <point x="1082.2662337662337" y="465.0" type="qcurve" smooth="yes"/>
      <point x="1082.2662337662337" y="681.5909090909091"/>
      <point x="829.2727272727273" y="902.012987012987"/>
      <point x="649.7467532467533" y="902.012987012987" type="qcurve" smooth="yes"/>
      <point x="539.1038961038961" y="902.012987012987"/>
      <point x="359.73376623376623" y="818.4285714285714"/>
      <point x="306.87012987012986" y="758.5714285714286" type="qcurve"/>
      <point x="379.538961038961" y="1412.5194805194806" type="line"/>
      <point x="1003.6688311688312" y="1412.5194805194806" type="line"/>
      <point x="1003.6688311688312" y="1456.0" type="line"/>
      <point x="340.1948051948052" y="1456.0" type="line"/>
      <point x="257.92207792207796" y="720.474025974026" type="line"/>
      <point x="316.9090909090909" y="703.474025974026" type="line"/>
      <point x="376.90909090909093" y="771.3376623376623"/>
      <point x="533.7662337662338" y="858.9350649350649"/>
      <point x="638.2207792207793" y="858.9350649350649" type="qcurve" smooth="yes"/>
      <point x="809.8766233766233" y="858.9350649350649"/>
      <point x="1036.7857142857142" y="668.7142857142857"/>
      <point x="1036.7857142857142" y="465.0" type="qcurve" smooth="yes"/>
      <point x="1036.7857142857142" y="244.41558441558442"/>
      <point x="812.2727272727273" y="16.8051948051948"/>
      <point x="632.3636363636364" y="16.8051948051948" type="qcurve" smooth="yes"/>
      <point x="454.64935064935065" y="16.8051948051948"/>
      <point x="241.0064935064935" y="200.33766233766232"/>
      <point x="241.0064935064935" y="363.1948051948052" type="qcurve" smooth="yes"/>
      <point x="241.0064935064935" y="375.85714285714283" type="line"/>
      <point x="196.46103896103898" y="375.85714285714283" type="line"/>
    </contour>
  </outline>
</glyph>
<glyph name="six" format="1">
  <advance width="1281"/>
  <unicode hex="0036"/>
  <outline>
    <contour>
      <point x="177.73376623376623" y="614.0" type="line" smooth="yes"/>
      <point x="177.73376623376623" y="274.7987012987013"/>
      <point x="455.461038961039" y="-27.337662337662337"/>
      <point x="657.577922077922" y="-27.337662337662337" type="qcurve" smooth="yes"/>
      <point x="860.0909090909091" y="-27.337662337662337"/>
      <point x="1109.2077922077922" y="240.87012987012986"/>
      <point x="1109.2077922077922" y="460.87012987012986" type="qcurve" smooth="yes"/>
      <point x="1109.2077922077922" y="664.0714285714286"/>
      <point x="876.2207792207793" y="907.5519480519481"/>
      <point x="676.3051948051948" y="907.5519480519481" type="qcurve" smooth="yes"/>
      <point x="469.18831168831167" y="907.5519480519481"/>
      <point x="184.08441558441558" y="658.8051948051948"/>
      <point x="184.08441558441558" y="463.53246753246754" type="qcurve"/>
      <point x="216.8116883116883" y="463.53246753246754" type="line"/>
      <point x="216.8116883116883" y="630.8051948051948"/>
      <point x="484.38961038961037" y="864.2077922077922"/>
      <point x="661.038961038961" y="864.2077922077922" type="qcurve" smooth="yes"/>
      <point x="852.6168831168832" y="864.2077922077922"/>
      <point x="1063.9935064935064" y="656.2012987012987"/>
      <point x="1063.9935064935064" y="460.87012987012986" type="qcurve" smooth="yes"/>
      <point x="1063.9935064935064" y="245.87662337662337"/>
      <point x="850.487012987013" y="17.272727272727266"/>
      <point x="658.6428571428571" y="17.272727272727266" type="qcurve" smooth="yes"/>
      <point x="469.9935064935065" y="17.272727272727266"/>
      <point x="222.41558441558442" y="285.0"/>
      <point x="222.41558441558442" y="606.6623376623377" type="qcurve" smooth="yes"/>
      <point x="222.41558441558442" y="648.6753246753246" type="line" smooth="yes"/>
      <point x="222.41558441558442" y="1022.8051948051948"/>
      <point x="586.7142857142857" y="1438.9285714285713"/>
      <point x="893.3506493506493" y="1438.9285714285713" type="qcurve" smooth="yes"/>
      <point x="919.3506493506493" y="1438.9285714285713" type="line"/>
      <point x="919.3506493506493" y="1483.3376623376623" type="line"/>
      <point x="893.3506493506493" y="1483.3376623376623" type="line" smooth="yes"/>
      <point x="561.3701298701299" y="1483.3376623376623"/>
      <point x="177.73376623376623" y="1032.4610389610389"/>
      <point x="177.73376623376623" y="644.0" type="qcurve" smooth="yes"/>
    </contour>
  </outline>
</glyph>
<glyph name="seven" format="1">
  <advance width="1390"/>
  <unicode hex="0037"/>
  <outline>
    <contour>
      <point x="399" y="0" type="line"/>
      <point x="458" y="0" type="line"/>
      <point x="1184" y="1415" type="line"/>
      <point x="1184" y="1456" type="line"/>
      <point x="201" y="1456" type="line"/>
      <point x="201" y="1406" type="line"/>
      <point x="1124" y="1406" type="line"/>
    </contour>
  </outline>
</glyph>
<glyph name="eight" format="1">
  <advance width="1383"/>
  <unicode hex="0038"/>
  <outline>
    <contour>
      <point x="244" y="377" type="qcurve" smooth="yes"/>
      <point x="244" y="183"/>
      <point x="506" y="-30"/>
      <point x="692" y="-30" type="qcurve" smooth="yes"/>
      <point x="878" y="-30"/>
      <point x="1141" y="183"/>
      <point x="1141" y="377" type="qcurve" smooth="yes"/>
      <point x="1141" y="511"/>
      <point x="979" y="703"/>
      <point x="849" y="743" type="qcurve"/>
      <point x="849" y="747" type="line"/>
      <point x="952" y="786"/>
      <point x="1084" y="972"/>
      <point x="1084" y="1096" type="qcurve" smooth="yes"/>
      <point x="1084" y="1272"/>
      <point x="853" y="1486"/>
      <point x="692" y="1486" type="qcurve" smooth="yes"/>
      <point x="530" y="1486"/>
      <point x="299" y="1272"/>
      <point x="299" y="1096" type="qcurve" smooth="yes"/>
      <point x="299" y="972"/>
      <point x="433" y="786"/>
      <point x="534" y="747" type="qcurve"/>
      <point x="534" y="743" type="line"/>
      <point x="406" y="703"/>
      <point x="244" y="511"/>
    </contour>
    <contour>
      <point x="298" y="376" type="qcurve" smooth="yes"/>
      <point x="298" y="528"/>
      <point x="516" y="720"/>
      <point x="692" y="720" type="qcurve" smooth="yes"/>
      <point x="868" y="720"/>
      <point x="1087" y="528"/>
      <point x="1087" y="376" type="qcurve" smooth="yes"/>
      <point x="1087" y="217"/>
      <point x="868" y="20"/>
      <point x="692" y="20" type="qcurve" smooth="yes"/>
      <point x="516" y="20"/>
      <point x="298" y="217"/>
    </contour>
    <contour>
      <point x="354" y="1097" type="qcurve" smooth="yes"/>
      <point x="354" y="1246"/>
      <point x="542" y="1436"/>
      <point x="692" y="1436" type="qcurve" smooth="yes"/>
      <point x="841" y="1436"/>
      <point x="1029" y="1246"/>
      <point x="1029" y="1097" type="qcurve" smooth="yes"/>
      <point x="1029" y="955"/>
      <point x="841" y="770"/>
      <point x="692" y="770" type="qcurve" smooth="yes"/>
      <point x="542" y="770"/>
      <point x="354" y="955"/>
    </contour>
  </outline>
</glyph>
<glyph name="nine" format="1">
  <advance width="1281"/>
  <unicode hex="0039"/>
  <outline>
    <contour>
      <point x="172.3896103896104" y="1002.4675324675325" type="qcurve" smooth="yes"/>
      <point x="172.3896103896104" y="805.3961038961039"/>
      <point x="405.77272727272725" y="563.1233766233767"/>
      <point x="602.2922077922078" y="563.1233766233767" type="qcurve" smooth="yes"/>
      <point x="810.6753246753246" y="563.1233766233767"/>
      <point x="1094.1168831168832" y="812.1948051948052"/>
      <point x="1094.1168831168832" y="1002.4675324675325" type="qcurve"/>
      <point x="1059.3896103896104" y="1002.4675324675325" type="line"/>
      <point x="1059.3896103896104" y="838.1948051948052"/>
      <point x="793.6753246753246" y="606.2012987012987"/>
      <point x="617.025974025974" y="606.2012987012987" type="qcurve" smooth="yes"/>
      <point x="425.9805194805195" y="606.2012987012987"/>
      <point x="217.07142857142856" y="811.1363636363636"/>
      <point x="217.07142857142856" y="1002.4675324675325" type="qcurve" smooth="yes"/>
      <point x="217.07142857142856" y="1212.7272727272727"/>
      <point x="425.9805194805195" y="1439.4610389610389"/>
      <point x="617.025974025974" y="1439.4610389610389" type="qcurve" smooth="yes"/>
      <point x="807.7402597402597" y="1439.4610389610389"/>
      <point x="1055.051948051948" y="1176.525974025974"/>
      <point x="1055.051948051948" y="852.0" type="qcurve" smooth="yes"/>
      <point x="1055.051948051948" y="802.0" type="line" smooth="yes"/>
      <point x="1055.051948051948" y="433.1948051948052"/>
      <point x="690.6883116883116" y="17.07142857142857"/>
      <point x="384.1168831168831" y="17.07142857142857" type="qcurve" smooth="yes"/>
      <point x="358.5844155844156" y="17.07142857142857" type="line"/>
      <point x="358.5844155844156" y="-27.337662337662337" type="line"/>
      <point x="384.1168831168831" y="-27.337662337662337" type="line" smooth="yes"/>
      <point x="719.4935064935065" y="-27.337662337662337"/>
      <point x="1101.064935064935" y="425.93506493506493"/>
      <point x="1101.064935064935" y="812.0" type="qcurve" smooth="yes"/>
      <point x="1101.064935064935" y="842.0" type="line" smooth="yes"/>
      <point x="1101.064935064935" y="1182.0"/>
      <point x="816.012987012987" y="1483.3376623376623"/>
      <point x="617.025974025974" y="1483.3376623376623" type="qcurve" smooth="yes"/>
      <point x="420.2402597402597" y="1483.3376623376623"/>
      <point x="172.3896103896104" y="1218.4675324675325"/>
    </contour>
  </outline>
</glyph>
<glyph name="colon" format="1">
  <advance width="470"/>
  <unicode hex="003A"/>
  <outline>
    <contour>
      <point x="181.93506493506493" y="50.76155844155844" type="qcurve" smooth="yes"/>
      <point x="181.93506493506493" y="20.689090909090908"/>
      <point x="210.3079220779221" y="-21.2012987012987"/>
      <point x="235.60727272727274" y="-21.2012987012987" type="qcurve" smooth="yes"/>
      <point x="261.9066233766234" y="-21.2012987012987"/>
      <point x="288.54571428571427" y="20.955324675324675"/>
      <point x="288.54571428571427" y="50.76155844155844" type="qcurve" smooth="yes"/>
      <point x="288.54571428571427" y="80.56779220779221"/>
      <point x="261.6403896103896" y="122.72441558441558"/>
      <point x="235.34103896103898" y="122.72441558441558" type="qcurve" smooth="yes"/>
      <point x="210.04168831168832" y="122.72441558441558"/>
      <point x="181.93506493506493" y="80.56779220779221"/>
    </contour>
    <contour>
      <point x="181.93506493506493" y="970.7709090909091" type="qcurve" smooth="yes"/>
      <point x="181.93506493506493" y="940.9646753246753"/>
      <point x="210.3079220779221" y="899.0742857142857"/>
      <point x="235.60727272727274" y="899.0742857142857" type="qcurve" smooth="yes"/>
      <point x="261.9066233766234" y="899.0742857142857"/>
      <point x="288.54571428571427" y="941.2309090909091"/>
      <point x="288.54571428571427" y="971.0371428571428" type="qcurve" smooth="yes"/>
      <point x="288.54571428571427" y="1001.1096103896103"/>
      <point x="261.6403896103896" y="1042.7337662337663"/>
      <point x="235.34103896103898" y="1042.7337662337663" type="qcurve" smooth="yes"/>
      <point x="210.04168831168832" y="1042.7337662337663"/>
      <point x="181.93506493506493" y="1001.1096103896103"/>
    </contour>
  </outline>
</glyph>
<glyph name="semicolon" format="1">
  <advance width="525"/>
  <unicode hex="003B"/>
  <outline>
    <contour>
      <point x="178" y="-148" type="qcurve"/>
      <point x="239" y="-181" type="line"/>
      <point x="283" y="-136"/>
      <point x="332" y="-27"/>
      <point x="332" y="45" type="qcurve" smooth="yes"/>
      <point x="332" y="140" type="line"/>
      <point x="239" y="140" type="line"/>
      <point x="239" y="45" type="line" smooth="yes"/>
      <point x="239" y="-16"/>
      <point x="207" y="-105"/>
    </contour>
    <contour>
      <point x="196" y="1007" type="qcurve" smooth="yes"/>
      <point x="196" y="975"/>
      <point x="231" y="930"/>
      <point x="263" y="930" type="qcurve" smooth="yes"/>
      <point x="295" y="930"/>
      <point x="329" y="975"/>
      <point x="329" y="1007" type="qcurve" smooth="yes"/>
      <point x="329" y="1039"/>
      <point x="295" y="1084"/>
      <point x="263" y="1084" type="qcurve" smooth="yes"/>
      <point x="231" y="1084"/>
      <point x="196" y="1039"/>
    </contour>
  </outline>
</glyph>
<glyph name="less" format="1">
  <advance width="1360"/>
  <unicode hex="003C"/>
  <outline>
    <contour>
      <point x="1167" y="261" type="line"/>
      <point x="1167" y="335" type="line"/>
      <point x="265" y="674" type="line"/>
      <point x="1167" y="1013" type="line"/>
      <point x="1167" y="1087" type="line"/>
      <point x="184" y="707" type="line"/>
      <point x="184" y="640" type="line"/>
    </contour>
  </outline>
</glyph>
<glyph name="equal" format="1">
  <advance width="1363"/>
  <unicode hex="003D"/>
  <outline>
    <contour>
      <point x="217" y="446" type="line"/>
      <point x="1146" y="446" type="line"/>
      <point x="1146" y="512" type="line"/>
      <point x="217" y="512" type="line"/>
    </contour>
    <contour>
      <point x="217" y="836" type="line"/>
      <point x="1146" y="836" type="line"/>
      <point x="1146" y="902" type="line"/>
      <point x="217" y="902" type="line"/>
    </contour>
  </outline>
</glyph>
<glyph name="greater" format="1">
  <advance width="1265"/>
  <unicode hex="003E"/>
  <outline>
    <contour>
      <point x="158" y="244" type="line"/>
      <point x="1115" y="628" type="line"/>
      <point x="1115" y="720" type="line"/>
      <point x="158" y="1104" type="line"/>
      <point x="158" y="1007" type="line"/>
      <point x="1012" y="674" type="line"/>
      <point x="158" y="341" type="line"/>
    </contour>
  </outline>
</glyph>
<glyph name="question" format="1">
  <advance width="777"/>
  <unicode hex="003F"/>
  <outline>
    <contour>
      <point x="270" y="57" type="qcurve" smooth="yes"/>
      <point x="270" y="24"/>
      <point x="303" y="-22"/>
      <point x="333" y="-22" type="qcurve" smooth="yes"/>
      <point x="362" y="-22"/>
      <point x="395" y="24"/>
      <point x="395" y="57" type="qcurve" smooth="yes"/>
      <point x="395" y="89"/>
      <point x="362" y="135"/>
      <point x="333" y="135" type="qcurve" smooth="yes"/>
      <point x="303" y="135"/>
      <point x="270" y="89"/>
    </contour>
    <contour>
      <point x="23" y="1101" type="line"/>
      <point x="86" y="1101" type="line"/>
      <point x="86" y="1119" type="line" smooth="yes"/>
      <point x="86" y="1256"/>
      <point x="233" y="1410"/>
      <point x="374" y="1410" type="qcurve" smooth="yes"/>
      <point x="514" y="1410"/>
      <point x="654" y="1258"/>
      <point x="654" y="1143" type="qcurve" smooth="yes"/>
      <point x="654" y="1027"/>
      <point x="560" y="870"/>
      <point x="472" y="778" type="qcurve" smooth="yes"/>
      <point x="384" y="687"/>
      <point x="295" y="531"/>
      <point x="295" y="417" type="qcurve" smooth="yes"/>
      <point x="295" y="407" type="line"/>
      <point x="360" y="407" type="line"/>
      <point x="360" y="417" type="line" smooth="yes"/>
      <point x="360" y="496"/>
      <point x="423" y="640"/>
      <point x="521" y="741" type="qcurve" smooth="yes"/>
      <point x="610" y="834"/>
      <point x="718" y="1006"/>
      <point x="718" y="1143" type="qcurve" smooth="yes"/>
      <point x="718" y="1284"/>
      <point x="536" y="1476"/>
      <point x="374" y="1476" type="qcurve" smooth="yes"/>
      <point x="212" y="1476"/>
      <point x="23" y="1279"/>
      <point x="23" y="1119" type="qcurve" smooth="yes"/>
    </contour>
  </outline>
</glyph>
<glyph name="at" format="1">
  <advance width="2286"/>
  <unicode hex="0040"/>
  <outline>
    <contour>
      <point x="741.8659740259741" y="400.0" type="qcurve" smooth="yes"/>
      <point x="741.8659740259741" y="220.0"/>
      <point x="890.5857142857143" y="0.0"/>
      <point x="1017.6548051948052" y="0.0" type="qcurve" smooth="yes"/>
      <point x="1114.325651855563" y="0.0"/>
      <point x="1274.5527762415843" y="100.13744064687042"/>
      <point x="1314.2750649350648" y="190.0766233766234" type="qcurve"/>
      <point x="1353.189477834519" y="102.09538091931498"/>
      <point x="1528.049044369674" y="0.0"/>
      <point x="1657.2262337662337" y="0.0" type="qcurve" smooth="yes"/>
      <point x="1873.8872727272728" y="0.0"/>
      <point x="2173.0433766233764" y="360.0"/>
      <point x="2173.0433766233764" y="650.0" type="qcurve" smooth="yes"/>
      <point x="2173.0433766233764" y="1000.0"/>
      <point x="1645.1046753246753" y="1486.0"/>
      <point x="1199.1457142857143" y="1486.0" type="qcurve" smooth="yes"/>
      <point x="747.5285714285715" y="1486.0"/>
      <point x="112.53246753246754" y="880.0"/>
      <point x="112.53246753246754" y="460.0" type="qcurve" smooth="yes"/>
      <point x="112.53246753246754" y="40.0"/>
      <point x="672.4935064935065" y="-446.0"/>
      <point x="1073.885974025974" y="-446.0" type="qcurve" smooth="yes"/>
      <point x="1248.169090909091" y="-446.0"/>
      <point x="1488.0283116883118" y="-400.0"/>
      <point x="1576.4574025974025" y="-356.0" type="qcurve"/>
      <point x="1576.4574025974025" y="-301.7355844155844" type="line"/>
      <point x="1493.070909090909" y="-337.7355844155844"/>
      <point x="1248.169090909091" y="-391.7355844155844"/>
      <point x="1073.885974025974" y="-391.7355844155844" type="qcurve" smooth="yes"/>
      <point x="685.5613358070501" y="-391.7355844155844"/>
      <point x="165.83844155844156" y="50.65224258994594"/>
      <point x="165.83844155844156" y="460.0" type="qcurve" smooth="yes"/>
      <point x="165.83844155844156" y="861.7007303157094"/>
      <point x="760.3820064935065" y="1431.7355844155843"/>
      <point x="1199.1457142857143" y="1431.7355844155843" type="qcurve" smooth="yes"/>
      <point x="1638.1385460349707" y="1431.7355844155843"/>
      <point x="2124.2784415584415" y="960.4255142246787"/>
      <point x="2124.2784415584415" y="650.0" type="qcurve" smooth="yes"/>
      <point x="2124.2784415584415" y="384.30299480965004"/>
      <point x="1862.5373368403748" y="55.352727272727265"/>
      <point x="1654.4145454545455" y="55.352727272727265" type="qcurve" smooth="yes"/>
      <point x="1510.2794805194806" y="55.352727272727265"/>
      <point x="1336.0578106763055" y="182.73146524373203"/>
      <point x="1377.5257142857142" y="350.0" type="qcurve" smooth="yes"/>
      <point x="1528.3296103896103" y="946.0" type="line"/>
      <point x="1515.3862337662338" y="946.0" type="line"/>
      <point x="1478.280779220779" y="977.7327272727273"/>
      <point x="1327.7003896103897" y="1052.0"/>
      <point x="1243.695064935065" y="1052.0" type="qcurve" smooth="yes"/>
      <point x="1035.658051948052" y="1052.0"/>
      <point x="741.8659740259741" y="680.0"/>
    </contour>
    <contour>
      <point x="797.3903896103895" y="400.0" type="qcurve" smooth="yes"/>
      <point x="797.3903896103895" y="657.4369089572521"/>
      <point x="1058.3043970315398" y="997.3064935064936"/>
      <point x="1257.5897402597402" y="997.3064935064936" type="qcurve" smooth="yes"/>
      <point x="1315.5796377306904" y="997.3064935064936"/>
      <point x="1434.342894700718" y="962.9871459966998"/>
      <point x="1473.0523376623378" y="936.1532467532468" type="qcurve"/>
      <point x="1330.6296103896104" y="389.1948051948052" type="line" smooth="yes"/>
      <point x="1283.8801197010127" y="205.05167258205634"/>
      <point x="1134.1622063107993" y="54.93324675324675"/>
      <point x="1035.4802597402597" y="54.93324675324675" type="qcurve" smooth="yes"/>
      <point x="919.9062715924852" y="54.93324675324675"/>
      <point x="797.3903896103895" y="230.4664309184791"/>
    </contour>
  </outline>
</glyph>
<glyph name="A" format="1">
  <advance width="1291"/>
  <unicode hex="0041"/>
  <outline>
    <contour>
      <point x="-15.136363636363637" y="0.0" type="line"/>
      <point x="35.386753246753244" y="0.0" type="line"/>
      <point x="562.9755844155844" y="1295.5158441558442" type="line" smooth="yes"/>
      <point x="583.475974025974" y="1345.1992207792207"/>
      <point x="622.084935064935" y="1428.7781818181818"/>
      <point x="638.7057142857143" y="1473.4244155844156" type="qcurve"/>
      <point x="651.2361038961039" y="1473.4244155844156" type="line"/>
      <point x="665.9644155844156" y="1428.7781818181818"/>
      <point x="701.797012987013" y="1345.1992207792207"/>
      <point x="722.5636363636363" y="1295.5158441558442" type="qcurve" smooth="yes"/>
      <point x="1252.962857142857" y="0.0" type="line"/>
      <point x="1306.6467532467532" y="0.0" type="line"/>
      <point x="690.3166233766234" y="1463.8051948051948" type="line"/>
      <point x="601.5675324675325" y="1463.8051948051948" type="line"/>
    </contour>
    <contour>
      <point x="202.17363636363638" y="440.2714285714286" type="line"/>
      <point x="1097.4976623376624" y="440.2714285714286" type="line"/>
      <point x="1072.6787012987013" y="483.2322077922078" type="line"/>
      <point x="227.73064935064934" y="483.2322077922078" type="line"/>
    </contour>
  </outline>
</glyph>
<glyph name="B" format="1">
  <advance width="1178"/>
  <unicode hex="0042"/>
  <outline>
    <contour>
      <point x="159.35064935064935" y="0.0" type="line"/>
      <point x="651.28" y="0.0" type="line" smooth="yes"/>
      <point x="854.5193506493506" y="0.0"/>
      <point x="1091.3923376623377" y="205.19922077922078"/>
      <point x="1091.3923376623377" y="392.1322077922078" type="qcurve" smooth="yes"/>
      <point x="1091.3923376623377" y="542.8371428571429"/>
      <point x="935.7875324675324" y="733.427012987013"/>
      <point x="809.4372727272728" y="761.1703896103896" type="qcurve"/>
      <point x="809.4372727272728" y="765.1703896103896" type="line"/>
      <point x="910.2433766233767" y="792.3812987012986"/>
      <point x="1042.304025974026" y="963.3332467532467"/>
      <point x="1042.304025974026" y="1093.8774025974026" type="qcurve" smooth="yes"/>
      <point x="1042.304025974026" y="1280.0766233766233"/>
      <point x="816.0327272727272" y="1456.0"/>
      <point x="612.8093506493507" y="1456.0" type="qcurve" smooth="yes"/>
      <point x="159.35064935064935" y="1456.0" type="line"/>
    </contour>
    <contour>
      <point x="204.52233766233766" y="42.42831168831168" type="line"/>
      <point x="204.52233766233766" y="737.2054545454546" type="line"/>
      <point x="651.28" y="737.2054545454546" type="line" smooth="yes"/>
      <point x="854.903362273086" y="737.2054545454546"/>
      <point x="1045.9501298701298" y="549.0497502497502"/>
      <point x="1045.9501298701298" y="391.7296103896104" type="qcurve" smooth="yes"/>
      <point x="1045.9501298701298" y="231.45276631344115"/>
      <point x="854.9664935064935" y="42.42831168831168"/>
      <point x="651.28" y="42.42831168831168" type="qcurve" smooth="yes"/>
    </contour>
    <contour>
      <point x="204.52233766233766" y="779.2620779220779" type="line"/>
      <point x="204.52233766233766" y="1413.5716883116884" type="line"/>
      <point x="612.8093506493507" y="1413.5716883116884" type="line" smooth="yes"/>
      <point x="817.5480651925977" y="1413.5716883116884"/>
      <point x="996.8618181818182" y="1247.463116883117"/>
      <point x="996.8618181818182" y="1094.28" type="qcurve" smooth="yes"/>
      <point x="996.8618181818182" y="946.6753988868275"/>
      <point x="817.5384415584416" y="779.2620779220779"/>
      <point x="612.8093506493507" y="779.2620779220779" type="qcurve" smooth="yes"/>
    </contour>
  </outline>
</glyph>
<glyph name="C" format="1">
  <advance width="1281"/>
  <unicode hex="0043"/>
  <outline>
    <contour>
      <point x="105.81168831168831" y="701.5246753246753" type="line" smooth="yes"/>
      <point x="105.81168831168831" y="350.30180942652856"/>
      <point x="443.67727272727274" y="-27.07142857142857"/>
      <point x="704.7227272727273" y="-27.07142857142857" type="qcurve" smooth="yes"/>
      <point x="956.7203896103896" y="-27.07142857142857"/>
      <point x="1222.7763636363636" y="247.76909090909092"/>
      <point x="1242.3218181818181" y="447.2077922077922" type="qcurve" smooth="yes"/>
      <point x="1243.0555844155845" y="465.1948051948052" type="line"/>
      <point x="1198.4099999999999" y="465.1948051948052" type="line"/>
      <point x="1197.6762337662337" y="449.87012987012986" type="line" smooth="yes"/>
      <point x="1181.479090909091" y="280.7349354138501"/>
      <point x="948.9959791863765" y="16.601818181818174"/>
      <point x="703.9889610389611" y="16.601818181818174" type="qcurve" smooth="yes"/>
      <point x="459.71413761676916" y="16.601818181818174"/>
      <point x="150.5307792207792" y="375.6345661389096"/>
      <point x="150.5307792207792" y="701.5246753246753" type="qcurve" smooth="yes"/>
      <point x="150.5307792207792" y="754.4753246753247" type="line" smooth="yes"/>
      <point x="150.5307792207792" y="1081.146785818683"/>
      <point x="457.3180337206653" y="1439.398181818182"/>
      <point x="703.9889610389611" y="1439.398181818182" type="qcurve" smooth="yes"/>
      <point x="948.9959791863765" y="1439.398181818182"/>
      <point x="1181.9973616427521" y="1169.820356488518"/>
      <point x="1197.6762337662337" y="1006.1298701298701" type="qcurve" smooth="yes"/>
      <point x="1198.4099999999999" y="990.8051948051948" type="line"/>
      <point x="1243.0555844155845" y="990.8051948051948" type="line"/>
      <point x="1242.3218181818181" y="1008.7922077922078" type="line" smooth="yes"/>
      <point x="1222.7763636363636" y="1209.8283116883117"/>
      <point x="956.7203896103896" y="1483.0714285714287"/>
      <point x="704.7227272727273" y="1483.0714285714287" type="qcurve" smooth="yes"/>
      <point x="445.8071428571429" y="1483.0714285714287"/>
      <point x="105.81168831168831" y="1107.5132467532467"/>
      <point x="105.81168831168831" y="754.4753246753247" type="qcurve" smooth="yes"/>
    </contour>
  </outline>
</glyph>
<glyph name="D" format="1">
  <advance width="1292"/>
  <unicode hex="0044"/>
  <outline>
    <contour>
      <point x="176" y="0" type="line"/>
      <point x="553" y="0" type="line" smooth="yes"/>
      <point x="831" y="0"/>
      <point x="1179" y="370"/>
      <point x="1179" y="688" type="qcurve" smooth="yes"/>
      <point x="1179" y="768" type="line" smooth="yes"/>
      <point x="1179" y="1086"/>
      <point x="831" y="1456"/>
      <point x="553" y="1456" type="qcurve" smooth="yes"/>
      <point x="176" y="1456" type="line"/>
    </contour>
    <contour>
      <point x="230" y="50" type="line"/>
      <point x="230" y="1406" type="line"/>
      <point x="553" y="1406" type="line" smooth="yes"/>
      <point x="815" y="1406"/>
      <point x="1126" y="1068"/>
      <point x="1126" y="768" type="qcurve" smooth="yes"/>
      <point x="1126" y="688" type="line" smooth="yes"/>
      <point x="1126" y="388"/>
      <point x="815" y="50"/>
      <point x="553" y="50" type="qcurve" smooth="yes"/>
    </contour>
  </outline>
</glyph>
<glyph name="E" format="1">
  <advance width="1079"/>
  <unicode hex="0045"/>
  <outline>
    <contour>
      <point x="163.75324675324674" y="0.0" type="line"/>
      <point x="1036.3574025974026" y="0.0" type="line"/>
      <point x="1036.3574025974026" y="44.02571428571429" type="line"/>
      <point x="208.1368831168831" y="44.02571428571429" type="line"/>
      <point x="208.1368831168831" y="733.5228571428571" type="line"/>
      <point x="907.6366233766233" y="733.5228571428571" type="line"/>
      <point x="907.6366233766233" y="777.2823376623377" type="line"/>
      <point x="208.1368831168831" y="777.2823376623377" type="line"/>
      <point x="208.1368831168831" y="1411.9742857142858" type="line"/>
      <point x="1024.7397402597403" y="1411.9742857142858" type="line"/>
      <point x="1024.7397402597403" y="1456.0" type="line"/>
      <point x="163.75324675324674" y="1456.0" type="line"/>
    </contour>
  </outline>
</glyph>
<glyph name="F" format="1">
  <advance width="1116"/>
  <unicode hex="0046"/>
  <outline>
    <contour>
      <point x="190" y="0" type="line"/>
      <point x="244" y="0" type="line"/>
      <point x="244" y="707" type="line"/>
      <point x="945" y="707" type="line"/>
      <point x="945" y="757" type="line"/>
      <point x="244" y="757" type="line"/>
      <point x="244" y="1406" type="line"/>
      <point x="1065" y="1406" type="line"/>
      <point x="1065" y="1456" type="line"/>
      <point x="190" y="1456" type="line"/>
    </contour>
  </outline>
</glyph>
<glyph name="G" format="1">
  <advance width="1296"/>
  <unicode hex="0047"/>
  <outline>
    <contour>
      <point x="113" y="688" type="line" smooth="yes"/>
      <point x="113" y="349"/>
      <point x="450" y="-30"/>
      <point x="734" y="-30" type="qcurve" smooth="yes"/>
      <point x="906" y="-30"/>
      <point x="1142" y="74"/>
      <point x="1215" y="142" type="qcurve"/>
      <point x="1215" y="677" type="line"/>
      <point x="713" y="677" type="line"/>
      <point x="713" y="627" type="line"/>
      <point x="1166" y="627" type="line"/>
      <point x="1166" y="156" type="line"/>
      <point x="1076" y="88"/>
      <point x="873" y="21"/>
      <point x="734" y="21" type="qcurve" smooth="yes"/>
      <point x="464" y="21"/>
      <point x="167" y="376"/>
      <point x="167" y="688" type="qcurve" smooth="yes"/>
      <point x="167" y="768" type="line" smooth="yes"/>
      <point x="167" y="1080"/>
      <point x="464" y="1435"/>
      <point x="698" y="1435" type="qcurve" smooth="yes"/>
      <point x="926" y="1435"/>
      <point x="1145" y="1181"/>
      <point x="1161" y="1042" type="qcurve" smooth="yes"/>
      <point x="1162" y="1032" type="line"/>
      <point x="1215" y="1032" type="line"/>
      <point x="1213" y="1042" type="line" smooth="yes"/>
      <point x="1190" y="1221"/>
      <point x="939" y="1486"/>
      <point x="698" y="1486" type="qcurve" smooth="yes"/>
      <point x="447" y="1486"/>
      <point x="113" y="1107"/>
      <point x="113" y="768" type="qcurve" smooth="yes"/>
    </contour>
  </outline>
</glyph>
<glyph name="H" format="1">
  <advance width="1412"/>
  <unicode hex="0048"/>
  <outline>
    <contour>
      <point x="163.75324675324674" y="0.0" type="line"/>
      <point x="208.1368831168831" y="0.0" type="line"/>
      <point x="208.1368831168831" y="733.7890909090909" type="line"/>
      <point x="1204.5901298701299" y="733.7890909090909" type="line"/>
      <point x="1204.5901298701299" y="0.0" type="line"/>
      <point x="1248.7075324675325" y="0.0" type="line"/>
      <point x="1248.7075324675325" y="1456.0" type="line"/>
      <point x="1204.5901298701299" y="1456.0" type="line"/>
      <point x="1204.5901298701299" y="778.081038961039" type="line"/>
      <point x="208.1368831168831" y="778.081038961039" type="line"/>
      <point x="208.1368831168831" y="1456.0" type="line"/>
      <point x="163.75324675324674" y="1456.0" type="line"/>
    </contour>
  </outline>
</glyph>
<glyph name="I" format="1">
  <advance width="386"/>
  <unicode hex="0049"/>
  <outline>
    <contour>
      <point x="170.08441558441558" y="0.0" type="line"/>
      <point x="214.20181818181817" y="0.0" type="line"/>
      <point x="214.20181818181817" y="1456.0" type="line"/>
      <point x="170.08441558441558" y="1456.0" type="line"/>
    </contour>
  </outline>
</glyph>
<glyph name="J" format="1">
  <advance width="992"/>
  <unicode hex="004A"/>
  <outline>
    <contour>
      <point x="11.792207792207792" y="422.83116883116884" type="line" smooth="yes"/>
      <point x="11.792207792207792" y="208.33844155844156"/>
      <point x="242.9805194805195" y="-27.337662337662337"/>
      <point x="429.4403896103896" y="-27.337662337662337" type="qcurve" smooth="yes"/>
      <point x="619.8937662337662" y="-27.337662337662337"/>
      <point x="845.1577922077922" y="230.85442557442556"/>
      <point x="845.1577922077922" y="455.8181818181818" type="qcurve" smooth="yes"/>
      <point x="845.1577922077922" y="1456.0" type="line"/>
      <point x="801.0403896103896" y="1456.0" type="line"/>
      <point x="801.0403896103896" y="458.4805194805195" type="line" smooth="yes"/>
      <point x="801.0403896103896" y="244.2172973955066"/>
      <point x="601.9929381663113" y="16.335584415584407"/>
      <point x="429.4403896103896" y="16.335584415584407" type="qcurve" smooth="yes"/>
      <point x="256.1540748207017" y="16.335584415584407"/>
      <point x="56.84038961038962" y="222.82980538086554"/>
      <point x="56.84038961038962" y="428.15584415584414" type="qcurve" smooth="yes"/>
      <point x="56.84038961038962" y="440.8181818181818" type="line"/>
      <point x="11.792207792207792" y="440.8181818181818" type="line"/>
    </contour>
  </outline>
</glyph>
<glyph name="K" format="1">
  <advance width="1220"/>
  <unicode hex="004B"/>
  <outline>
    <contour>
      <point x="163.75324675324674" y="0.0" type="line"/>
      <point x="208.1368831168831" y="0.0" type="line"/>
      <point x="208.1368831168831" y="563.4166233766234" type="line"/>
      <point x="1232.7335064935064" y="1456.0" type="line"/>
      <point x="1159.4438961038961" y="1456.0" type="line"/>
      <point x="208.1368831168831" y="618.2646753246753" type="line"/>
      <point x="208.1368831168831" y="1456.0" type="line"/>
      <point x="163.75324675324674" y="1456.0" type="line"/>
    </contour>
    <contour>
      <point x="1192.9007792207792" y="0.0" type="line"/>
      <point x="1259.951948051948" y="0.0" type="line"/>
      <point x="492.2597402597403" y="824.8171428571428" type="line"/>
      <point x="456.9371428571428" y="797.8646753246753" type="line"/>
    </contour>
  </outline>
</glyph>
<glyph name="L" format="1">
  <advance width="982"/>
  <unicode hex="004C"/>
  <outline>
    <contour>
      <point x="176" y="0" type="line"/>
      <point x="993" y="0" type="line"/>
      <point x="993" y="50" type="line"/>
      <point x="230" y="50" type="line"/>
      <point x="230" y="1456" type="line"/>
      <point x="176" y="1456" type="line"/>
    </contour>
  </outline>
</glyph>
<glyph name="M" format="1">
  <advance width="1810"/>
  <unicode hex="004D"/>
  <outline>
    <contour>
      <point x="176" y="0" type="line"/>
      <point x="229" y="0" type="line"/>
      <point x="229" y="1223" type="line" smooth="yes"/>
      <point x="229" y="1252"/>
      <point x="222" y="1325"/>
      <point x="218" y="1355" type="qcurve"/>
      <point x="232" y="1355" type="line"/>
      <point x="238" y="1325"/>
      <point x="270" y="1252"/>
      <point x="283" y="1223" type="qcurve" smooth="yes"/>
      <point x="876" y="0" type="line"/>
      <point x="933" y="0" type="line"/>
      <point x="1527" y="1223" type="line" smooth="yes"/>
      <point x="1541" y="1252"/>
      <point x="1570" y="1325"/>
      <point x="1578" y="1355" type="qcurve"/>
      <point x="1593" y="1355" type="line"/>
      <point x="1588" y="1325"/>
      <point x="1581" y="1252"/>
      <point x="1581" y="1223" type="qcurve" smooth="yes"/>
      <point x="1581" y="0" type="line"/>
      <point x="1634" y="0" type="line"/>
      <point x="1634" y="1456" type="line"/>
      <point x="1581" y="1456" type="line"/>
      <point x="965" y="187" type="line" smooth="yes"/>
      <point x="950" y="156"/>
      <point x="926" y="93"/>
      <point x="915" y="65" type="qcurve"/>
      <point x="903" y="65" type="line"/>
      <point x="894" y="93"/>
      <point x="861" y="156"/>
      <point x="846" y="187" type="qcurve" smooth="yes"/>
      <point x="230" y="1456" type="line"/>
      <point x="176" y="1456" type="line"/>
    </contour>
  </outline>
</glyph>
<glyph name="N" format="1">
  <advance width="1483"/>
  <unicode hex="004E"/>
  <outline>
    <contour>
      <point x="190" y="0" type="line"/>
      <point x="243" y="0" type="line"/>
      <point x="243" y="1198" type="line" smooth="yes"/>
      <point x="243" y="1232"/>
      <point x="241" y="1309"/>
      <point x="233" y="1355" type="qcurve"/>
      <point x="254" y="1355" type="line"/>
      <point x="275" y="1326"/>
      <point x="327" y="1256"/>
      <point x="354" y="1218" type="qcurve" smooth="yes"/>
      <point x="1226" y="0" type="line"/>
      <point x="1294" y="0" type="line"/>
      <point x="1294" y="1456" type="line"/>
      <point x="1241" y="1456" type="line"/>
      <point x="1241" y="258" type="line" smooth="yes"/>
      <point x="1241" y="229"/>
      <point x="1243" y="130"/>
      <point x="1248" y="101" type="qcurve"/>
      <point x="1227" y="101" type="line"/>
      <point x="1210" y="125"/>
      <point x="1153" y="205"/>
      <point x="1130" y="238" type="qcurve" smooth="yes"/>
      <point x="259" y="1456" type="line"/>
      <point x="190" y="1456" type="line"/>
    </contour>
  </outline>
</glyph>
<glyph name="O" format="1">
  <advance width="1496"/>
  <unicode hex="004F"/>
  <outline>
    <contour>
      <point x="120" y="688" type="line" smooth="yes"/>
      <point x="120" y="349"/>
      <point x="471" y="-30"/>
      <point x="746" y="-30" type="qcurve" smooth="yes"/>
      <point x="1022" y="-30"/>
      <point x="1375" y="349"/>
      <point x="1375" y="688" type="qcurve" smooth="yes"/>
      <point x="1375" y="768" type="line" smooth="yes"/>
      <point x="1375" y="1107"/>
      <point x="1022" y="1486"/>
      <point x="746" y="1486" type="qcurve" smooth="yes"/>
      <point x="471" y="1486"/>
      <point x="120" y="1107"/>
      <point x="120" y="768" type="qcurve" smooth="yes"/>
    </contour>
    <contour>
      <point x="173" y="688" type="qcurve" smooth="yes"/>
      <point x="173" y="768" type="line" smooth="yes"/>
      <point x="173" y="1085"/>
      <point x="490" y="1435"/>
      <point x="746" y="1435" type="qcurve" smooth="yes"/>
      <point x="1003" y="1435"/>
      <point x="1320" y="1085"/>
      <point x="1320" y="768" type="qcurve" smooth="yes"/>
      <point x="1320" y="688" type="line" smooth="yes"/>
      <point x="1320" y="371"/>
      <point x="1003" y="21"/>
      <point x="746" y="21" type="qcurve" smooth="yes"/>
      <point x="490" y="21"/>
      <point x="173" y="371"/>
    </contour>
  </outline>
</glyph>
<glyph name="P" format="1">
  <advance width="1086"/>
  <unicode hex="0050"/>
  <outline>
    <contour>
      <point x="176" y="0" type="line"/>
      <point x="230" y="0" type="line"/>
      <point x="230" y="618" type="line"/>
      <point x="614" y="618" type="line" smooth="yes"/>
      <point x="839" y="618"/>
      <point x="1057" y="854"/>
      <point x="1057" y="1038" type="qcurve" smooth="yes"/>
      <point x="1057" y="1221"/>
      <point x="839" y="1456"/>
      <point x="614" y="1456" type="qcurve" smooth="yes"/>
      <point x="176" y="1456" type="line"/>
    </contour>
    <contour>
      <point x="230" y="668" type="line"/>
      <point x="230" y="1406" type="line"/>
      <point x="614" y="1406" type="line" smooth="yes"/>
      <point x="829" y="1406"/>
      <point x="1002" y="1196"/>
      <point x="1002" y="1038" type="qcurve" smooth="yes"/>
      <point x="1002" y="880"/>
      <point x="829" y="668"/>
      <point x="614" y="668" type="qcurve" smooth="yes"/>
    </contour>
  </outline>
</glyph>
<glyph name="Q" format="1">
  <advance width="1511"/>
  <unicode hex="0051"/>
  <outline>
    <contour>
      <point x="121" y="688" type="line" smooth="yes"/>
      <point x="121" y="349"/>
      <point x="475" y="-30"/>
      <point x="756" y="-30" type="qcurve" smooth="yes"/>
      <point x="1033" y="-30"/>
      <point x="1389" y="349"/>
      <point x="1389" y="688" type="qcurve" smooth="yes"/>
      <point x="1389" y="768" type="line" smooth="yes"/>
      <point x="1389" y="1107"/>
      <point x="1033" y="1486"/>
      <point x="756" y="1486" type="qcurve" smooth="yes"/>
      <point x="475" y="1486"/>
      <point x="121" y="1107"/>
      <point x="121" y="768" type="qcurve" smooth="yes"/>
    </contour>
    <contour>
      <point x="175" y="688" type="qcurve" smooth="yes"/>
      <point x="175" y="768" type="line" smooth="yes"/>
      <point x="175" y="1085"/>
      <point x="497" y="1435"/>
      <point x="756" y="1435" type="qcurve" smooth="yes"/>
      <point x="1013" y="1435"/>
      <point x="1335" y="1085"/>
      <point x="1335" y="768" type="qcurve" smooth="yes"/>
      <point x="1335" y="688" type="line" smooth="yes"/>
      <point x="1335" y="371"/>
      <point x="1013" y="21"/>
      <point x="756" y="21" type="qcurve" smooth="yes"/>
      <point x="497" y="21"/>
      <point x="175" y="371"/>
    </contour>
    <contour>
      <point x="1419" y="-212" type="line"/>
      <point x="1455" y="-173" type="line"/>
      <point x="792" y="287" type="line"/>
      <point x="755" y="249" type="line"/>
    </contour>
  </outline>
</glyph>
<glyph name="R" format="1">
  <advance width="1219"/>
  <unicode hex="0052"/>
  <outline>
    <contour>
      <point x="190" y="0" type="line"/>
      <point x="244" y="0" type="line"/>
      <point x="244" y="646" type="line"/>
      <point x="648" y="646" type="line" smooth="yes"/>
      <point x="880" y="646"/>
      <point x="1107" y="872"/>
      <point x="1107" y="1052" type="qcurve" smooth="yes"/>
      <point x="1107" y="1232"/>
      <point x="880" y="1456"/>
      <point x="648" y="1456" type="qcurve" smooth="yes"/>
      <point x="190" y="1456" type="line"/>
    </contour>
    <contour>
      <point x="244" y="696" type="line"/>
      <point x="244" y="1406" type="line"/>
      <point x="648" y="1406" type="line" smooth="yes"/>
      <point x="877" y="1406"/>
      <point x="1053" y="1203"/>
      <point x="1053" y="1052" type="qcurve" smooth="yes"/>
      <point x="1053" y="901"/>
      <point x="877" y="696"/>
      <point x="648" y="696" type="qcurve" smooth="yes"/>
    </contour>
    <contour>
      <point x="1134" y="0" type="line"/>
      <point x="1200" y="0" type="line"/>
      <point x="724" y="672" type="line"/>
      <point x="665" y="672" type="line"/>
    </contour>
  </outline>
</glyph>
<glyph name="S" format="1">
  <advance width="1201"/>
  <unicode hex="0053"/>
  <outline>
    <contour>
      <point x="90" y="388" type="line" smooth="yes"/>
      <point x="90" y="195"/>
      <point x="375" y="-30"/>
      <point x="612" y="-30" type="qcurve" smooth="yes"/>
      <point x="849" y="-30"/>
      <point x="1125" y="188"/>
      <point x="1125" y="358" type="qcurve" smooth="yes"/>
      <point x="1125" y="514"/>
      <point x="916" y="697"/>
      <point x="649" y="766" type="qcurve" smooth="yes"/>
      <point x="381" y="835"/>
      <point x="181" y="992"/>
      <point x="181" y="1107" type="qcurve" smooth="yes"/>
      <point x="181" y="1249"/>
      <point x="386" y="1435"/>
      <point x="600" y="1435" type="qcurve" smooth="yes"/>
      <point x="814" y="1435"/>
      <point x="1031" y="1227"/>
      <point x="1031" y="1074" type="qcurve" smooth="yes"/>
      <point x="1031" y="1064" type="line"/>
      <point x="1085" y="1064" type="line"/>
      <point x="1085" y="1074" type="line" smooth="yes"/>
      <point x="1085" y="1246"/>
      <point x="823" y="1486"/>
      <point x="600" y="1486" type="qcurve" smooth="yes"/>
      <point x="379" y="1486"/>
      <point x="127" y="1272"/>
      <point x="127" y="1112" type="qcurve" smooth="yes"/>
      <point x="127" y="963"/>
      <point x="351" y="786"/>
      <point x="619" y="718" type="qcurve" smooth="yes"/>
      <point x="890" y="647"/>
      <point x="1071" y="486"/>
      <point x="1071" y="363" type="qcurve" smooth="yes"/>
      <point x="1071" y="219"/>
      <point x="834" y="21"/>
      <point x="612" y="21" type="qcurve" smooth="yes"/>
      <point x="390" y="21"/>
      <point x="144" y="213"/>
      <point x="144" y="388" type="qcurve" smooth="yes"/>
      <point x="144" y="398" type="line"/>
      <point x="90" y="398" type="line"/>
    </contour>
  </outline>
</glyph>
<glyph name="T" format="1">
  <advance width="1115"/>
  <unicode hex="0054"/>
  <outline>
    <contour>
      <point x="3" y="1406" type="line"/>
      <point x="530" y="1406" type="line"/>
      <point x="530" y="0" type="line"/>
      <point x="584" y="0" type="line"/>
      <point x="584" y="1406" type="line"/>
      <point x="1112" y="1406" type="line"/>
      <point x="1112" y="1456" type="line"/>
      <point x="3" y="1456" type="line"/>
    </contour>
  </outline>
</glyph>
<glyph name="U" format="1">
  <advance width="1302"/>
  <unicode hex="0055"/>
  <outline>
    <contour>
      <point x="148.61688311688312" y="500.35064935064935" type="line" smooth="yes"/>
      <point x="148.61688311688312" y="235.17532467532467"/>
      <point x="430.8542857142857" y="-27.337662337662337"/>
      <point x="650.7207792207791" y="-27.337662337662337" type="qcurve" smooth="yes"/>
      <point x="870.5872727272728" y="-27.337662337662337"/>
      <point x="1153.2922077922078" y="235.17532467532467"/>
      <point x="1153.2922077922078" y="500.35064935064935" type="qcurve" smooth="yes"/>
      <point x="1153.2922077922078" y="1456.0" type="line"/>
      <point x="1108.9085714285713" y="1456.0" type="line"/>
      <point x="1108.9085714285713" y="500.35064935064935" type="line" smooth="yes"/>
      <point x="1108.9085714285713" y="252.262804576376"/>
      <point x="852.1852660942875" y="16.335584415584407"/>
      <point x="650.987012987013" y="16.335584415584407" type="qcurve" smooth="yes"/>
      <point x="449.3796144189939" y="16.335584415584407"/>
      <point x="192.7342857142857" y="252.99657081014223"/>
      <point x="192.7342857142857" y="500.35064935064935" type="qcurve" smooth="yes"/>
      <point x="192.7342857142857" y="1456.0" type="line"/>
      <point x="148.61688311688312" y="1456.0" type="line"/>
    </contour>
  </outline>
</glyph>
<glyph name="V" format="1">
  <advance width="1306"/>
  <unicode hex="0056"/>
  <outline>
    <contour>
      <point x="-28" y="1456" type="line"/>
      <point x="621" y="-11" type="line"/>
      <point x="679" y="-11" type="line"/>
      <point x="1335" y="1456" type="line"/>
      <point x="1279" y="1456" type="line"/>
      <point x="723" y="204" type="line" smooth="yes"/>
      <point x="707" y="167"/>
      <point x="674" y="97"/>
      <point x="662" y="61" type="qcurve"/>
      <point x="642" y="61" type="line"/>
      <point x="631" y="97"/>
      <point x="597" y="166"/>
      <point x="582" y="204" type="qcurve" smooth="yes"/>
      <point x="31" y="1456" type="line"/>
    </contour>
  </outline>
</glyph>
<glyph name="W" format="1">
  <advance width="2034"/>
  <unicode hex="0057"/>
  <outline>
    <contour>
      <point x="507" y="-11" type="line"/>
      <point x="544" y="-11" type="line"/>
      <point x="985" y="1249" type="line" smooth="yes"/>
      <point x="996" y="1283"/>
      <point x="1016" y="1342"/>
      <point x="1020" y="1374" type="qcurve"/>
      <point x="1026" y="1374" type="line"/>
      <point x="1030" y="1342"/>
      <point x="1044" y="1282"/>
      <point x="1055" y="1249" type="qcurve" smooth="yes"/>
      <point x="1494" y="-11" type="line"/>
      <point x="1531" y="-11" type="line"/>
      <point x="1991" y="1456" type="line"/>
      <point x="1940" y="1456" type="line"/>
      <point x="1545" y="203" type="line" smooth="yes"/>
      <point x="1534" y="169"/>
      <point x="1520" y="111"/>
      <point x="1516" y="78" type="qcurve"/>
      <point x="1509" y="78" type="line"/>
      <point x="1505" y="112"/>
      <point x="1486" y="168"/>
      <point x="1473" y="203" type="qcurve" smooth="yes"/>
      <point x="1046" y="1456" type="line"/>
      <point x="997" y="1456" type="line"/>
      <point x="567" y="203" type="line" smooth="yes"/>
      <point x="556" y="169"/>
      <point x="541" y="111"/>
      <point x="535" y="78" type="qcurve"/>
      <point x="528" y="78" type="line"/>
      <point x="522" y="112"/>
      <point x="505" y="168"/>
      <point x="494" y="203" type="qcurve" smooth="yes"/>
      <point x="101" y="1456" type="line"/>
      <point x="44" y="1456" type="line"/>
    </contour>
  </outline>
</glyph>
<glyph name="X" format="1">
  <advance width="1374"/>
  <unicode hex="0058"/>
  <outline>
    <contour>
      <point x="8" y="0" type="line"/>
      <point x="74" y="0" type="line"/>
      <point x="696" y="714" type="line"/>
      <point x="693" y="714" type="line"/>
      <point x="1333" y="1456" type="line"/>
      <point x="1267" y="1456" type="line"/>
      <point x="666" y="762" type="line"/>
      <point x="669" y="762" type="line"/>
    </contour>
    <contour>
      <point x="42" y="1456" type="line"/>
      <point x="670" y="705" type="line"/>
      <point x="673" y="705" type="line"/>
      <point x="1295" y="0" type="line"/>
      <point x="1365" y="0" type="line"/>
      <point x="690" y="771" type="line"/>
      <point x="684" y="771" type="line"/>
      <point x="108" y="1456" type="line"/>
    </contour>
  </outline>
</glyph>
<glyph name="Y" format="1">
  <advance width="1194"/>
  <unicode hex="0059"/>
  <outline>
    <contour>
      <point x="571" y="0" type="line"/>
      <point x="623" y="0" type="line"/>
      <point x="623" y="593" type="line"/>
      <point x="1196" y="1456" type="line"/>
      <point x="1136" y="1456" type="line"/>
      <point x="678" y="757" type="line" smooth="yes"/>
      <point x="659" y="727"/>
      <point x="622" y="665"/>
      <point x="602" y="635" type="qcurve"/>
      <point x="595" y="635" type="line"/>
      <point x="575" y="666"/>
      <point x="539" y="726"/>
      <point x="518" y="757" type="qcurve" smooth="yes"/>
      <point x="60" y="1456" type="line"/>
      <point x="-1" y="1456" type="line"/>
      <point x="571" y="593" type="line"/>
    </contour>
  </outline>
</glyph>
<glyph name="Z" format="1">
  <advance width="1173"/>
  <unicode hex="005A"/>
  <outline>
    <contour>
      <point x="17" y="0" type="line"/>
      <point x="1157" y="0" type="line"/>
      <point x="1157" y="50" type="line"/>
      <point x="91" y="50" type="line"/>
      <point x="1119" y="1421" type="line"/>
      <point x="1119" y="1456" type="line"/>
      <point x="31" y="1456" type="line"/>
      <point x="31" y="1406" type="line"/>
      <point x="1044" y="1406" type="line"/>
      <point x="17" y="35" type="line"/>
    </contour>
  </outline>
</glyph>
<glyph name="bracketleft" format="1">
  <advance width="563"/>
  <unicode hex="005B"/>
  <outline>
    <contour>
      <point x="146" y="-310" type="line"/>
      <point x="580" y="-310" type="line"/>
      <point x="580" y="-245" type="line"/>
      <point x="213" y="-245" type="line"/>
      <point x="213" y="1391" type="line"/>
      <point x="580" y="1391" type="line"/>
      <point x="580" y="1456" type="line"/>
      <point x="146" y="1456" type="line"/>
    </contour>
  </outline>
</glyph>
<glyph name="backslash" format="1">
  <advance width="602"/>
  <unicode hex="005C"/>
  <outline>
    <contour>
      <point x="-124.21428571428571" y="1456.0" type="line"/>
      <point x="662.9210389610389" y="-125.0" type="line"/>
      <point x="726.4283116883116" y="-125.0" type="line"/>
      <point x="-62.74961038961038" y="1456.0" type="line"/>
    </contour>
  </outline>
</glyph>
<glyph name="bracketright" format="1">
  <advance width="543"/>
  <unicode hex="005D"/>
  <outline>
    <contour>
      <point x="396.04415584415585" y="-310.0" type="line"/>
      <point x="396.04415584415585" y="1456.0" type="line"/>
      <point x="-53.887272727272716" y="1456.0" type="line"/>
      <point x="-53.887272727272716" y="1405.3233766233766" type="line"/>
      <point x="340.81168831168833" y="1405.3233766233766" type="line"/>
      <point x="340.81168831168833" y="-259.3233766233766" type="line"/>
      <point x="-53.887272727272716" y="-259.3233766233766" type="line"/>
      <point x="-53.887272727272716" y="-310.0" type="line"/>
    </contour>
  </outline>
</glyph>
<glyph name="asciicircum" format="1">
  <advance width="1231"/>
  <unicode hex="005E"/>
  <outline>
    <contour>
      <point x="5" y="720" type="line"/>
      <point x="106" y="720" type="line"/>
      <point x="615" y="1383" type="line"/>
      <point x="1125" y="720" type="line"/>
      <point x="1226" y="720" type="line"/>
      <point x="658" y="1456" type="line"/>
      <point x="572" y="1456" type="line"/>
    </contour>
  </outline>
</glyph>
<glyph name="underscore" format="1">
  <advance width="1173"/>
  <unicode hex="005F"/>
  <outline>
    <contour>
      <point x="-23" y="-167" type="line"/>
      <point x="383" y="-167" type="line"/>
      <point x="383" y="-100" type="line"/>
      <point x="-23" y="-100" type="line"/>
    </contour>
    <contour>
      <point x="383" y="-167" type="line"/>
      <point x="790" y="-167" type="line"/>
      <point x="790" y="-100" type="line"/>
      <point x="383" y="-100" type="line"/>
    </contour>
    <contour>
      <point x="790" y="-167" type="line"/>
      <point x="1195" y="-167" type="line"/>
      <point x="1195" y="-100" type="line"/>
      <point x="790" y="-100" type="line"/>
    </contour>
  </outline>
</glyph>
<glyph name="grave" format="1">
  <advance width="1157"/>
  <unicode hex="0060"/>
  <outline>
    <contour>
      <point x="578.0412987012987" y="1156.0" type="line"/>
      <point x="643.4514285714286" y="1156.0" type="line"/>
      <point x="356.95012987012984" y="1456.0" type="line"/>
      <point x="277.1" y="1456.0" type="line"/>
    </contour>
  </outline>
</glyph>
<glyph name="a" format="1">
  <advance width="978"/>
  <unicode hex="0061"/>
  <outline>
    <contour>
      <point x="82" y="242" type="qcurve" smooth="yes"/>
      <point x="82" y="113"/>
      <point x="260" y="-17"/>
      <point x="407" y="-17" type="qcurve" smooth="yes"/>
      <point x="554" y="-17"/>
      <point x="749" y="90"/>
      <point x="789" y="145" type="qcurve"/>
      <point x="796" y="105"/>
      <point x="822" y="24"/>
      <point x="842" y="0" type="qcurve"/>
      <point x="887" y="0" type="line"/>
      <point x="887" y="14" type="line"/>
      <point x="863" y="51"/>
      <point x="840" y="149"/>
      <point x="840" y="203" type="qcurve" smooth="yes"/>
      <point x="840" y="606" type="line" smooth="yes"/>
      <point x="840" y="759"/>
      <point x="666" y="913"/>
      <point x="506" y="913" type="qcurve" smooth="yes"/>
      <point x="339" y="913"/>
      <point x="161" y="761"/>
      <point x="161" y="655" type="qcurve" smooth="yes"/>
      <point x="161" y="651" type="line"/>
      <point x="207" y="651" type="line"/>
      <point x="207" y="655" type="line" smooth="yes"/>
      <point x="207" y="736"/>
      <point x="342" y="863"/>
      <point x="501" y="863" type="qcurve" smooth="yes"/>
      <point x="659" y="863"/>
      <point x="788" y="721"/>
      <point x="788" y="606" type="qcurve" smooth="yes"/>
      <point x="788" y="511" type="line"/>
      <point x="476" y="511" type="line" smooth="yes"/>
      <point x="303" y="511"/>
      <point x="82" y="365"/>
    </contour>
    <contour>
      <point x="132" y="243" type="qcurve" smooth="yes"/>
      <point x="132" y="342"/>
      <point x="320" y="461"/>
      <point x="501" y="461" type="qcurve" smooth="yes"/>
      <point x="788" y="461" type="line"/>
      <point x="788" y="284" type="line"/>
      <point x="788" y="192"/>
      <point x="558" y="33"/>
      <point x="417" y="33" type="qcurve" smooth="yes"/>
      <point x="270" y="33"/>
      <point x="132" y="143"/>
    </contour>
  </outline>
</glyph>
<glyph name="b" format="1">
  <advance width="1023"/>
  <unicode hex="0062"/>
  <outline>
    <contour>
      <point x="124.6038961038961" y="0.0" type="line"/>
      <point x="162.6412987012987" y="0.0" type="line"/>
      <point x="162.99168831168834" y="136.79090909090908" type="line"/>
      <point x="161.59454545454545" y="136.79090909090908" type="line"/>
      <point x="215.42942291528863" y="73.98591716324931"/>
      <point x="418.4031751426144" y="-17.7987012987013"/>
      <point x="549.4425974025974" y="-17.7987012987013" type="qcurve" smooth="yes"/>
      <point x="744.7135064935064" y="-17.7987012987013"/>
      <point x="962.2506493506494" y="240.25974025974025"/>
      <point x="962.2506493506494" y="436.5909090909091" type="qcurve" smooth="yes"/>
      <point x="962.2506493506494" y="464.9220779220779" type="line" smooth="yes"/>
      <point x="962.2506493506494" y="659.7857142857143"/>
      <point x="744.7135064935064" y="911.987012987013"/>
      <point x="549.4425974025974" y="911.987012987013" type="qcurve" smooth="yes"/>
      <point x="418.3174569402229" y="911.987012987013"/>
      <point x="228.22701265670767" y="830.7750684147545"/>
      <point x="166.90337662337663" y="767.8" type="qcurve"/>
      <point x="166.90337662337663" y="1458.0" type="line"/>
      <point x="124.6038961038961" y="1458.0" type="line"/>
    </contour>
    <contour>
      <point x="166.90337662337663" y="206.32987012987013" type="qcurve"/>
      <point x="166.90337662337663" y="688.1246753246753" type="line"/>
      <point x="209.19315392895587" y="759.2909772984623"/>
      <point x="397.1034054834055" y="867.875064935065"/>
      <point x="531.841038961039" y="867.875064935065" type="qcurve" smooth="yes"/>
      <point x="732.780897883842" y="867.875064935065"/>
      <point x="918.9405194805195" y="637.9163906039316"/>
      <point x="918.9405194805195" y="464.9220779220779" type="qcurve" smooth="yes"/>
      <point x="918.9405194805195" y="436.8571428571429" type="line" smooth="yes"/>
      <point x="918.9405194805195" y="262.7991393182653"/>
      <point x="732.780897883842" y="26.31324675324676"/>
      <point x="535.0358441558442" y="26.31324675324676" type="qcurve" smooth="yes"/>
      <point x="397.1034054834055" y="26.31324675324676"/>
      <point x="210.01988891254194" y="135.58395306267295"/>
    </contour>
  </outline>
</glyph>
<glyph name="c" format="1">
  <advance width="890"/>
  <unicode hex="0063"/>
  <outline>
    <contour>
      <point x="59.66883116883117" y="433.92857142857144" type="line" smooth="yes"/>
      <point x="59.66883116883117" y="228.46753246753246"/>
      <point x="294.912987012987" y="-24.4025974025974"/>
      <point x="497.8750649350649" y="-24.4025974025974" type="qcurve" smooth="yes"/>
      <point x="688.2332467532467" y="-24.4025974025974"/>
      <point x="875.6415584415585" y="165.6207792207792"/>
      <point x="875.6415584415585" y="290.3181818181818" type="qcurve" smooth="yes"/>
      <point x="875.6415584415585" y="298.7142857142857" type="line"/>
      <point x="835.6818181818181" y="298.7142857142857" type="line"/>
      <point x="835.6818181818181" y="290.3181818181818" type="line" smooth="yes"/>
      <point x="835.6818181818181" y="181.88039530190923"/>
      <point x="675.388006474238" y="19.91064935064935"/>
      <point x="497.3425974025974" y="19.91064935064935" type="qcurve" smooth="yes"/>
      <point x="296.70430150494667" y="19.91064935064935"/>
      <point x="101.71272727272728" y="256.3591584141452"/>
      <point x="101.71272727272728" y="433.92857142857144" type="qcurve" smooth="yes"/>
      <point x="101.71272727272728" y="462.2597402597403" type="line" smooth="yes"/>
      <point x="101.71272727272728" y="641.4652361431672"/>
      <point x="298.0354703361155" y="874.2776623376624"/>
      <point x="497.8750649350649" y="874.2776623376624" type="qcurve" smooth="yes"/>
      <point x="675.388006474238" y="874.2776623376624"/>
      <point x="834.6168831168831" y="715.1783477932856"/>
      <point x="834.6168831168831" y="605.7987012987013" type="qcurve" smooth="yes"/>
      <point x="834.6168831168831" y="599.6038961038961" type="line"/>
      <point x="875.6415584415585" y="599.6038961038961" type="line"/>
      <point x="875.6415584415585" y="605.7987012987013" type="line" smooth="yes"/>
      <point x="875.6415584415585" y="734.3597402597402"/>
      <point x="688.2332467532467" y="918.5909090909091"/>
      <point x="497.8750649350649" y="918.5909090909091" type="qcurve" smooth="yes"/>
      <point x="293.84805194805193" y="918.5909090909091"/>
      <point x="59.66883116883117" y="666.7857142857143"/>
      <point x="59.66883116883117" y="462.2597402597403" type="qcurve" smooth="yes"/>
    </contour>
  </outline>
</glyph>
<glyph name="d" format="1">
  <advance width="1051"/>
  <unicode hex="0064"/>
  <outline>
    <contour>
      <point x="70" y="431" type="line" smooth="yes"/>
      <point x="70" y="236"/>
      <point x="289" y="-17"/>
      <point x="487" y="-17" type="qcurve" smooth="yes"/>
      <point x="612" y="-17"/>
      <point x="806" y="67"/>
      <point x="857" y="123" type="qcurve"/>
      <point x="858" y="123" type="line"/>
      <point x="861" y="0" type="line"/>
      <point x="903" y="0" type="line"/>
      <point x="903" y="1458" type="line"/>
      <point x="852" y="1458" type="line"/>
      <point x="852" y="776" type="line"/>
      <point x="793" y="832"/>
      <point x="612" y="904"/>
      <point x="487" y="904" type="qcurve" smooth="yes"/>
      <point x="289" y="904"/>
      <point x="70" y="651"/>
      <point x="70" y="458" type="qcurve" smooth="yes"/>
    </contour>
    <contour>
      <point x="120" y="431" type="qcurve" smooth="yes"/>
      <point x="120" y="458" type="line" smooth="yes"/>
      <point x="120" y="626"/>
      <point x="302" y="855"/>
      <point x="499" y="855" type="qcurve" smooth="yes"/>
      <point x="628" y="855"/>
      <point x="812" y="755"/>
      <point x="852" y="691" type="qcurve"/>
      <point x="852" y="196" type="line"/>
      <point x="812" y="133"/>
      <point x="628" y="32"/>
      <point x="499" y="32" type="qcurve" smooth="yes"/>
      <point x="302" y="32"/>
      <point x="120" y="262"/>
    </contour>
  </outline>
</glyph>
<glyph name="e" format="1">
  <advance width="924"/>
  <unicode hex="0065"/>
  <outline>
    <contour>
      <point x="52" y="434" type="line" smooth="yes"/>
      <point x="52.0" y="212.0"/>
      <point x="296.0" y="-26.0"/>
      <point x="522" y="-26" type="qcurve" smooth="yes"/>
      <point x="638.0" y="-26.0"/>
      <point x="826.0" y="48.0"/>
      <point x="885" y="117" type="qcurve"/>
      <point x="828" y="171" type="line"/>
      <point x="775.0" y="112.0"/>
      <point x="617.0" y="49.0"/>
      <point x="522" y="49" type="qcurve" smooth="yes"/>
      <point x="335.0" y="49.0"/>
      <point x="134.0" y="248.0"/>
      <point x="134" y="434" type="qcurve" smooth="yes"/>
      <point x="134" y="461" type="line" smooth="yes"/>
      <point x="134.0" y="646.0"/>
      <point x="318.0" y="845.0"/>
      <point x="490" y="845" type="qcurve" smooth="yes"/>
      <point x="646.0" y="845.0"/>
      <point x="814.0" y="676.0"/>
      <point x="814" y="519" type="qcurve" smooth="yes"/>
      <point x="814" y="510" type="line"/>
      <point x="91" y="510" type="line"/>
      <point x="91" y="437" type="line"/>
      <point x="895" y="437" type="line"/>
      <point x="895" y="476" type="line" smooth="yes"/>
      <point x="895.0" y="690.0"/>
      <point x="685.0" y="920.0"/>
      <point x="490" y="920" type="qcurve" smooth="yes"/>
      <point x="279.0" y="920.0"/>
      <point x="52.0" y="682.0"/>
      <point x="52" y="461" type="qcurve" smooth="yes"/>
    </contour>
  </outline>
</glyph>
<glyph name="f" format="1">
  <advance width="522"/>
  <unicode hex="0066"/>
  <outline>
    <contour>
      <point x="223.72857142857143" y="0.0" type="line"/>
      <point x="267.22935064935064" y="0.0" type="line"/>
      <point x="267.22935064935064" y="869.875064935065" type="line"/>
      <point x="267.22935064935064" y="877.9688311688312" type="line"/>
      <point x="267.22935064935064" y="1142.8805194805195" type="line" smooth="yes"/>
      <point x="267.22935064935064" y="1289.5866248143"/>
      <point x="394.7747878787879" y="1432.6675324675325"/>
      <point x="511.4083116883117" y="1432.6675324675325" type="qcurve" smooth="yes"/>
      <point x="544.0290909090909" y="1432.6675324675325"/>
      <point x="606.9735064935065" y="1422.6771428571428"/>
      <point x="628.145974025974" y="1418.496103896104" type="qcurve"/>
      <point x="640.6475324675324" y="1462.7337662337663" type="line"/>
      <point x="610.6337662337662" y="1468.6379220779222"/>
      <point x="543.1046753246753" y="1477.2662337662337"/>
      <point x="509.38805194805195" y="1477.2662337662337" type="qcurve" smooth="yes"/>
      <point x="376.2210281610282" y="1477.2662337662337"/>
      <point x="223.72857142857143" y="1305.5676929811762"/>
      <point x="223.72857142857143" y="1142.8805194805195" type="qcurve" smooth="yes"/>
    </contour>
    <contour>
      <point x="-2.2662337662337677" y="849.7335064935065" type="line"/>
      <point x="554.0472727272727" y="849.7335064935065" type="line"/>
      <point x="554.0472727272727" y="894.1883116883117" type="line"/>
      <point x="253.23454545454547" y="894.1883116883117" type="line"/>
      <point x="233.48805194805195" y="894.1883116883117" type="line"/>
      <point x="-2.2662337662337677" y="894.1883116883117" type="line"/>
    </contour>
  </outline>
</glyph>
<glyph name="g" format="1">
  <advance width="1051"/>
  <unicode hex="0067"/>
  <outline>
    <contour>
      <point x="110" y="-274" type="line"/>
      <point x="178" y="-317"/>
      <point x="367" y="-370"/>
      <point x="480" y="-370" type="qcurve" smooth="yes"/>
      <point x="668" y="-370"/>
      <point x="903" y="-172"/>
      <point x="903" y="11" type="qcurve" smooth="yes"/>
      <point x="903" y="887" type="line"/>
      <point x="859" y="887" type="line"/>
      <point x="855" y="765" type="line"/>
      <point x="853" y="765" type="line"/>
      <point x="805" y="820"/>
      <point x="612" y="904"/>
      <point x="487" y="904" type="qcurve" smooth="yes"/>
      <point x="289" y="904"/>
      <point x="70" y="651"/>
      <point x="70" y="458" type="qcurve" smooth="yes"/>
      <point x="70" y="431" type="line" smooth="yes"/>
      <point x="70" y="236"/>
      <point x="289" y="-17"/>
      <point x="487" y="-17" type="qcurve" smooth="yes"/>
      <point x="612" y="-17"/>
      <point x="793" y="56"/>
      <point x="852" y="111" type="qcurve"/>
      <point x="852" y="11" type="line" smooth="yes"/>
      <point x="852" y="-145"/>
      <point x="650" y="-317"/>
      <point x="475" y="-317" type="qcurve" smooth="yes"/>
      <point x="377" y="-317"/>
      <point x="205" y="-266"/>
      <point x="157" y="-229" type="qcurve"/>
    </contour>
    <contour>
      <point x="122" y="431" type="qcurve" smooth="yes"/>
      <point x="122" y="458" type="line" smooth="yes"/>
      <point x="122" y="626"/>
      <point x="303" y="855"/>
      <point x="499" y="855" type="qcurve" smooth="yes"/>
      <point x="628" y="855"/>
      <point x="812" y="755"/>
      <point x="852" y="691" type="qcurve"/>
      <point x="852" y="196" type="line"/>
      <point x="812" y="133"/>
      <point x="628" y="32"/>
      <point x="499" y="32" type="qcurve" smooth="yes"/>
      <point x="303" y="32"/>
      <point x="122" y="262"/>
    </contour>
  </outline>
</glyph>
<glyph name="h" format="1">
  <advance width="1015"/>
  <unicode hex="0068"/>
  <outline>
    <contour>
      <point x="149" y="0" type="line"/>
      <point x="199" y="0" type="line"/>
      <point x="199" y="691" type="line"/>
      <point x="252" y="762"/>
      <point x="425" y="854"/>
      <point x="541" y="854" type="qcurve" smooth="yes"/>
      <point x="678" y="854"/>
      <point x="830" y="750"/>
      <point x="830" y="630" type="qcurve" smooth="yes"/>
      <point x="830" y="0" type="line"/>
      <point x="880" y="0" type="line"/>
      <point x="880" y="628" type="line" smooth="yes"/>
      <point x="880" y="777"/>
      <point x="703" y="904"/>
      <point x="555" y="904" type="qcurve" smooth="yes"/>
      <point x="438" y="904"/>
      <point x="259" y="828"/>
      <point x="199" y="766" type="qcurve"/>
      <point x="199" y="1458" type="line"/>
      <point x="149" y="1458" type="line"/>
    </contour>
  </outline>
</glyph>
<glyph name="i" format="1">
  <advance width="307"/>
  <unicode hex="0069"/>
  <outline>
    <contour>
      <point x="132.80519480519482" y="0.0" type="line"/>
      <point x="174.3709090909091" y="0.0" type="line"/>
      <point x="174.3709090909091" y="894.1883116883117" type="line"/>
      <point x="132.80519480519482" y="894.1883116883117" type="line"/>
    </contour>
    <contour>
      <point x="114.20779220779221" y="1270.2724675324675" type="qcurve" smooth="yes"/>
      <point x="114.20779220779221" y="1248.3363636363636"/>
      <point x="134.83402597402596" y="1218.4215584415583"/>
      <point x="153.58805194805194" y="1218.4215584415583" type="qcurve" smooth="yes"/>
      <point x="172.07584415584415" y="1218.4215584415583"/>
      <point x="191.9683116883117" y="1248.3363636363636"/>
      <point x="191.9683116883117" y="1270.2724675324675" type="qcurve" smooth="yes"/>
      <point x="191.9683116883117" y="1292.9423376623376"/>
      <point x="172.34207792207792" y="1322.590909090909"/>
      <point x="153.58805194805194" y="1322.590909090909" type="qcurve" smooth="yes"/>
      <point x="134.83402597402596" y="1322.590909090909"/>
      <point x="114.20779220779221" y="1292.676103896104"/>
    </contour>
  </outline>
</glyph>
<glyph name="j" format="1">
  <advance width="322"/>
  <unicode hex="006A"/>
  <outline>
    <contour>
      <point x="-138" y="-351" type="line"/>
      <point x="-120" y="-357"/>
      <point x="-52" y="-370"/>
      <point x="-23" y="-370" type="qcurve" smooth="yes"/>
      <point x="81" y="-370"/>
      <point x="186" y="-245"/>
      <point x="186" y="-107" type="qcurve" smooth="yes"/>
      <point x="186" y="887" type="line"/>
      <point x="135" y="887" type="line"/>
      <point x="135" y="-118" type="line" smooth="yes"/>
      <point x="135" y="-225"/>
      <point x="48" y="-320"/>
      <point x="-33" y="-320" type="qcurve" smooth="yes"/>
      <point x="-59" y="-320"/>
      <point x="-120" y="-307"/>
      <point x="-138" y="-302" type="qcurve"/>
    </contour>
    <contour>
      <point x="119" y="1253" type="qcurve" smooth="yes"/>
      <point x="119" y="1230"/>
      <point x="141" y="1200"/>
      <point x="161" y="1200" type="qcurve" smooth="yes"/>
      <point x="181" y="1200"/>
      <point x="202" y="1230"/>
      <point x="202" y="1253" type="qcurve" smooth="yes"/>
      <point x="202" y="1275"/>
      <point x="181" y="1306"/>
      <point x="161" y="1306" type="qcurve" smooth="yes"/>
      <point x="141" y="1306"/>
      <point x="119" y="1275"/>
    </contour>
  </outline>
</glyph>
<glyph name="k" format="1">
  <advance width="904"/>
  <unicode hex="006B"/>
  <outline>
    <contour>
      <point x="124.6038961038961" y="0.0" type="line"/>
      <point x="166.90337662337663" y="0.0" type="line"/>
      <point x="166.90337662337663" y="380.13714285714286" type="line"/>
      <point x="870.7635064935065" y="894.1883116883117" type="line"/>
      <point x="769.0028571428571" y="894.1883116883117" type="line"/>
      <point x="166.90337662337663" y="434.5005194805195" type="line"/>
      <point x="166.90337662337663" y="1458.0" type="line"/>
      <point x="124.6038961038961" y="1458.0" type="line"/>
    </contour>
    <contour>
      <point x="855.2545454545455" y="0.0" type="line"/>
      <point x="931.4545454545455" y="0.0" type="line"/>
      <point x="374.03415584415586" y="547.4545454545455" type="line"/>
      <point x="332.9277922077922" y="530.3763636363636" type="line"/>
    </contour>
  </outline>
</glyph>
<glyph name="l" format="1">
  <advance width="303"/>
  <unicode hex="006C"/>
  <outline>
    <contour>
      <point x="130.47402597402598" y="0.0" type="line"/>
      <point x="172.7735064935065" y="0.0" type="line"/>
      <point x="172.7735064935065" y="1458.0" type="line"/>
      <point x="130.47402597402598" y="1458.0" type="line"/>
    </contour>
  </outline>
</glyph>
<glyph name="m" format="1">
  <advance width="1628"/>
  <unicode hex="006D"/>
  <outline>
    <contour>
      <point x="106" y="0" type="line"/>
      <point x="190" y="0" type="line"/>
      <point x="190" y="647" type="line"/>
      <point x="242" y="727"/>
      <point x="400" y="835"/>
      <point x="508" y="835" type="qcurve" smooth="yes"/>
      <point x="635" y="835"/>
      <point x="774" y="711"/>
      <point x="776" y="568" type="qcurve" smooth="yes"/>
      <point x="776" y="0" type="line"/>
      <point x="861" y="0" type="line"/>
      <point x="861" y="647" type="line"/>
      <point x="913" y="727"/>
      <point x="1070" y="835"/>
      <point x="1179" y="835" type="qcurve" smooth="yes"/>
      <point x="1307" y="835"/>
      <point x="1445" y="711"/>
      <point x="1447" y="568" type="qcurve" smooth="yes"/>
      <point x="1447" y="0" type="line"/>
      <point x="1531" y="0" type="line"/>
      <point x="1531" y="566" type="line" smooth="yes"/>
      <point x="1531" y="753"/>
      <point x="1352" y="911"/>
      <point x="1203" y="911" type="qcurve" smooth="yes"/>
      <point x="1088" y="911"/>
      <point x="900" y="828"/>
      <point x="831" y="741" type="qcurve"/>
      <point x="832" y="741" type="line"/>
      <point x="800" y="826"/>
      <point x="647" y="911"/>
      <point x="541" y="911" type="qcurve" smooth="yes"/>
      <point x="428" y="911"/>
      <point x="253" y="825"/>
      <point x="185" y="741" type="qcurve"/>
      <point x="182" y="741" type="line"/>
      <point x="180" y="894" type="line"/>
      <point x="106" y="894" type="line"/>
    </contour>
  </outline>
</glyph>
<glyph name="n" format="1">
  <advance width="979"/>
  <unicode hex="006E"/>
  <outline>
    <contour>
      <point x="124.6038961038961" y="0.0" type="line"/>
      <point x="166.90337662337663" y="0.0" type="line"/>
      <point x="166.90337662337663" y="672.2688311688312" type="line"/>
      <point x="224.51396894665172" y="757.0027944085635"/>
      <point x="402.044882101139" y="868.3979220779221"/>
      <point x="521.6483116883117" y="868.3979220779221" type="qcurve" smooth="yes"/>
      <point x="665.0234320933304" y="868.3979220779221"/>
      <point x="822.5457142857142" y="740.6944245555135"/>
      <point x="822.5457142857142" y="594.0584415584416" type="qcurve" smooth="yes"/>
      <point x="822.5457142857142" y="0.0" type="line"/>
      <point x="865.8451948051948" y="0.0" type="line"/>
      <point x="865.8451948051948" y="594.7207792207793" type="line" smooth="yes"/>
      <point x="865.8451948051948" y="766.0559631208487"/>
      <point x="691.1844155844155" y="911.987012987013"/>
      <point x="541.9037662337662" y="911.987012987013" type="qcurve" smooth="yes"/>
      <point x="419.1930788433534" y="911.987012987013"/>
      <point x="229.46532467532467" y="826.18"/>
      <point x="161.59454545454545" y="739.5415584415584" type="qcurve"/>
      <point x="162.99168831168834" y="739.5415584415584" type="line"/>
      <point x="162.6412987012987" y="894.1883116883117" type="line"/>
      <point x="124.6038961038961" y="894.1883116883117" type="line"/>
    </contour>
  </outline>
</glyph>
<glyph name="o" format="1">
  <advance width="1023"/>
  <unicode hex="006F"/>
  <outline>
    <contour>
      <point x="52" y="434" type="line" smooth="yes"/>
      <point x="52.0" y="212.0"/>
      <point x="290.0" y="-26.0"/>
      <point x="512" y="-26" type="qcurve" smooth="yes"/>
      <point x="733.0" y="-26.0"/>
      <point x="971.0" y="212.0"/>
      <point x="971" y="434" type="qcurve" smooth="yes"/>
      <point x="971" y="461" type="line" smooth="yes"/>
      <point x="971.0" y="682.0"/>
      <point x="733.0" y="920.0"/>
      <point x="512" y="920" type="qcurve" smooth="yes"/>
      <point x="290.0" y="920.0"/>
      <point x="52.0" y="682.0"/>
      <point x="52" y="461" type="qcurve" smooth="yes"/>
    </contour>
    <contour>
      <point x="134" y="461" type="line" smooth="yes"/>
      <point x="134.0" y="646.0"/>
      <point x="330.0" y="844.0"/>
      <point x="512" y="844" type="qcurve" smooth="yes"/>
      <point x="694.0" y="844.0"/>
      <point x="889.0" y="646.0"/>
      <point x="889" y="461" type="qcurve" smooth="yes"/>
      <point x="889" y="434" type="line" smooth="yes"/>
      <point x="889.0" y="249.0"/>
      <point x="694.0" y="50.0"/>
      <point x="512" y="50" type="qcurve" smooth="yes"/>
      <point x="330.0" y="50.0"/>
      <point x="134.0" y="249.0"/>
      <point x="134" y="434" type="qcurve" smooth="yes"/>
    </contour>
  </outline>
</glyph>
<glyph name="p" format="1">
  <advance width="1023"/>
  <unicode hex="0070"/>
  <outline>
    <contour>
      <point x="124.6038961038961" y="-416.0" type="line"/>
      <point x="166.90337662337663" y="-416.0" type="line"/>
      <point x="166.90337662337663" y="126.65454545454546" type="line"/>
      <point x="228.12350649350648" y="64.27454545454546"/>
      <point x="418.242987012987" y="-17.7987012987013"/>
      <point x="549.4425974025974" y="-17.7987012987013" type="qcurve" smooth="yes"/>
      <point x="744.7135064935064" y="-17.7987012987013"/>
      <point x="962.2506493506494" y="235.2012987012987"/>
      <point x="962.2506493506494" y="435.2597402597403" type="qcurve" smooth="yes"/>
      <point x="962.2506493506494" y="463.5909090909091" type="line" smooth="yes"/>
      <point x="962.2506493506494" y="661.1168831168832"/>
      <point x="744.7135064935064" y="911.987012987013"/>
      <point x="549.4425974025974" y="911.987012987013" type="qcurve" smooth="yes"/>
      <point x="418.8180519480519" y="911.987012987013"/>
      <point x="214.98194805194805" y="818.604935064935"/>
      <point x="161.59454545454545" y="756.2675324675325" type="qcurve"/>
      <point x="162.99168831168834" y="756.2675324675325" type="line"/>
      <point x="162.6412987012987" y="894.1883116883117" type="line"/>
      <point x="124.6038961038961" y="894.1883116883117" type="line"/>
    </contour>
    <contour>
      <point x="166.90337662337663" y="206.32987012987013" type="qcurve"/>
      <point x="166.90337662337663" y="688.1246753246753" type="line"/>
      <point x="209.36857142857144" y="758.9828571428571"/>
      <point x="397.0088311688312" y="867.875064935065"/>
      <point x="531.841038961039" y="867.875064935065" type="qcurve" smooth="yes"/>
      <point x="731.7166233766234" y="867.875064935065"/>
      <point x="918.9405194805195" y="636.6012994014072"/>
      <point x="918.9405194805195" y="463.5909090909091" type="qcurve" smooth="yes"/>
      <point x="918.9405194805195" y="435.52597402597405" type="line" smooth="yes"/>
      <point x="918.9405194805195" y="261.48267451298705"/>
      <point x="731.7166233766234" y="26.31324675324676"/>
      <point x="531.841038961039" y="26.31324675324676" type="qcurve" smooth="yes"/>
      <point x="396.7425974025974" y="26.31324675324676"/>
      <point x="208.7935064935065" y="135.93922077922076"/>
    </contour>
  </outline>
</glyph>
<glyph name="q" format="1">
  <advance width="1023"/>
  <unicode hex="0071"/>
  <outline>
    <contour>
      <point x="59.66883116883117" y="433.92857142857144" type="line" smooth="yes"/>
      <point x="59.66883116883117" y="237.5974025974026"/>
      <point x="276.73844155844154" y="-17.7987012987013"/>
      <point x="472.6781818181818" y="-17.7987012987013" type="qcurve" smooth="yes"/>
      <point x="604.2089610389611" y="-17.7987012987013"/>
      <point x="793.5946753246753" y="64.54077922077921"/>
      <point x="855.4836363636364" y="126.65454545454546" type="qcurve"/>
      <point x="855.4836363636364" y="-416.0" type="line"/>
      <point x="898.3155844155845" y="-416.0" type="line"/>
      <point x="898.3155844155845" y="894.1883116883117" type="line"/>
      <point x="859.5444155844156" y="894.1883116883117" type="line"/>
      <point x="857.4602597402597" y="758.9298701298701" type="line"/>
      <point x="859.0587012987013" y="758.9298701298701" type="line"/>
      <point x="806.8725974025974" y="820.7348051948052"/>
      <point x="608.9585714285714" y="911.987012987013"/>
      <point x="475.34051948051945" y="911.987012987013" type="qcurve" smooth="yes"/>
      <point x="279.4007792207792" y="911.987012987013"/>
      <point x="59.66883116883117" y="657.1233766233767"/>
      <point x="59.66883116883117" y="462.2597402597403" type="qcurve" smooth="yes"/>
    </contour>
    <contour>
      <point x="101.71272727272728" y="433.92857142857144" type="qcurve" smooth="yes"/>
      <point x="101.71272727272728" y="462.2597402597403" type="line" smooth="yes"/>
      <point x="101.71272727272728" y="635.0266275214148"/>
      <point x="289.4690909090909" y="867.875064935065"/>
      <point x="490.8122077922078" y="867.875064935065" type="qcurve" smooth="yes"/>
      <point x="624.4431168831169" y="867.875064935065"/>
      <point x="813.550909090909" y="761.6451948051948"/>
      <point x="855.4836363636364" y="690.787012987013" type="qcurve"/>
      <point x="855.4836363636364" y="206.32987012987013" type="line"/>
      <point x="814.1259740259741" y="135.93922077922076"/>
      <point x="624.4431168831169" y="26.31324675324676"/>
      <point x="490.8122077922078" y="26.31324675324676" type="qcurve" smooth="yes"/>
      <point x="289.4690909090909" y="26.31324675324676"/>
      <point x="101.71272727272728" y="260.1626207654779"/>
    </contour>
  </outline>
</glyph>
<glyph name="r" format="1">
  <advance width="636"/>
  <unicode hex="0072"/>
  <outline>
    <contour>
      <point x="149" y="0" type="line"/>
      <point x="199" y="0" type="line"/>
      <point x="199" y="689" type="line"/>
      <point x="244" y="760"/>
      <point x="411" y="858"/>
      <point x="517" y="858" type="qcurve" smooth="yes"/>
      <point x="552" y="858"/>
      <point x="603" y="853"/>
      <point x="628" y="849" type="qcurve"/>
      <point x="628" y="901" type="line"/>
      <point x="616" y="904"/>
      <point x="558" y="913"/>
      <point x="534" y="913" type="qcurve" smooth="yes"/>
      <point x="414" y="913"/>
      <point x="246" y="820"/>
      <point x="193" y="764" type="qcurve"/>
      <point x="191" y="764" type="line"/>
      <point x="190" y="887" type="line"/>
      <point x="149" y="887" type="line"/>
    </contour>
  </outline>
</glyph>
<glyph name="s" format="1">
  <advance width="866"/>
  <unicode hex="0073"/>
  <outline>
    <contour>
      <point x="48" y="266" type="line"/>
      <point x="48" y="260" type="line" smooth="yes"/>
      <point x="48.0" y="122.0"/>
      <point x="250.0" y="-26.0"/>
      <point x="438" y="-26" type="qcurve" smooth="yes"/>
      <point x="621.0" y="-26.0"/>
      <point x="818.0" y="110.0"/>
      <point x="818" y="237" type="qcurve" smooth="yes"/>
      <point x="818" y="347"/>
      <point x="644" y="467"/>
      <point x="469" y="501" type="qcurve" smooth="yes"/>
      <point x="295" y="535"/>
      <point x="171" y="612"/>
      <point x="171" y="682" type="qcurve" smooth="yes"/>
      <point x="171.0" y="761.0"/>
      <point x="310.0" y="845.0"/>
      <point x="439" y="845" type="qcurve" smooth="yes"/>
      <point x="572.0" y="845.0"/>
      <point x="714.0" y="741.0"/>
      <point x="714" y="644" type="qcurve" smooth="yes"/>
      <point x="714" y="641" type="line"/>
      <point x="797" y="641" type="line"/>
      <point x="797" y="645" type="line" smooth="yes"/>
      <point x="797.0" y="778.0"/>
      <point x="611.0" y="920.0"/>
      <point x="439" y="920" type="qcurve" smooth="yes"/>
      <point x="270.0" y="920.0"/>
      <point x="88.0" y="792.0"/>
      <point x="88" y="673" type="qcurve" smooth="yes"/>
      <point x="88" y="574"/>
      <point x="255" y="458"/>
      <point x="429" y="424" type="qcurve" smooth="yes"/>
      <point x="604" y="390"/>
      <point x="735" y="309"/>
      <point x="735" y="227" type="qcurve" smooth="yes"/>
      <point x="735.0" y="141.0"/>
      <point x="581.0" y="49.0"/>
      <point x="438" y="49" type="qcurve" smooth="yes"/>
      <point x="290.0" y="49.0"/>
      <point x="131.0" y="158.0"/>
      <point x="131" y="260" type="qcurve" smooth="yes"/>
      <point x="131" y="266" type="line"/>
    </contour>
  </outline>
</glyph>
<glyph name="t" format="1">
  <advance width="500"/>
  <unicode hex="0074"/>
  <outline>
    <contour>
      <point x="-30" y="840" type="line"/>
      <point x="476" y="840" type="line"/>
      <point x="476" y="887" type="line"/>
      <point x="-30" y="887" type="line"/>
    </contour>
    <contour>
      <point x="176" y="213" type="line" smooth="yes"/>
      <point x="176" y="90"/>
      <point x="271" y="-26"/>
      <point x="353" y="-26" type="qcurve" smooth="yes"/>
      <point x="391" y="-26"/>
      <point x="451" y="-15"/>
      <point x="472" y="-7" type="qcurve"/>
      <point x="472" y="43" type="line"/>
      <point x="445" y="35"/>
      <point x="397" y="27"/>
      <point x="372" y="27" type="qcurve" smooth="yes"/>
      <point x="298" y="27"/>
      <point x="228" y="112"/>
      <point x="228" y="213" type="qcurve" smooth="yes"/>
      <point x="228" y="1272" type="line"/>
      <point x="176" y="1272" type="line"/>
      <point x="176" y="867" type="line"/>
      <point x="176" y="855" type="line"/>
    </contour>
  </outline>
</glyph>
<glyph name="u" format="1">
  <advance width="884"/>
  <unicode hex="0075"/>
  <outline>
    <contour>
      <point x="115" y="259" type="line" smooth="yes"/>
      <point x="115" y="111"/>
      <point x="269" y="-17"/>
      <point x="398" y="-17" type="qcurve" smooth="yes"/>
      <point x="499" y="-17"/>
      <point x="658" y="60"/>
      <point x="711" y="126" type="qcurve"/>
      <point x="713" y="126" type="line"/>
      <point x="714" y="0" type="line"/>
      <point x="757" y="0" type="line"/>
      <point x="757" y="887" type="line"/>
      <point x="706" y="887" type="line"/>
      <point x="706" y="197" type="line"/>
      <point x="661" y="126"/>
      <point x="512" y="33"/>
      <point x="413" y="33" type="qcurve" smooth="yes"/>
      <point x="295" y="33"/>
      <point x="167" y="137"/>
      <point x="167" y="257" type="qcurve" smooth="yes"/>
      <point x="167" y="887" type="line"/>
      <point x="115" y="887" type="line"/>
    </contour>
  </outline>
</glyph>
<glyph name="v" format="1">
  <advance width="926"/>
  <unicode hex="0076"/>
  <outline>
    <contour>
      <point x="-19.07792207792208" y="894.1883116883117" type="line"/>
      <point x="440.03467532467533" y="0.0" type="line"/>
      <point x="486.54766233766236" y="0.0" type="line"/>
      <point x="944.1927272727273" y="894.1883116883117" type="line"/>
      <point x="888.9563636363636" y="894.1883116883117" type="line"/>
      <point x="540.7667532467533" y="174.79610389610392" type="line" smooth="yes"/>
      <point x="523.4196103896104" y="138.99740259740258"/>
      <point x="487.35376623376624" y="75.91948051948052"/>
      <point x="470.82363636363635" y="39.58831168831168" type="qcurve"/>
      <point x="462.3049350649351" y="39.58831168831168" type="line"/>
      <point x="445.30727272727273" y="76.71818181818182"/>
      <point x="410.0177922077922" y="138.99740259740258"/>
      <point x="392.0955844155844" y="174.79610389610392" type="qcurve" smooth="yes"/>
      <point x="43.087012987013" y="894.1883116883117" type="line"/>
    </contour>
  </outline>
</glyph>
<glyph name="w" format="1">
  <advance width="1519"/>
  <unicode hex="0077"/>
  <outline>
    <contour>
      <point x="-2" y="887" type="line"/>
      <point x="348" y="0" type="line"/>
      <point x="392" y="0" type="line"/>
      <point x="699" y="686" type="line" smooth="yes"/>
      <point x="715" y="722"/>
      <point x="742" y="798"/>
      <point x="752" y="831" type="qcurve"/>
      <point x="767" y="831" type="line"/>
      <point x="777" y="798"/>
      <point x="804" y="722"/>
      <point x="820" y="686" type="qcurve" smooth="yes"/>
      <point x="1126" y="0" type="line"/>
      <point x="1173" y="0" type="line"/>
      <point x="1521" y="887" type="line"/>
      <point x="1471" y="887" type="line"/>
      <point x="1198" y="195" type="line" smooth="yes"/>
      <point x="1184" y="160"/>
      <point x="1162" y="91"/>
      <point x="1155" y="56" type="qcurve"/>
      <point x="1146" y="56" type="line"/>
      <point x="1136" y="91"/>
      <point x="1107" y="161"/>
      <point x="1093" y="195" type="qcurve" smooth="yes"/>
      <point x="784" y="887" type="line"/>
      <point x="735" y="887" type="line"/>
      <point x="429" y="195" type="line" smooth="yes"/>
      <point x="414" y="160"/>
      <point x="384" y="91"/>
      <point x="377" y="56" type="qcurve"/>
      <point x="368" y="56" type="line"/>
      <point x="361" y="91"/>
      <point x="338" y="160"/>
      <point x="324" y="195" type="qcurve" smooth="yes"/>
      <point x="51" y="887" type="line"/>
    </contour>
  </outline>
</glyph>
<glyph name="x" format="1">
  <advance width="946"/>
  <unicode hex="0078"/>
  <outline>
    <contour>
      <point x="-6" y="0" type="line"/>
      <point x="61" y="0" type="line"/>
      <point x="486" y="429" type="line"/>
      <point x="485" y="429" type="line"/>
      <point x="929" y="887" type="line"/>
      <point x="860" y="887" type="line"/>
      <point x="459" y="471" type="line"/>
      <point x="459" y="471" type="line"/>
    </contour>
    <contour>
      <point x="17" y="887" type="line"/>
      <point x="461" y="429" type="line"/>
      <point x="468" y="429" type="line"/>
      <point x="887" y="0" type="line"/>
      <point x="954" y="0" type="line"/>
      <point x="487" y="471" type="line"/>
      <point x="480" y="471" type="line"/>
      <point x="84" y="887" type="line"/>
    </contour>
  </outline>
</glyph>
<glyph name="y" format="1">
  <advance width="1066"/>
  <unicode hex="0079"/>
  <outline>
    <contour>
      <point x="130" y="-344" type="line"/>
      <point x="162" y="-352"/>
      <point x="223" y="-361"/>
      <point x="267" y="-361" type="qcurve" smooth="yes"/>
      <point x="383" y="-361"/>
      <point x="497" y="-224"/>
      <point x="554" y="-115" type="qcurve" smooth="yes"/>
      <point x="1091" y="887" type="line"/>
      <point x="1032" y="887" type="line"/>
      <point x="666" y="191" type="line" smooth="yes"/>
      <point x="647" y="156"/>
      <point x="613" y="82"/>
      <point x="600" y="47" type="qcurve"/>
      <point x="594" y="47" type="line"/>
      <point x="583" y="82"/>
      <point x="547" y="156"/>
      <point x="529" y="191" type="qcurve" smooth="yes"/>
      <point x="164" y="887" type="line"/>
      <point x="106" y="887" type="line"/>
      <point x="566" y="12" type="line"/>
      <point x="516" y="-85" type="line" smooth="yes"/>
      <point x="451" y="-210"/>
      <point x="357" y="-309"/>
      <point x="267" y="-309" type="qcurve" smooth="yes"/>
      <point x="235" y="-309"/>
      <point x="161" y="-299"/>
      <point x="130" y="-292" type="qcurve"/>
    </contour>
  </outline>
</glyph>
<glyph name="z" format="1">
  <advance width="921"/>
  <unicode hex="007A"/>
  <outline>
    <contour>
      <point x="39.35064935064935" y="0.0" type="line"/>
      <point x="886.3015584415584" y="0.0" type="line"/>
      <point x="886.3015584415584" y="44.11194805194805" type="line"/>
      <point x="107.83168831168831" y="44.11194805194805" type="line"/>
      <point x="853.768051948052" y="842.3618181818182" type="line"/>
      <point x="853.768051948052" y="894.1883116883117" type="line"/>
      <point x="49.07584415584415" y="894.1883116883117" type="line"/>
      <point x="49.07584415584415" y="850.0763636363637" type="line"/>
      <point x="783.1283116883117" y="850.0763636363637" type="line"/>
      <point x="39.35064935064935" y="52.01714285714286" type="line"/>
    </contour>
  </outline>
</glyph>
<glyph name="braceleft" format="1">
  <advance width="599"/>
  <unicode hex="007B"/>
  <outline>
    <contour>
      <point x="637.7901298701299" y="-312.0" type="qcurve"/>
      <point x="637.7901298701299" y="-260.78883116883117" type="line"/>
      <point x="414.04857142857145" y="-260.78883116883117"/>
      <point x="234.04629199423925" y="-34.664208202828995"/>
      <point x="289.98987012987016" y="146.08051948051948" type="qcurve" smooth="yes"/>
      <point x="348.44675324675325" y="334.0" type="line" smooth="yes"/>
      <point x="374.65974025974026" y="417.69116883116885"/>
      <point x="294.89714285714285" y="554.0883116883117"/>
      <point x="187.81714285714287" y="574.0" type="qcurve"/>
      <point x="294.89714285714285" y="593.9116883116883"/>
      <point x="375.80987012987015" y="730.8838961038961"/>
      <point x="348.44675324675325" y="814.0" type="qcurve" smooth="yes"/>
      <point x="289.98987012987016" y="1001.9194805194805" type="line" smooth="yes"/>
      <point x="234.04629199423925" y="1182.664208202829"/>
      <point x="414.04857142857145" y="1408.7888311688312"/>
      <point x="637.7901298701299" y="1408.7888311688312" type="qcurve"/>
      <point x="637.7901298701299" y="1460.0" type="line"/>
      <point x="411.31142857142856" y="1460.0"/>
      <point x="171.60857142857142" y="1200.48"/>
      <point x="233.5561038961039" y="1001.5818181818182" type="qcurve" smooth="yes"/>
      <point x="292.4805194805195" y="813.6623376623377" type="line" smooth="yes"/>
      <point x="330.10873944847935" y="683.7604855603821"/>
      <point x="166.28571428571428" y="601.4207792207792"/>
      <point x="25.22935064935065" y="601.4207792207792" type="qcurve"/>
      <point x="25.22935064935065" y="546.5792207792208" type="line"/>
      <point x="166.28571428571428" y="546.5792207792208"/>
      <point x="330.10873944847935" y="464.23951443961784"/>
      <point x="292.4805194805195" y="334.3376623376623" type="qcurve" smooth="yes"/>
      <point x="233.5561038961039" y="146.4181818181818" type="line" smooth="yes"/>
      <point x="171.60857142857142" y="-52.480000000000004"/>
      <point x="411.31142857142856" y="-312.0"/>
    </contour>
  </outline>
</glyph>
<glyph name="braceright" format="1">
  <advance width="599"/>
  <unicode hex="007D"/>
  <outline>
    <contour>
      <point x="-40.86935064935065" y="-312.0" type="line"/>
      <point x="186.8755844155844" y="-312.0"/>
      <point x="426.77974025974027" y="-52.480000000000004"/>
      <point x="365.6309090909091" y="146.4181818181818" type="qcurve" smooth="yes"/>
      <point x="306.174025974026" y="334.3376623376623" type="line" smooth="yes"/>
      <point x="267.6146375714243" y="464.41796977382853"/>
      <point x="432.1025974025974" y="546.8454545454546"/>
      <point x="572.6914285714286" y="546.8454545454546" type="qcurve"/>
      <point x="572.6914285714286" y="601.4207792207792" type="line"/>
      <point x="432.1025974025974" y="601.4207792207792"/>
      <point x="267.6495487671408" y="683.7362213405862"/>
      <point x="306.174025974026" y="813.6623376623377" type="qcurve" smooth="yes"/>
      <point x="365.6309090909091" y="1001.5818181818182" type="line" smooth="yes"/>
      <point x="426.77974025974027" y="1200.48"/>
      <point x="186.8755844155844" y="1460.0"/>
      <point x="-40.86935064935065" y="1460.0" type="qcurve"/>
      <point x="-40.86935064935065" y="1408.7888311688312" type="line"/>
      <point x="182.60597402597404" y="1408.7888311688312"/>
      <point x="364.86109672983616" y="1182.6038085155694"/>
      <point x="308.66467532467533" y="1001.9194805194805" type="qcurve" smooth="yes"/>
      <point x="249.0064935064935" y="814.0" type="line" smooth="yes"/>
      <point x="224.26103896103896" y="730.3088311688311"/>
      <point x="303.7574025974026" y="593.9116883116883"/>
      <point x="410.36987012987015" y="574.0" type="qcurve"/>
      <point x="303.7574025974026" y="554.0883116883117"/>
      <point x="224.26103896103896" y="417.69116883116885"/>
      <point x="249.0064935064935" y="334.0" type="qcurve" smooth="yes"/>
      <point x="308.66467532467533" y="146.08051948051948" type="line" smooth="yes"/>
      <point x="364.86109672983616" y="-34.60380851556943"/>
      <point x="182.60597402597404" y="-260.78883116883117"/>
      <point x="-40.86935064935065" y="-260.78883116883117" type="qcurve"/>
    </contour>
  </outline>
</glyph>
<glyph name="asciitilde" format="1">
  <advance width="1437"/>
  <unicode hex="007E"/>
  <outline>
    <contour>
      <point x="182.75194805194806" y="436.3376623376623" type="qcurve"/>
      <point x="261.2992207792208" y="436.3376623376623" type="line"/>
      <point x="261.2992207792208" y="564.1676724481123"/>
      <point x="338.5367113877858" y="746.4"/>
      <point x="434.36077922077925" y="746.4" type="qcurve" smooth="yes"/>
      <point x="537.9475682116049" y="746.4"/>
      <point x="858.3374025974026" y="425.27272727272725"/>
      <point x="1004.1657142857143" y="425.27272727272725" type="qcurve" smooth="yes"/>
      <point x="1134.2837662337663" y="425.27272727272725"/>
      <point x="1254.845974025974" y="640.0"/>
      <point x="1254.845974025974" y="787.6623376623377" type="qcurve"/>
      <point x="1175.564935064935" y="787.6623376623377" type="line"/>
      <point x="1175.564935064935" y="659.8323275518877"/>
      <point x="1099.0417748917748" y="477.6"/>
      <point x="1003.5033766233767" y="477.6" type="qcurve" smooth="yes"/>
      <point x="899.2897752247752" y="477.6"/>
      <point x="578.792987012987" y="798.7272727272727"/>
      <point x="432.96467532467534" y="798.7272727272727" type="qcurve" smooth="yes"/>
      <point x="302.5803896103896" y="798.7272727272727"/>
      <point x="182.75194805194806" y="584.0"/>
    </contour>
  </outline>
</glyph>
<glyph name="exclamdown" format="1">
  <advance width="550"/>
  <unicode hex="00A1"/>
  <outline>
    <contour>
      <point x="242" y="-280" type="line"/>
      <point x="309" y="-280" type="line"/>
      <point x="303" y="796" type="line"/>
      <point x="247" y="796" type="line"/>
    </contour>
    <contour>
      <point x="210" y="1119" type="qcurve" smooth="yes"/>
      <point x="210" y="1087"/>
      <point x="245" y="1041"/>
      <point x="276" y="1041" type="qcurve" smooth="yes"/>
      <point x="307" y="1041"/>
      <point x="340" y="1087"/>
      <point x="340" y="1119" type="qcurve" smooth="yes"/>
      <point x="340" y="1152"/>
      <point x="307" y="1198"/>
      <point x="276" y="1198" type="qcurve" smooth="yes"/>
      <point x="245" y="1198"/>
      <point x="210" y="1152"/>
    </contour>
  </outline>
</glyph>
<glyph name="cent" format="1">
  <advance width="947"/>
  <unicode hex="00A2"/>
  <outline>
    <contour>
      <point x="79" y="520" type="line" smooth="yes"/>
      <point x="79" y="286"/>
      <point x="321" y="-10"/>
      <point x="532" y="-10" type="qcurve" smooth="yes"/>
      <point x="724" y="-10"/>
      <point x="925" y="216"/>
      <point x="925" y="355" type="qcurve"/>
      <point x="925" y="360" type="line"/>
      <point x="860" y="360" type="line"/>
      <point x="860" y="355" type="line"/>
      <point x="860" y="236"/>
      <point x="705" y="54"/>
      <point x="532" y="54" type="qcurve" smooth="yes"/>
      <point x="333" y="54"/>
      <point x="146" y="324"/>
      <point x="146" y="520" type="qcurve" smooth="yes"/>
      <point x="146" y="552" type="line" smooth="yes"/>
      <point x="146" y="748"/>
      <point x="333" y="1018"/>
      <point x="532" y="1018" type="qcurve" smooth="yes"/>
      <point x="705" y="1018"/>
      <point x="860" y="836"/>
      <point x="860" y="717" type="qcurve" smooth="yes"/>
      <point x="860" y="712" type="line"/>
      <point x="925" y="712" type="line"/>
      <point x="925" y="717" type="line" smooth="yes"/>
      <point x="925" y="856"/>
      <point x="724" y="1082"/>
      <point x="532" y="1082" type="qcurve" smooth="yes"/>
      <point x="321" y="1082"/>
      <point x="79" y="786"/>
      <point x="79" y="552" type="qcurve" smooth="yes"/>
    </contour>
    <contour>
      <point x="495" y="-256" type="line"/>
      <point x="560" y="-256" type="line"/>
      <point x="560" y="31" type="line"/>
      <point x="559" y="37" type="line"/>
      <point x="559" y="541" type="line"/>
      <point x="496" y="541" type="line"/>
      <point x="496" y="37" type="line"/>
      <point x="495" y="31" type="line"/>
    </contour>
    <contour>
      <point x="496" y="541" type="line"/>
      <point x="559" y="541" type="line"/>
      <point x="559" y="1045" type="line"/>
      <point x="560" y="1051" type="line"/>
      <point x="560" y="1328" type="line"/>
      <point x="495" y="1328" type="line"/>
      <point x="495" y="1051" type="line"/>
      <point x="496" y="1045" type="line"/>
    </contour>
  </outline>
</glyph>
<glyph name="sterling" format="1">
  <advance width="1084"/>
  <unicode hex="00A3"/>
  <outline>
    <contour>
      <point x="117" y="0" type="line"/>
      <point x="1016" y="0" type="line"/>
      <point x="1016" y="64" type="line"/>
      <point x="274" y="64" type="line"/>
      <point x="335" y="110"/>
      <point x="419" y="293"/>
      <point x="419" y="434" type="qcurve" smooth="yes"/>
      <point x="419" y="576"/>
      <point x="316" y="932"/>
      <point x="316" y="1065" type="qcurve" smooth="yes"/>
      <point x="316" y="1236"/>
      <point x="474" y="1410"/>
      <point x="620" y="1410" type="qcurve" smooth="yes"/>
      <point x="768" y="1410"/>
      <point x="931" y="1235"/>
      <point x="931" y="1068" type="qcurve" smooth="yes"/>
      <point x="931" y="1048" type="line"/>
      <point x="997" y="1048" type="line"/>
      <point x="997" y="1068" type="line" smooth="yes"/>
      <point x="997" y="1252"/>
      <point x="799" y="1476"/>
      <point x="620" y="1476" type="qcurve" smooth="yes"/>
      <point x="443" y="1476"/>
      <point x="250" y="1253"/>
      <point x="250" y="1065" type="qcurve" smooth="yes"/>
      <point x="250" y="915"/>
      <point x="354" y="556"/>
      <point x="354" y="410" type="qcurve" smooth="yes"/>
      <point x="354" y="276"/>
      <point x="224" y="72"/>
      <point x="117" y="61" type="qcurve"/>
    </contour>
    <contour>
      <point x="93" y="685" type="line"/>
      <point x="898" y="685" type="line"/>
      <point x="898" y="749" type="line"/>
      <point x="93" y="749" type="line"/>
    </contour>
  </outline>
</glyph>
<glyph name="currency" format="1">
  <advance width="1690"/>
  <unicode hex="00A4"/>
  <outline>
    <contour>
      <point x="267" y="610" type="qcurve" smooth="yes"/>
      <point x="267" y="355"/>
      <point x="594" y="0"/>
      <point x="845" y="0" type="qcurve" smooth="yes"/>
      <point x="1096" y="0"/>
      <point x="1423" y="355"/>
      <point x="1423" y="610" type="qcurve" smooth="yes"/>
      <point x="1423" y="865"/>
      <point x="1096" y="1220"/>
      <point x="845" y="1220" type="qcurve" smooth="yes"/>
      <point x="594" y="1220"/>
      <point x="267" y="865"/>
    </contour>
    <contour>
      <point x="335" y="610" type="qcurve" smooth="yes"/>
      <point x="335" y="840"/>
      <point x="621" y="1156"/>
      <point x="845" y="1156" type="qcurve" smooth="yes"/>
      <point x="1069" y="1156"/>
      <point x="1356" y="840"/>
      <point x="1356" y="610" type="qcurve" smooth="yes"/>
      <point x="1356" y="380"/>
      <point x="1069" y="64"/>
      <point x="845" y="64" type="qcurve" smooth="yes"/>
      <point x="621" y="64"/>
      <point x="335" y="380"/>
    </contour>
    <contour>
      <point x="192" y="1192" type="line"/>
      <point x="433" y="994" type="line"/>
      <point x="477" y="1046" type="line"/>
      <point x="236" y="1244" type="line"/>
    </contour>
    <contour>
      <point x="1213" y="1046" type="line"/>
      <point x="1258" y="994" type="line"/>
      <point x="1498" y="1192" type="line"/>
      <point x="1454" y="1244" type="line"/>
    </contour>
    <contour>
      <point x="1213" y="174" type="line"/>
      <point x="1454" y="-24" type="line"/>
      <point x="1498" y="28" type="line"/>
      <point x="1258" y="226" type="line"/>
    </contour>
    <contour>
      <point x="192" y="28" type="line"/>
      <point x="236" y="-24" type="line"/>
      <point x="477" y="174" type="line"/>
      <point x="433" y="226" type="line"/>
    </contour>
  </outline>
</glyph>
<glyph name="yen" format="1">
  <advance width="1179"/>
  <unicode hex="00A5"/>
  <outline>
    <contour>
      <point x="23" y="305" type="line"/>
      <point x="1156" y="305" type="line"/>
      <point x="1156" y="368" type="line"/>
      <point x="23" y="368" type="line"/>
    </contour>
    <contour>
      <point x="23" y="595" type="line"/>
      <point x="1156" y="595" type="line"/>
      <point x="1156" y="657" type="line"/>
      <point x="23" y="657" type="line"/>
    </contour>
    <contour>
      <point x="554" y="0" type="line"/>
      <point x="623" y="0" type="line"/>
      <point x="623" y="599" type="line"/>
      <point x="1210" y="1456" type="line"/>
      <point x="1142" y="1456" type="line"/>
      <point x="661" y="771" type="line" smooth="yes"/>
      <point x="640" y="740"/>
      <point x="607" y="681"/>
      <point x="592" y="651" type="qcurve"/>
      <point x="583" y="651" type="line"/>
      <point x="569" y="681"/>
      <point x="534" y="740"/>
      <point x="513" y="771" type="qcurve" smooth="yes"/>
      <point x="41" y="1456" type="line"/>
      <point x="-32" y="1456" type="line"/>
      <point x="554" y="599" type="line"/>
    </contour>
  </outline>
</glyph>
<glyph name="brokenbar" format="1">
  <advance width="488"/>
  <unicode hex="00A6"/>
  <outline>
    <contour>
      <point x="218.07142857142858" y="-416.0" type="line"/>
      <point x="269.8215584415584" y="-416.0" type="line"/>
      <point x="269.8215584415584" y="420.0" type="line"/>
      <point x="218.07142857142858" y="420.0" type="line"/>
    </contour>
    <contour>
      <point x="218.07142857142858" y="620.0" type="line"/>
      <point x="269.8215584415584" y="620.0" type="line"/>
      <point x="269.8215584415584" y="1456.0" type="line"/>
      <point x="218.07142857142858" y="1456.0" type="line"/>
    </contour>
  </outline>
</glyph>
<glyph name="section" format="1">
  <advance width="1166"/>
  <unicode hex="00A7"/>
  <outline>
    <contour>
      <point x="130" y="561" type="qcurve" smooth="yes"/>
      <point x="130" y="434"/>
      <point x="330" y="294"/>
      <point x="532" y="242" type="qcurve" smooth="yes"/>
      <point x="798" y="177"/>
      <point x="966" y="26"/>
      <point x="966" y="-91" type="qcurve" smooth="yes"/>
      <point x="966" y="-223"/>
      <point x="752" y="-383"/>
      <point x="569" y="-383" type="qcurve" smooth="yes"/>
      <point x="385" y="-383"/>
      <point x="162" y="-221"/>
      <point x="162" y="-59" type="qcurve" smooth="yes"/>
      <point x="162" y="-47" type="line"/>
      <point x="96" y="-47" type="line"/>
      <point x="96" y="-59" type="line" smooth="yes"/>
      <point x="96" y="-238"/>
      <point x="355" y="-446"/>
      <point x="569" y="-446" type="qcurve" smooth="yes"/>
      <point x="782" y="-446"/>
      <point x="1031" y="-246"/>
      <point x="1031" y="-91" type="qcurve" smooth="yes"/>
      <point x="1031" y="66"/>
      <point x="837" y="243"/>
      <point x="616" y="297" type="qcurve" smooth="yes"/>
      <point x="375" y="355"/>
      <point x="194" y="471"/>
      <point x="194" y="560" type="qcurve" smooth="yes"/>
      <point x="194" y="670"/>
      <point x="370" y="791"/>
      <point x="557" y="791" type="qcurve"/>
      <point x="431" y="844" type="line"/>
      <point x="285" y="821"/>
      <point x="130" y="675"/>
    </contour>
    <contour>
      <point x="168" y="1144" type="qcurve" smooth="yes"/>
      <point x="168" y="1003"/>
      <point x="349" y="826"/>
      <point x="571" y="773" type="qcurve" smooth="yes"/>
      <point x="817" y="715"/>
      <point x="1004" y="590"/>
      <point x="1004" y="493" type="qcurve" smooth="yes"/>
      <point x="1004" y="382"/>
      <point x="799" y="249"/>
      <point x="606" y="249" type="qcurve"/>
      <point x="778" y="197" type="line"/>
      <point x="909" y="228"/>
      <point x="1069" y="386"/>
      <point x="1069" y="492" type="qcurve" smooth="yes"/>
      <point x="1069" y="627"/>
      <point x="854" y="779"/>
      <point x="655" y="828" type="qcurve" smooth="yes"/>
      <point x="392" y="891"/>
      <point x="232" y="1036"/>
      <point x="232" y="1144" type="qcurve" smooth="yes"/>
      <point x="232" y="1276"/>
      <point x="416" y="1423"/>
      <point x="594" y="1423" type="qcurve" smooth="yes"/>
      <point x="773" y="1423"/>
      <point x="970" y="1249"/>
      <point x="970" y="1104" type="qcurve" smooth="yes"/>
      <point x="970" y="1093" type="line"/>
      <point x="1035" y="1093" type="line"/>
      <point x="1035" y="1104" type="line" smooth="yes"/>
      <point x="1035" y="1264"/>
      <point x="804" y="1486"/>
      <point x="594" y="1486" type="qcurve" smooth="yes"/>
      <point x="385" y="1486"/>
      <point x="168" y="1290"/>
    </contour>
  </outline>
</glyph>
<glyph name="dieresis" format="1">
  <advance width="1179"/>
  <unicode hex="00A8"/>
  <outline>
    <contour>
      <point x="333.9337662337663" y="1255.8636363636363" type="qcurve" smooth="yes"/>
      <point x="333.9337662337663" y="1226.6101298701299"/>
      <point x="360.2916883116883" y="1186.1766233766234"/>
      <point x="386.63896103896104" y="1186.1766233766234" type="qcurve" smooth="yes"/>
      <point x="412.9862337662338" y="1186.1766233766234"/>
      <point x="441.0779220779221" y="1226.6101298701299"/>
      <point x="441.0779220779221" y="1255.8636363636363" type="qcurve" smooth="yes"/>
      <point x="441.0779220779221" y="1284.3833766233765"/>
      <point x="412.9862337662338" y="1324.8168831168832"/>
      <point x="386.63896103896104" y="1324.8168831168832" type="qcurve" smooth="yes"/>
      <point x="360.2916883116883" y="1324.8168831168832"/>
      <point x="333.9337662337663" y="1284.1171428571429"/>
    </contour>
    <contour>
      <point x="738.1070129870129" y="1255.8636363636363" type="qcurve" smooth="yes"/>
      <point x="738.1070129870129" y="1226.6101298701299"/>
      <point x="766.9324675324675" y="1186.1766233766234"/>
      <point x="792.2797402597403" y="1186.1766233766234" type="qcurve" smooth="yes"/>
      <point x="816.8932467532468" y="1186.1766233766234"/>
      <point x="845.5174025974026" y="1226.6101298701299"/>
      <point x="845.5174025974026" y="1255.8636363636363" type="qcurve" smooth="yes"/>
      <point x="845.5174025974026" y="1284.3833766233765"/>
      <point x="817.1594805194806" y="1324.8168831168832"/>
      <point x="792.2797402597403" y="1324.8168831168832" type="qcurve" smooth="yes"/>
      <point x="766.6662337662337" y="1324.8168831168832"/>
      <point x="738.1070129870129" y="1284.1171428571429"/>
    </contour>
  </outline>
</glyph>
<glyph name="copyright" format="1">
  <advance width="1997"/>
  <unicode hex="00A9"/>
  <outline>
    <contour>
      <point x="95" y="698" type="qcurve" smooth="yes"/>
      <point x="95" y="365"/>
      <point x="631" y="-80"/>
      <point x="999" y="-80" type="qcurve" smooth="yes"/>
      <point x="1366" y="-80"/>
      <point x="1901" y="365"/>
      <point x="1901" y="698" type="qcurve" smooth="yes"/>
      <point x="1901" y="1031"/>
      <point x="1366" y="1476"/>
      <point x="999" y="1476" type="qcurve" smooth="yes"/>
      <point x="631" y="1476"/>
      <point x="95" y="1031"/>
    </contour>
    <contour>
      <point x="167" y="698" type="qcurve" smooth="yes"/>
      <point x="167" y="996"/>
      <point x="643" y="1413"/>
      <point x="999" y="1413" type="qcurve" smooth="yes"/>
      <point x="1353" y="1413"/>
      <point x="1829" y="996"/>
      <point x="1829" y="698" type="qcurve" smooth="yes"/>
      <point x="1829" y="400"/>
      <point x="1353" y="-17"/>
      <point x="999" y="-17" type="qcurve" smooth="yes"/>
      <point x="643" y="-17"/>
      <point x="167" y="400"/>
    </contour>
    <contour>
      <point x="589" y="668" type="line" smooth="yes"/>
      <point x="589" y="489"/>
      <point x="824" y="266"/>
      <point x="1000" y="266" type="qcurve" smooth="yes"/>
      <point x="1166" y="266"/>
      <point x="1383" y="440"/>
      <point x="1383" y="568" type="qcurve" smooth="yes"/>
      <point x="1383" y="578" type="line"/>
      <point x="1314" y="578" type="line"/>
      <point x="1314" y="568" type="line" smooth="yes"/>
      <point x="1314" y="453"/>
      <point x="1147" y="328"/>
      <point x="1000" y="328" type="qcurve" smooth="yes"/>
      <point x="838" y="328"/>
      <point x="658" y="513"/>
      <point x="658" y="668" type="qcurve" smooth="yes"/>
      <point x="658" y="748" type="line" smooth="yes"/>
      <point x="658" y="903"/>
      <point x="838" y="1088"/>
      <point x="1000" y="1088" type="qcurve" smooth="yes"/>
      <point x="1147" y="1088"/>
      <point x="1314" y="963"/>
      <point x="1314" y="848" type="qcurve" smooth="yes"/>
      <point x="1314" y="838" type="line"/>
      <point x="1383" y="838" type="line"/>
      <point x="1383" y="848" type="line" smooth="yes"/>
      <point x="1383" y="976"/>
      <point x="1166" y="1150"/>
      <point x="1000" y="1150" type="qcurve" smooth="yes"/>
      <point x="824" y="1150"/>
      <point x="589" y="927"/>
      <point x="589" y="748" type="qcurve" smooth="yes"/>
    </contour>
  </outline>
</glyph>
<glyph name="ordfeminine" format="1">
  <advance width="805"/>
  <unicode hex="00AA"/>
  <outline>
    <contour>
      <point x="58" y="853" type="qcurve" smooth="yes"/>
      <point x="58" y="733"/>
      <point x="204" y="611"/>
      <point x="324" y="611" type="qcurve" smooth="yes"/>
      <point x="440" y="611"/>
      <point x="596" y="709"/>
      <point x="629" y="761" type="qcurve"/>
      <point x="634" y="724"/>
      <point x="654" y="649"/>
      <point x="670" y="627" type="qcurve"/>
      <point x="720" y="627" type="line"/>
      <point x="720" y="640" type="line"/>
      <point x="703" y="674"/>
      <point x="683" y="765"/>
      <point x="683" y="816" type="qcurve" smooth="yes"/>
      <point x="683" y="1192" type="line" smooth="yes"/>
      <point x="683" y="1334"/>
      <point x="538" y="1477"/>
      <point x="407" y="1477" type="qcurve" smooth="yes"/>
      <point x="268" y="1477"/>
      <point x="119" y="1335"/>
      <point x="119" y="1236" type="qcurve" smooth="yes"/>
      <point x="119" y="1232" type="line"/>
      <point x="171" y="1232" type="line"/>
      <point x="171" y="1236" type="line" smooth="yes"/>
      <point x="171" y="1310"/>
      <point x="278" y="1426"/>
      <point x="402" y="1426" type="qcurve" smooth="yes"/>
      <point x="527" y="1426"/>
      <point x="628" y="1296"/>
      <point x="628" y="1192" type="qcurve" smooth="yes"/>
      <point x="628" y="1105" type="line"/>
      <point x="383" y="1105" type="line" smooth="yes"/>
      <point x="241" y="1105"/>
      <point x="58" y="968"/>
    </contour>
    <contour>
      <point x="112" y="854" type="qcurve" smooth="yes"/>
      <point x="112" y="945"/>
      <point x="259" y="1054"/>
      <point x="402" y="1054" type="qcurve" smooth="yes"/>
      <point x="628" y="1054" type="line"/>
      <point x="628" y="892" type="line"/>
      <point x="628" y="808"/>
      <point x="447" y="663"/>
      <point x="336" y="663" type="qcurve" smooth="yes"/>
      <point x="220" y="663"/>
      <point x="112" y="763"/>
    </contour>
  </outline>
</glyph>
<glyph name="guillemetleft" format="1">
  <advance width="1016"/>
  <unicode hex="00AB"/>
  <outline>
    <contour>
      <point x="466.5214285714286" y="204.33766233766232" type="line"/>
      <point x="538.9666233766234" y="204.33766233766232" type="line"/>
      <point x="143.71896103896106" y="602.0" type="line"/>
      <point x="538.9666233766234" y="999.6623376623377" type="line"/>
      <point x="466.5214285714286" y="999.6623376623377" type="line"/>
      <point x="66.12987012987013" y="612.0" type="line"/>
      <point x="66.12987012987013" y="592.0" type="line"/>
    </contour>
    <contour>
      <point x="884.111038961039" y="204.33766233766232" type="line"/>
      <point x="955.8224675324675" y="204.33766233766232" type="line"/>
      <point x="561.7761038961039" y="602.0" type="line"/>
      <point x="955.8224675324675" y="999.6623376623377" type="line"/>
      <point x="884.111038961039" y="999.6623376623377" type="line"/>
      <point x="484.7194805194805" y="612.0" type="line"/>
      <point x="484.7194805194805" y="592.0" type="line"/>
    </contour>
  </outline>
</glyph>
<glyph name="logicalnot" format="1">
  <advance width="1405"/>
  <unicode hex="00AC"/>
  <outline>
    <contour>
      <point x="198.43116883116883" y="665.6197402597403" type="line"/>
      <point x="1159.9423376623376" y="665.6197402597403" type="line"/>
      <point x="1159.9423376623376" y="437.06363636363636" type="line"/>
      <point x="1206.832987012987" y="437.06363636363636" type="line"/>
      <point x="1206.832987012987" y="721.1142857142858" type="line"/>
      <point x="198.43116883116883" y="721.1142857142858" type="line"/>
    </contour>
  </outline>
</glyph>
<glyph name="hyphensoft" format="1">
  <advance width="634"/>
  <unicode hex="00AD"/>
  <outline>
    <contour>
      <point x="27" y="604" type="line"/>
      <point x="607" y="604" type="line"/>
      <point x="607" y="673" type="line"/>
      <point x="27" y="673" type="line"/>
    </contour>
  </outline>
</glyph>
<glyph name="registered" format="1">
  <advance width="1997"/>
  <unicode hex="00AE"/>
  <outline>
    <contour>
      <point x="95" y="698" type="qcurve" smooth="yes"/>
      <point x="95" y="365"/>
      <point x="631" y="-80"/>
      <point x="999" y="-80" type="qcurve" smooth="yes"/>
      <point x="1366" y="-80"/>
      <point x="1901" y="365"/>
      <point x="1901" y="698" type="qcurve" smooth="yes"/>
      <point x="1901" y="1031"/>
      <point x="1366" y="1476"/>
      <point x="999" y="1476" type="qcurve" smooth="yes"/>
      <point x="631" y="1476"/>
      <point x="95" y="1031"/>
    </contour>
    <contour>
      <point x="167" y="698" type="qcurve" smooth="yes"/>
      <point x="167" y="996"/>
      <point x="643" y="1413"/>
      <point x="999" y="1413" type="qcurve" smooth="yes"/>
      <point x="1353" y="1413"/>
      <point x="1829" y="996"/>
      <point x="1829" y="698" type="qcurve" smooth="yes"/>
      <point x="1829" y="400"/>
      <point x="1353" y="-17"/>
      <point x="999" y="-17" type="qcurve" smooth="yes"/>
      <point x="643" y="-17"/>
      <point x="167" y="400"/>
    </contour>
    <contour>
      <point x="731" y="284" type="line"/>
      <point x="802" y="284" type="line"/>
      <point x="802" y="595" type="line"/>
      <point x="1011" y="595" type="line" smooth="yes"/>
      <point x="1139" y="595"/>
      <point x="1304" y="744"/>
      <point x="1304" y="869" type="qcurve" smooth="yes"/>
      <point x="1304" y="993"/>
      <point x="1139" y="1132"/>
      <point x="1011" y="1132" type="qcurve" smooth="yes"/>
      <point x="731" y="1132" type="line"/>
    </contour>
    <contour>
      <point x="802" y="657" type="line"/>
      <point x="802" y="1070" type="line"/>
      <point x="1011" y="1070" type="line" smooth="yes"/>
      <point x="1120" y="1070"/>
      <point x="1234" y="966"/>
      <point x="1234" y="864" type="qcurve" smooth="yes"/>
      <point x="1234" y="761"/>
      <point x="1120" y="657"/>
      <point x="1011" y="657" type="qcurve" smooth="yes"/>
    </contour>
    <contour>
      <point x="1298" y="284" type="line"/>
      <point x="1389" y="284" type="line"/>
      <point x="1094" y="625" type="line"/>
      <point x="1015" y="625" type="line"/>
    </contour>
  </outline>
</glyph>
<glyph name="macron" format="1">
  <advance width="1213"/>
  <unicode hex="00AF"/>
  <outline>
    <contour>
      <point x="271.12337662337666" y="1226.8815584415584" type="line"/>
      <point x="941.4114285714286" y="1226.8815584415584" type="line"/>
      <point x="941.4114285714286" y="1278.5794805194805" type="line"/>
      <point x="271.12337662337666" y="1278.5794805194805" type="line"/>
    </contour>
  </outline>
</glyph>
<glyph name="degree" format="1">
  <advance width="752"/>
  <unicode hex="00B0"/>
  <outline>
    <contour>
      <point x="119" y="1161" type="qcurve" smooth="yes"/>
      <point x="119" y="1025"/>
      <point x="270" y="845"/>
      <point x="376" y="845" type="qcurve" smooth="yes"/>
      <point x="483" y="845"/>
      <point x="633" y="1025"/>
      <point x="633" y="1161" type="qcurve" smooth="yes"/>
      <point x="633" y="1297"/>
      <point x="483" y="1476"/>
      <point x="376" y="1476" type="qcurve" smooth="yes"/>
      <point x="270" y="1476"/>
      <point x="119" y="1297"/>
    </contour>
    <contour>
      <point x="182" y="1161" type="qcurve" smooth="yes"/>
      <point x="182" y="1271"/>
      <point x="292" y="1416"/>
      <point x="376" y="1416" type="qcurve" smooth="yes"/>
      <point x="461" y="1416"/>
      <point x="570" y="1271"/>
      <point x="570" y="1161" type="qcurve" smooth="yes"/>
      <point x="570" y="1050"/>
      <point x="461" y="905"/>
      <point x="376" y="905" type="qcurve" smooth="yes"/>
      <point x="292" y="905"/>
      <point x="182" y="1050"/>
    </contour>
  </outline>
</glyph>
<glyph name="plusminus" format="1">
  <advance width="1265"/>
  <unicode hex="00B1"/>
  <outline>
    <contour>
      <point x="142.22233766233768" y="648.5462337662337" type="line"/>
      <point x="1123.901038961039" y="648.5462337662337" type="line"/>
      <point x="1123.901038961039" y="700.4890909090909" type="line"/>
      <point x="142.22233766233768" y="700.4890909090909" type="line"/>
    </contour>
    <contour>
      <point x="607.3879220779221" y="283.23844155844154" type="line"/>
      <point x="658.7354545454546" y="283.23844155844154" type="line"/>
      <point x="658.7354545454546" y="1107.7412987012988" type="line"/>
      <point x="607.3879220779221" y="1107.7412987012988" type="line"/>
    </contour>
    <contour>
      <point x="142.22233766233768" y="53.20337662337662" type="line"/>
      <point x="1123.901038961039" y="53.20337662337662" type="line"/>
      <point x="1123.901038961039" y="104.14623376623376" type="line"/>
      <point x="142.22233766233768" y="104.14623376623376" type="line"/>
    </contour>
  </outline>
</glyph>
<glyph name="twosuperior" format="1">
  <advance width="803"/>
  <unicode hex="00B2"/>
  <outline>
    <contour>
      <point x="740.9675324675325" y="795.0" type="line"/>
      <point x="301.14285714285717" y="795.0" type="line"/>
      <point x="494.487012987013" y="941.0" type="line" smooth="yes"/>
      <point x="590.2922077922078" y="1020.0"/>
      <point x="706.2987012987013" y="1151.0"/>
      <point x="706.2987012987013" y="1231.0" type="qcurve" smooth="yes"/>
      <point x="706.2987012987013" y="1339.0"/>
      <point x="538.8896103896104" y="1467.0"/>
      <point x="390.94805194805195" y="1467.0" type="qcurve" smooth="yes"/>
      <point x="236.27272727272728" y="1467.0"/>
      <point x="59.396103896103895" y="1313.0"/>
      <point x="59.396103896103895" y="1206.0" type="qcurve"/>
      <point x="233.53896103896105" y="1206.0" type="line"/>
      <point x="233.53896103896105" y="1263.0"/>
      <point x="311.8766233766234" y="1339.0"/>
      <point x="394.94805194805195" y="1339.0" type="qcurve" smooth="yes"/>
      <point x="460.55194805194805" y="1339.0"/>
      <point x="531.1558441558442" y="1277.0"/>
      <point x="531.1558441558442" y="1229.0" type="qcurve" smooth="yes"/>
      <point x="531.1558441558442" y="1196.0"/>
      <point x="472.2857142857143" y="1108.0"/>
      <point x="398.6818181818182" y="1046.0" type="qcurve" smooth="yes"/>
      <point x="80.59740259740259" y="775.0" type="line"/>
      <point x="80.59740259740259" y="667.0" type="line"/>
      <point x="740.9675324675325" y="667.0" type="line"/>
    </contour>
  </outline>
</glyph>
<glyph name="threesuperior" format="1">
  <advance width="803"/>
  <unicode hex="00B3"/>
  <outline>
    <contour>
      <point x="279.9415584415584" y="1126.0" type="line"/>
      <point x="279.9415584415584" y="1048.0" type="line"/>
      <point x="402.6818181818182" y="1048.0" type="line" smooth="yes"/>
      <point x="547.6233766233767" y="1048.0"/>
      <point x="707.2987012987013" y="1164.0"/>
      <point x="707.2987012987013" y="1243.0" type="qcurve" smooth="yes"/>
      <point x="707.2987012987013" y="1352.0"/>
      <point x="527.422077922078" y="1467.0"/>
      <point x="384.2142857142857" y="1467.0" type="qcurve" smooth="yes"/>
      <point x="252.74025974025975" y="1467.0"/>
      <point x="68.12987012987013" y="1347.0"/>
      <point x="68.12987012987013" y="1246.0" type="qcurve"/>
      <point x="241.27272727272728" y="1246.0" type="line"/>
      <point x="241.27272727272728" y="1289.0"/>
      <point x="324.34415584415586" y="1339.0"/>
      <point x="387.2142857142857" y="1339.0" type="qcurve" smooth="yes"/>
      <point x="463.55194805194805" y="1339.0"/>
      <point x="534.1558441558442" y="1279.0"/>
      <point x="534.1558441558442" y="1235.0" type="qcurve" smooth="yes"/>
      <point x="534.1558441558442" y="1187.0"/>
      <point x="452.8181818181818" y="1126.0"/>
      <point x="372.74675324675326" y="1126.0" type="qcurve" smooth="yes"/>
    </contour>
    <contour>
      <point x="279.9415584415584" y="1011.0" type="line"/>
      <point x="372.74675324675326" y="1011.0" type="line" smooth="yes"/>
      <point x="453.8181818181818" y="1011.0"/>
      <point x="548.6233766233767" y="958.0"/>
      <point x="548.6233766233767" y="895.0" type="qcurve" smooth="yes"/>
      <point x="548.6233766233767" y="846.0"/>
      <point x="466.55194805194805" y="784.0"/>
      <point x="390.94805194805195" y="784.0" type="qcurve" smooth="yes"/>
      <point x="317.61038961038963" y="784.0"/>
      <point x="229.53896103896105" y="845.0"/>
      <point x="229.53896103896105" y="890.0" type="qcurve"/>
      <point x="56.396103896103895" y="890.0" type="line"/>
      <point x="56.396103896103895" y="768.0"/>
      <point x="260.47402597402595" y="656.0"/>
      <point x="385.2142857142857" y="656.0" type="qcurve" smooth="yes"/>
      <point x="528.422077922078" y="656.0"/>
      <point x="722.7662337662338" y="777.0"/>
      <point x="722.7662337662338" y="887.0" type="qcurve" smooth="yes"/>
      <point x="722.7662337662338" y="983.0"/>
      <point x="567.0909090909091" y="1089.0"/>
      <point x="402.6818181818182" y="1089.0" type="qcurve" smooth="yes"/>
      <point x="279.9415584415584" y="1089.0" type="line"/>
    </contour>
  </outline>
</glyph>
<glyph name="acute" format="1">
  <advance width="1157"/>
  <unicode hex="00B4"/>
  <outline>
    <contour>
      <point x="515.2311688311688" y="1156.0" type="line"/>
      <point x="577.2898701298701" y="1156.0" type="line"/>
      <point x="880.8488311688311" y="1456.0" type="line"/>
      <point x="801.4662337662337" y="1456.0" type="line"/>
    </contour>
  </outline>
</glyph>
<glyph name="mu.math" format="1">
  <advance width="884"/>
  <unicode hex="00B5"/>
  <outline>
    <contour>
      <point x="115" y="-416" type="line"/>
      <point x="160" y="-416" type="line"/>
      <point x="160" y="92" type="line"/>
      <point x="188" y="41"/>
      <point x="308" y="-17"/>
      <point x="396" y="-17" type="qcurve" smooth="yes"/>
      <point x="498" y="-17"/>
      <point x="658" y="60"/>
      <point x="710" y="126" type="qcurve"/>
      <point x="713" y="126" type="line"/>
      <point x="714" y="0" type="line"/>
      <point x="757" y="0" type="line"/>
      <point x="757" y="887" type="line"/>
      <point x="706" y="887" type="line"/>
      <point x="706" y="197" type="line"/>
      <point x="661" y="126"/>
      <point x="512" y="33"/>
      <point x="413" y="33" type="qcurve" smooth="yes"/>
      <point x="295" y="33"/>
      <point x="166" y="137"/>
      <point x="166" y="257" type="qcurve" smooth="yes"/>
      <point x="166" y="887" type="line"/>
      <point x="115" y="887" type="line"/>
    </contour>
  </outline>
</glyph>
<glyph name="paragraph" format="1">
  <advance width="1355"/>
  <unicode hex="00B6"/>
  <outline>
    <contour>
      <point x="80" y="986" type="qcurve" smooth="yes"/>
      <point x="80" y="786"/>
      <point x="360" y="513"/>
      <point x="570" y="516" type="qcurve" smooth="yes"/>
      <point x="633" y="516" type="line"/>
      <point x="633" y="-200" type="line"/>
      <point x="715" y="-200" type="line"/>
      <point x="715" y="1376" type="line"/>
      <point x="1002" y="1376" type="line"/>
      <point x="1002" y="-200" type="line"/>
      <point x="1084" y="-200" type="line"/>
      <point x="1084" y="1376" type="line"/>
      <point x="1299" y="1376" type="line"/>
      <point x="1299" y="1456" type="line"/>
      <point x="569" y="1456" type="line" smooth="yes"/>
      <point x="360" y="1456"/>
      <point x="80" y="1186"/>
    </contour>
  </outline>
</glyph>
<glyph name="periodcentered" format="1">
  <advance width="486"/>
  <unicode hex="00B7"/>
  <outline>
    <contour>
      <point x="176" y="730" type="qcurve" smooth="yes"/>
      <point x="176" y="697"/>
      <point x="210" y="652"/>
      <point x="243" y="652" type="qcurve" smooth="yes"/>
      <point x="275" y="652"/>
      <point x="311" y="697"/>
      <point x="311" y="730" type="qcurve" smooth="yes"/>
      <point x="311" y="763"/>
      <point x="275" y="808"/>
      <point x="243" y="808" type="qcurve" smooth="yes"/>
      <point x="210" y="808"/>
      <point x="176" y="763"/>
    </contour>
  </outline>
</glyph>
<glyph name="cedilla" format="1">
  <advance width="984"/>
  <unicode hex="00B8"/>
  <outline>
    <contour>
      <point x="455" y="0" type="line"/>
      <point x="395" y="-215" type="line"/>
      <point x="521" y="-215"/>
      <point x="627" y="-275"/>
      <point x="627" y="-327" type="qcurve" smooth="yes"/>
      <point x="627" y="-389"/>
      <point x="464" y="-462"/>
      <point x="284" y="-462" type="qcurve"/>
      <point x="287" y="-538" type="line"/>
      <point x="531" y="-538"/>
      <point x="716" y="-416"/>
      <point x="716" y="-327" type="qcurve" smooth="yes"/>
      <point x="716" y="-246"/>
      <point x="595" y="-157"/>
      <point x="494" y="-150" type="qcurve"/>
      <point x="540" y="0" type="line"/>
    </contour>
  </outline>
</glyph>
<glyph name="onesuperior" format="1">
  <advance width="822"/>
  <unicode hex="00B9"/>
  <outline>
    <contour>
      <point x="547" y="1456" type="line"/>
      <point x="526" y="1456" type="line"/>
      <point x="122" y="1340" type="line"/>
      <point x="122" y="1211" type="line"/>
      <point x="369" y="1268" type="line"/>
      <point x="369" y="667" type="line"/>
      <point x="547" y="667" type="line"/>
    </contour>
  </outline>
</glyph>
<glyph name="ordmasculine" format="1">
  <advance width="972"/>
  <unicode hex="00BA"/>
  <outline>
    <contour>
      <point x="59" y="1028" type="line" smooth="yes"/>
      <point x="59" y="840"/>
      <point x="292" y="603"/>
      <point x="485" y="603" type="qcurve" smooth="yes"/>
      <point x="681" y="603"/>
      <point x="915" y="840"/>
      <point x="915" y="1028" type="qcurve" smooth="yes"/>
      <point x="915" y="1053" type="line" smooth="yes"/>
      <point x="915" y="1240"/>
      <point x="681" y="1477"/>
      <point x="485" y="1477" type="qcurve" smooth="yes"/>
      <point x="292" y="1477"/>
      <point x="59" y="1240"/>
      <point x="59" y="1053" type="qcurve" smooth="yes"/>
    </contour>
    <contour>
      <point x="115" y="1053" type="line" smooth="yes"/>
      <point x="115" y="1210"/>
      <point x="303" y="1425"/>
      <point x="485" y="1425" type="qcurve" smooth="yes"/>
      <point x="669" y="1425"/>
      <point x="857" y="1210"/>
      <point x="857" y="1053" type="qcurve" smooth="yes"/>
      <point x="857" y="1028" type="line" smooth="yes"/>
      <point x="857" y="871"/>
      <point x="669" y="655"/>
      <point x="485" y="655" type="qcurve" smooth="yes"/>
      <point x="303" y="655"/>
      <point x="115" y="871"/>
      <point x="115" y="1028" type="qcurve" smooth="yes"/>
    </contour>
  </outline>
</glyph>
<glyph name="guillemetright" format="1">
  <advance width="1016"/>
  <unicode hex="00BB"/>
  <outline>
    <contour>
      <point x="130.7987012987013" y="204.33766233766232" type="line"/>
      <point x="532.2328571428571" y="592.0" type="line"/>
      <point x="532.2328571428571" y="612.0" type="line"/>
      <point x="130.7987012987013" y="999.6623376623377" type="line"/>
      <point x="59.396103896103895" y="999.6623376623377" type="line"/>
      <point x="455.37753246753243" y="602.0" type="line"/>
      <point x="59.396103896103895" y="204.33766233766232" type="line"/>
    </contour>
    <contour>
      <point x="549.3883116883117" y="204.33766233766232" type="line"/>
      <point x="949.0887012987013" y="592.0" type="line"/>
      <point x="949.0887012987013" y="612.0" type="line"/>
      <point x="549.3883116883117" y="999.6623376623377" type="line"/>
      <point x="477.98571428571427" y="999.6623376623377" type="line"/>
      <point x="871.2333766233767" y="602.0" type="line"/>
      <point x="477.98571428571427" y="204.33766233766232" type="line"/>
    </contour>
  </outline>
</glyph>
<glyph name="questiondown" format="1">
  <advance width="757"/>
  <unicode hex="00BF"/>
  <outline>
    <contour>
      <point x="3" y="44" type="qcurve" smooth="yes"/>
      <point x="3.0" y="-122.0"/>
      <point x="203.0" y="-300.0"/>
      <point x="389" y="-300" type="qcurve" smooth="yes"/>
      <point x="577.0" y="-300.0"/>
      <point x="780.0" y="-111.0"/>
      <point x="780" y="64" type="qcurve" smooth="yes"/>
      <point x="780" y="84" type="line"/>
      <point x="697" y="84" type="line"/>
      <point x="697" y="64" type="line" smooth="yes"/>
      <point x="697.0" y="-73.0"/>
      <point x="537.0" y="-220.0"/>
      <point x="389" y="-220" type="qcurve" smooth="yes"/>
      <point x="243.0" y="-220.0"/>
      <point x="86.0" y="-83.0"/>
      <point x="86" y="44" type="qcurve" smooth="yes"/>
      <point x="86" y="156"/>
      <point x="191" y="305"/>
      <point x="284" y="395" type="qcurve" smooth="yes"/>
      <point x="375" y="478"/>
      <point x="475" y="638"/>
      <point x="475" y="754" type="qcurve" smooth="yes"/>
      <point x="475" y="764" type="line"/>
      <point x="392" y="764" type="line"/>
      <point x="392" y="754" type="line" smooth="yes"/>
      <point x="392" y="675"/>
      <point x="321" y="542"/>
      <point x="215" y="441" type="qcurve" smooth="yes"/>
      <point x="123" y="352"/>
      <point x="3" y="178"/>
    </contour>
    <contour>
      <point x="352" y="1106" type="qcurve" smooth="yes"/>
      <point x="352" y="1068"/>
      <point x="392" y="1014"/>
      <point x="428" y="1014" type="qcurve" smooth="yes"/>
      <point x="465" y="1014"/>
      <point x="503" y="1068"/>
      <point x="503" y="1106" type="qcurve" smooth="yes"/>
      <point x="503" y="1144"/>
      <point x="465" y="1198"/>
      <point x="428" y="1198" type="qcurve" smooth="yes"/>
      <point x="391" y="1198"/>
      <point x="352" y="1144"/>
    </contour>
  </outline>
</glyph>
<glyph name="AE" format="1">
  <advance width="2012"/>
  <unicode hex="00C6"/>
  <outline>
    <contour>
      <point x="-98" y="0" type="line"/>
      <point x="-33" y="0" type="line"/>
      <point x="1024" y="1401" type="line"/>
      <point x="1037" y="1401" type="line"/>
      <point x="1037" y="0" type="line"/>
      <point x="1950" y="0" type="line"/>
      <point x="1950" y="50" type="line"/>
      <point x="1091" y="50" type="line"/>
      <point x="1091" y="726" type="line"/>
      <point x="1818" y="726" type="line"/>
      <point x="1818" y="776" type="line"/>
      <point x="1091" y="776" type="line"/>
      <point x="1091" y="1406" type="line"/>
      <point x="1938" y="1406" type="line"/>
      <point x="1938" y="1456" type="line"/>
      <point x="995" y="1456" type="line"/>
    </contour>
    <contour>
      <point x="282" y="439" type="line"/>
      <point x="1087" y="439" type="line"/>
      <point x="1087" y="489" type="line"/>
      <point x="324" y="489" type="line"/>
    </contour>
  </outline>
</glyph>
<glyph name="Eth" format="1">
  <advance width="1350"/>
  <unicode hex="00D0"/>
  <outline>
    <contour>
      <point x="190" y="0" type="line"/>
      <point x="592" y="0" type="line" smooth="yes"/>
      <point x="892" y="0"/>
      <point x="1265" y="370"/>
      <point x="1265" y="688" type="qcurve" smooth="yes"/>
      <point x="1265" y="768" type="line" smooth="yes"/>
      <point x="1265" y="1086"/>
      <point x="892" y="1456"/>
      <point x="592" y="1456" type="qcurve" smooth="yes"/>
      <point x="190" y="1456" type="line"/>
    </contour>
    <contour>
      <point x="244" y="50" type="line"/>
      <point x="244" y="1406" type="line"/>
      <point x="592" y="1406" type="line" smooth="yes"/>
      <point x="876" y="1406"/>
      <point x="1211" y="1068"/>
      <point x="1211" y="768" type="qcurve" smooth="yes"/>
      <point x="1211" y="688" type="line" smooth="yes"/>
      <point x="1211" y="388"/>
      <point x="876" y="50"/>
      <point x="592" y="50" type="qcurve" smooth="yes"/>
    </contour>
    <contour>
      <point x="19" y="754" type="line"/>
      <point x="19" y="704" type="line"/>
      <point x="720" y="704" type="line"/>
      <point x="720" y="754" type="line"/>
    </contour>
  </outline>
</glyph>
<glyph name="multiply" format="1">
  <advance width="1130"/>
  <unicode hex="00D7"/>
  <outline>
    <contour>
      <point x="76" y="233" type="line"/>
      <point x="133" y="173" type="line"/>
      <point x="1054" y="1116" type="line"/>
      <point x="997" y="1176" type="line"/>
    </contour>
    <contour>
      <point x="75" y="1113" type="line"/>
      <point x="996" y="172" type="line"/>
      <point x="1054" y="235" type="line"/>
      <point x="133" y="1176" type="line"/>
    </contour>
  </outline>
</glyph>
<glyph name="Oslash" format="1">
  <advance width="1461"/>
  <unicode hex="00D8"/>
  <outline>
    <contour>
      <point x="52" y="-80" type="line"/>
      <point x="154" y="-80" type="line"/>
      <point x="332" y="150" type="line"/>
      <point x="329" y="150" type="line"/>
      <point x="778" y="726" type="line"/>
      <point x="685" y="726" type="line"/>
      <point x="313" y="250" type="line"/>
      <point x="310" y="250" type="line"/>
    </contour>
    <contour>
      <point x="685" y="726" type="line"/>
      <point x="778" y="726" type="line"/>
      <point x="1149" y="1202" type="line"/>
      <point x="1151" y="1202" type="line"/>
      <point x="1411" y="1532" type="line"/>
      <point x="1310" y="1532" type="line"/>
      <point x="1132" y="1302" type="line"/>
      <point x="1134" y="1302" type="line"/>
    </contour>
    <contour>
      <point x="107" y="682" type="line" smooth="yes"/>
      <point x="107.0" y="339.0"/>
      <point x="430.0" y="-30.0"/>
      <point x="731" y="-30" type="qcurve" smooth="yes"/>
      <point x="1031.0" y="-30.0"/>
      <point x="1354.0" y="339.0"/>
      <point x="1354" y="682" type="qcurve" smooth="yes"/>
      <point x="1354" y="774" type="line" smooth="yes"/>
      <point x="1354.0" y="1117.0"/>
      <point x="1031.0" y="1486.0"/>
      <point x="731" y="1486" type="qcurve" smooth="yes"/>
      <point x="430.0" y="1486.0"/>
      <point x="107.0" y="1117.0"/>
      <point x="107" y="774" type="qcurve" smooth="yes"/>
    </contour>
    <contour>
      <point x="190" y="682" type="qcurve" smooth="yes"/>
      <point x="190" y="774" type="line" smooth="yes"/>
      <point x="190.0" y="1079.0"/>
      <point x="470.0" y="1406.0"/>
      <point x="731" y="1406" type="qcurve" smooth="yes"/>
      <point x="991.0" y="1406.0"/>
      <point x="1271.0" y="1079.0"/>
      <point x="1271" y="774" type="qcurve" smooth="yes"/>
      <point x="1271" y="682" type="line" smooth="yes"/>
      <point x="1271.0" y="377.0"/>
      <point x="991.0" y="50.0"/>
      <point x="731" y="50" type="qcurve" smooth="yes"/>
      <point x="470.0" y="50.0"/>
      <point x="190.0" y="377.0"/>
    </contour>
  </outline>
</glyph>
<glyph name="Thorn" format="1">
  <advance width="1184"/>
  <unicode hex="00DE"/>
  <outline>
    <contour>
      <point x="190" y="0" type="line"/>
      <point x="244" y="0" type="line"/>
      <point x="244" y="314" type="line"/>
      <point x="658" y="314" type="line" smooth="yes"/>
      <point x="899" y="314"/>
      <point x="1132" y="550"/>
      <point x="1132" y="735" type="qcurve" smooth="yes"/>
      <point x="1132" y="919"/>
      <point x="899" y="1153"/>
      <point x="658" y="1153" type="qcurve" smooth="yes"/>
      <point x="244" y="1153" type="line"/>
      <point x="244" y="1456" type="line"/>
      <point x="190" y="1456" type="line"/>
    </contour>
    <contour>
      <point x="244" y="364" type="line"/>
      <point x="244" y="1103" type="line"/>
      <point x="658" y="1103" type="line" smooth="yes"/>
      <point x="890" y="1103"/>
      <point x="1077" y="893"/>
      <point x="1077" y="735" type="qcurve" smooth="yes"/>
      <point x="1077" y="577"/>
      <point x="890" y="364"/>
      <point x="658" y="364" type="qcurve" smooth="yes"/>
    </contour>
  </outline>
</glyph>
<glyph name="germandbls" format="1">
  <advance width="1146"/>
  <unicode hex="00DF"/>
  <outline>
    <contour>
      <point x="140.54545454545453" y="-0.26623376623376627" type="line"/>
      <point x="185.78" y="-0.26623376623376627" type="line"/>
      <point x="185.78" y="1095.4285714285713" type="line" smooth="yes"/>
      <point x="185.78" y="1298.0758225108225"/>
      <point x="347.6209212510336" y="1488.2581818181818"/>
      <point x="488.4098701298701" y="1488.2581818181818" type="qcurve" smooth="yes"/>
      <point x="628.4916936561381" y="1488.2581818181818"/>
      <point x="761.1750649350649" y="1329.457275665511"/>
      <point x="761.1750649350649" y="1214.783116883117" type="qcurve" smooth="yes"/>
      <point x="761.1750649350649" y="1152.1506906729635"/>
      <point x="719.5922434707363" y="1056.8541855286344"/>
      <point x="685.4062337662338" y="1015.422077922078" type="qcurve" smooth="yes"/>
      <point x="650.820155933997" y="971.2689945496473"/>
      <point x="590.8098701298701" y="876.0194805194806"/>
      <point x="590.8098701298701" y="811.0844155844156" type="qcurve" smooth="yes"/>
      <point x="590.8098701298701" y="721.4354707792207"/>
      <point x="705.5771392058871" y="598.1171727485538"/>
      <point x="777.2857142857142" y="549.487012987013" type="qcurve" smooth="yes"/>
      <point x="873.9517856681852" y="485.2628659943292"/>
      <point x="1030.4314285714286" y="354.4278669815033"/>
      <point x="1030.4314285714286" y="263.82987012987013" type="qcurve" smooth="yes"/>
      <point x="1030.4314285714286" y="157.43860422405876"/>
      <point x="881.8594947240259" y="25.04701298701299"/>
      <point x="739.2605194805194" y="25.04701298701299" type="qcurve" smooth="yes"/>
      <point x="643.6301298701298" y="25.04701298701299"/>
      <point x="482.0722077922078" y="73.78077922077922"/>
      <point x="438.9327272727272" y="97.98207792207792" type="qcurve"/>
      <point x="404.347012987013" y="58.935064935064936" type="line"/>
      <point x="451.4438961038961" y="30.82961038961039"/>
      <point x="637.2285714285714" y="-20.0"/>
      <point x="752.251948051948" y="-20.0" type="qcurve" smooth="yes"/>
      <point x="891.0292207792207" y="-20.0"/>
      <point x="1078.9012987012986" y="127.71688311688311"/>
      <point x="1078.9012987012986" y="271.9012987012987" type="qcurve" smooth="yes"/>
      <point x="1078.9012987012986" y="382.38486497629356"/>
      <point x="886.0932257700961" y="531.5589782853862"/>
      <point x="791.8536363636363" y="592.7597402597403" type="qcurve" smooth="yes"/>
      <point x="726.3422414193092" y="636.6922531804807"/>
      <point x="637.7046753246753" y="740.3255773082639"/>
      <point x="637.7046753246753" y="809.0844155844156" type="qcurve" smooth="yes"/>
      <point x="637.7046753246753" y="856.914025974026"/>
      <point x="679.4884415584415" y="930.4774025974026"/>
      <point x="709.1646753246753" y="966.3922077922077" type="qcurve" smooth="yes"/>
      <point x="745.3440296304891" y="1013.4905066735145"/>
      <point x="811.498961038961" y="1128.5919732588088"/>
      <point x="811.498961038961" y="1224.1792207792207" type="qcurve" smooth="yes"/>
      <point x="811.498961038961" y="1352.4917316017315"/>
      <point x="643.6311688311688" y="1532.5714285714287"/>
      <point x="488.4098701298701" y="1532.5714285714287" type="qcurve" smooth="yes"/>
      <point x="334.36103896103896" y="1532.5714285714287"/>
      <point x="140.54545454545453" y="1312.8311688311687"/>
      <point x="140.54545454545453" y="1095.4285714285713" type="qcurve" smooth="yes"/>
    </contour>
  </outline>
</glyph>
<glyph name="ae" format="1">
  <advance width="1529"/>
  <unicode hex="00E6"/>
  <outline>
    <contour>
      <point x="68.33766233766234" y="237.03636363636366" type="qcurve" smooth="yes"/>
      <point x="68.33766233766234" y="110.17792207792208"/>
      <point x="234.0551948051948" y="-15.668831168831169"/>
      <point x="371.3787012987013" y="-15.668831168831169" type="qcurve" smooth="yes"/>
      <point x="517.4412987012987" y="-15.668831168831169"/>
      <point x="718.691038961039" y="132.16779220779222"/>
      <point x="765.032987012987" y="224.65428571428572" type="qcurve"/>
      <point x="810.0116883116883" y="109.28077922077921"/>
      <point x="1007.7854545454545" y="-24.4025974025974"/>
      <point x="1156.882077922078" y="-24.4025974025974" type="qcurve" smooth="yes"/>
      <point x="1273.9735064935064" y="-24.4025974025974"/>
      <point x="1432.0946753246753" y="51.48155844155844"/>
      <point x="1478.9849350649351" y="100.51038961038961" type="qcurve"/>
      <point x="1442.4054545454546" y="134.5103896103896" type="line"/>
      <point x="1390.700416352479" y="76.52460075886358"/>
      <point x="1254.3376623376623" y="18.644415584415583"/>
      <point x="1154.6807792207792" y="18.644415584415583" type="qcurve" smooth="yes"/>
      <point x="959.2424675324676" y="18.644415584415583"/>
      <point x="773.2631168831169" y="255.5671404710775"/>
      <point x="773.2631168831169" y="434.1948051948052" type="qcurve" smooth="yes"/>
      <point x="773.2631168831169" y="460.9935064935065" type="line" smooth="yes"/>
      <point x="773.2631168831169" y="639.6180451127819"/>
      <point x="948.8144155844157" y="874.8101298701299"/>
      <point x="1116.4392207792207" y="874.8101298701299" type="qcurve" smooth="yes"/>
      <point x="1288.8328571428572" y="874.8101298701299"/>
      <point x="1436.0241558441558" y="658.8038961038961"/>
      <point x="1436.0241558441558" y="514.46" type="qcurve"/>
      <point x="1436.0241558441558" y="496.4025974025974" type="line"/>
      <point x="746.3461038961038" y="496.4025974025974" type="line"/>
      <point x="746.3461038961038" y="452.65584415584414" type="line"/>
      <point x="1481.1446753246753" y="452.65584415584414" type="line"/>
      <point x="1481.1446753246753" y="475.9935064935065" type="line" smooth="yes"/>
      <point x="1481.1446753246753" y="684.3181818181818"/>
      <point x="1291.3335064935065" y="918.5909090909091"/>
      <point x="1117.172987012987" y="918.5909090909091" type="qcurve" smooth="yes"/>
      <point x="992.0358441558442" y="918.5909090909091"/>
      <point x="812.6614285714286" y="788.8724675324676"/>
      <point x="767.8328571428572" y="683.6597402597403" type="qcurve"/>
      <point x="749.1064935064935" y="796.981038961039"/>
      <point x="594.0023376623377" y="918.5909090909091"/>
      <point x="465.7703896103896" y="918.5909090909091" type="qcurve" smooth="yes"/>
      <point x="307.2424675324675" y="918.5909090909091"/>
      <point x="140.93493506493508" y="767.7623376623377"/>
      <point x="140.93493506493508" y="658.1948051948052" type="qcurve" smooth="yes"/>
      <point x="140.93493506493508" y="651.5324675324675" type="line"/>
      <point x="179.37714285714284" y="651.5324675324675" type="line"/>
      <point x="179.37714285714284" y="658.1948051948052" type="line" smooth="yes"/>
      <point x="179.37714285714284" y="745.3335260438486"/>
      <point x="309.31714285714287" y="874.6184415584415"/>
      <point x="460.15272727272725" y="874.6184415584415" type="qcurve" smooth="yes"/>
      <point x="606.9511688311688" y="874.6184415584415"/>
      <point x="726.5451948051948" y="732.5428571428572"/>
      <point x="726.5451948051948" y="612.3246753246754" type="qcurve" smooth="yes"/>
      <point x="726.5451948051948" y="506.67532467532465" type="line"/>
      <point x="445.7012987012987" y="506.67532467532465" type="line" smooth="yes"/>
      <point x="283.3331168831169" y="506.67532467532465"/>
      <point x="68.33766233766234" y="359.53109408577035"/>
    </contour>
    <contour>
      <point x="110.63714285714286" y="235.95974025974027" type="qcurve" smooth="yes"/>
      <point x="110.63714285714286" y="336.71558441558443"/>
      <point x="290.64948051948056" y="462.40363636363634"/>
      <point x="470.44675324675325" y="462.40363636363634" type="qcurve" smooth="yes"/>
      <point x="726.5451948051948" y="462.40363636363634" type="line"/>
      <point x="726.5451948051948" y="281.05974025974024" type="line"/>
      <point x="726.5451948051948" y="186.3974025974026"/>
      <point x="512.4423376623376" y="28.569870129870125"/>
      <point x="381.6864935064935" y="28.569870129870125" type="qcurve" smooth="yes"/>
      <point x="243.5835064935065" y="28.569870129870125"/>
      <point x="110.63714285714286" y="136.13797946239805"/>
    </contour>
  </outline>
</glyph>
<glyph name="eth" format="1">
  <advance width="1210"/>
  <unicode hex="00F0"/>
  <outline>
    <contour>
      <point x="72" y="445" type="qcurve" smooth="yes"/>
      <point x="72" y="233"/>
      <point x="318" y="-26"/>
      <point x="522" y="-26" type="qcurve" smooth="yes"/>
      <point x="728" y="-26"/>
      <point x="979" y="304"/>
      <point x="979" y="679" type="qcurve" smooth="yes"/>
      <point x="979" y="754" type="line" smooth="yes"/>
      <point x="979" y="1134"/>
      <point x="754" y="1477"/>
      <point x="497" y="1477" type="qcurve" smooth="yes"/>
      <point x="354" y="1477"/>
      <point x="130" y="1370"/>
      <point x="78" y="1310" type="qcurve"/>
      <point x="119" y="1275" type="line"/>
      <point x="178" y="1333"/>
      <point x="364" y="1426"/>
      <point x="497" y="1426" type="qcurve" smooth="yes"/>
      <point x="718" y="1426"/>
      <point x="928" y="1130"/>
      <point x="928" y="763" type="qcurve" smooth="yes"/>
      <point x="928" y="669" type="line" smooth="yes"/>
      <point x="928" y="295"/>
      <point x="705" y="24"/>
      <point x="522" y="24" type="qcurve" smooth="yes"/>
      <point x="338" y="24"/>
      <point x="122" y="244"/>
      <point x="122" y="445" type="qcurve" smooth="yes"/>
      <point x="122" y="645"/>
      <point x="337" y="863"/>
      <point x="522" y="863" type="qcurve" smooth="yes"/>
      <point x="688" y="863"/>
      <point x="934" y="638"/>
      <point x="934" y="445" type="qcurve"/>
      <point x="960" y="445" type="line"/>
      <point x="960" y="656"/>
      <point x="711" y="913"/>
      <point x="503" y="913" type="qcurve" smooth="yes"/>
      <point x="313" y="913"/>
      <point x="72" y="656"/>
    </contour>
    <contour>
      <point x="421" y="1083" type="line"/>
      <point x="451" y="1040" type="line"/>
      <point x="1034" y="1329" type="line"/>
      <point x="1003" y="1372" type="line"/>
    </contour>
  </outline>
</glyph>
<glyph name="divide" format="1">
  <advance width="1265"/>
  <unicode hex="00F7"/>
  <outline>
    <contour>
      <point x="79.3374025974026" y="646.0285714285715" type="line"/>
      <point x="1186.785974025974" y="646.0285714285715" type="line"/>
      <point x="1186.785974025974" y="701.9714285714285" type="line"/>
      <point x="79.3374025974026" y="701.9714285714285" type="line"/>
    </contour>
    <contour>
      <point x="577.4901298701299" y="297.4238961038961" type="qcurve" smooth="yes"/>
      <point x="577.4901298701299" y="266.61766233766235"/>
      <point x="605.6616883116883" y="223.46103896103895"/>
      <point x="632.6948051948052" y="223.46103896103895" type="qcurve" smooth="yes"/>
      <point x="659.9941558441559" y="223.46103896103895"/>
      <point x="687.8994805194806" y="266.8838961038961"/>
      <point x="687.8994805194806" y="298.2225974025974" type="qcurve" smooth="yes"/>
      <point x="687.8994805194806" y="328.0288311688312"/>
      <point x="659.7279220779221" y="371.18545454545455"/>
      <point x="632.6948051948052" y="371.18545454545455" type="qcurve" smooth="yes"/>
      <point x="605.3954545454545" y="371.18545454545455"/>
      <point x="577.4901298701299" y="327.7625974025974"/>
    </contour>
    <contour>
      <point x="577.4901298701299" y="1049.7774025974027" type="qcurve" smooth="yes"/>
      <point x="577.4901298701299" y="1019.9711688311688"/>
      <point x="605.6616883116883" y="976.8145454545455"/>
      <point x="632.6948051948052" y="976.8145454545455" type="qcurve" smooth="yes"/>
      <point x="659.9941558441559" y="976.8145454545455"/>
      <point x="687.8994805194806" y="1020.2374025974026"/>
      <point x="687.8994805194806" y="1050.5761038961039" type="qcurve" smooth="yes"/>
      <point x="687.8994805194806" y="1081.3823376623377"/>
      <point x="659.7279220779221" y="1124.5389610389611"/>
      <point x="632.6948051948052" y="1124.5389610389611" type="qcurve" smooth="yes"/>
      <point x="605.3954545454545" y="1124.5389610389611"/>
      <point x="577.4901298701299" y="1081.1161038961038"/>
    </contour>
  </outline>
</glyph>
<glyph name="oslash" format="1">
  <advance width="965"/>
  <unicode hex="00F8"/>
  <outline>
    <contour>
      <point x="60.4025974025974" y="433.1948051948052" type="line" smooth="yes"/>
      <point x="60.4025974025974" y="230.7987012987013"/>
      <point x="290.73974025974024" y="-24.4025974025974"/>
      <point x="482.4038961038961" y="-24.4025974025974" type="qcurve" smooth="yes"/>
      <point x="674.6431168831168" y="-24.4025974025974"/>
      <point x="903.4051948051948" y="230.7987012987013"/>
      <point x="903.4051948051948" y="433.1948051948052" type="qcurve" smooth="yes"/>
      <point x="903.4051948051948" y="461.52597402597405" type="line" smooth="yes"/>
      <point x="903.4051948051948" y="664.1233766233767"/>
      <point x="674.6431168831168" y="918.5909090909091"/>
      <point x="482.67012987012987" y="918.5909090909091" type="qcurve" smooth="yes"/>
      <point x="291.005974025974" y="918.5909090909091"/>
      <point x="60.4025974025974" y="664.1233766233767"/>
      <point x="60.4025974025974" y="461.52597402597405" type="qcurve" smooth="yes"/>
    </contour>
    <contour>
      <point x="125.52363636363634" y="461.2597402597403" type="line" smooth="yes"/>
      <point x="125.52363636363634" y="637.0233332185056"/>
      <point x="307.72467532467533" y="873.2127272727273"/>
      <point x="482.4038961038961" y="873.2127272727273" type="qcurve" smooth="yes"/>
      <point x="657.0831168831169" y="873.2127272727273"/>
      <point x="838.592987012987" y="637.0233332185056"/>
      <point x="838.592987012987" y="461.2597402597403" type="qcurve" smooth="yes"/>
      <point x="838.592987012987" y="433.461038961039" type="line" smooth="yes"/>
      <point x="838.592987012987" y="257.68993318027617"/>
      <point x="657.0831168831169" y="20.97558441558442"/>
      <point x="482.4038961038961" y="20.97558441558442" type="qcurve" smooth="yes"/>
      <point x="307.72467532467533" y="20.97558441558442"/>
      <point x="125.52363636363634" y="257.68522778808494"/>
      <point x="125.52363636363634" y="433.1948051948052" type="qcurve" smooth="yes"/>
    </contour>
    <contour>
      <point x="52.502727272727284" y="-105.32467532467533" type="line"/>
      <point x="107.08974025974027" y="-105.32467532467533" type="line"/>
      <point x="226.7379220779221" y="57.064935064935064" type="line"/>
      <point x="227.1479220779221" y="57.064935064935064" type="line"/>
      <point x="507.34636363636366" y="440.3896103896104" type="line"/>
      <point x="458.53363636363633" y="440.3896103896104" type="line"/>
      <point x="224.25415584415583" y="123.2012987012987" type="line"/>
      <point x="223.3979220779221" y="123.2012987012987" type="line"/>
    </contour>
    <contour>
      <point x="458.53363636363633" y="440.3896103896104" type="line"/>
      <point x="507.34636363636366" y="440.3896103896104" type="line"/>
      <point x="747.2946753246753" y="770.2532467532467" type="line"/>
      <point x="747.3096103896104" y="770.2532467532467" type="line"/>
      <point x="917.6297402597403" y="998.7792207792209" type="line"/>
      <point x="863.0427272727272" y="998.7792207792209" type="line"/>
      <point x="742.7012987012987" y="830.2662337662338" type="line"/>
      <point x="742.9824675324675" y="830.2662337662338" type="line"/>
    </contour>
  </outline>
</glyph>
<glyph name="thorn" format="1">
  <advance width="971"/>
  <unicode hex="00FE"/>
  <outline>
    <contour>
      <point x="124.6038961038961" y="-416.0" type="line"/>
      <point x="166.90337662337663" y="-416.0" type="line"/>
      <point x="166.90337662337663" y="115.64311688311687" type="line"/>
      <point x="215.3016883116883" y="62.59194805194805"/>
      <point x="402.5458441558442" y="-17.7987012987013"/>
      <point x="522.0088311688312" y="-17.7987012987013" type="qcurve" smooth="yes"/>
      <point x="705.7581818181818" y="-17.7987012987013"/>
      <point x="910.4735064935065" y="237.23532467532468"/>
      <point x="910.4735064935065" y="435.2597402597403" type="qcurve" smooth="yes"/>
      <point x="910.4735064935065" y="463.5909090909091" type="line" smooth="yes"/>
      <point x="910.4735064935065" y="659.0828571428572"/>
      <point x="705.7581818181818" y="911.987012987013"/>
      <point x="521.275064935065" y="911.987012987013" type="qcurve" smooth="yes"/>
      <point x="404.01337662337664" y="911.987012987013"/>
      <point x="210.98311688311688" y="825.2394805194805"/>
      <point x="166.90337662337663" y="767.1374025974026" type="qcurve"/>
      <point x="166.90337662337663" y="1346.2012987012986" type="line"/>
      <point x="124.6038961038961" y="1346.2012987012986" type="line"/>
    </contour>
    <contour>
      <point x="166.90337662337663" y="192.27272727272725" type="qcurve"/>
      <point x="166.90337662337663" y="701.9155844155844" type="line"/>
      <point x="203.84155844155845" y="767.4703896103896"/>
      <point x="380.73662337662336" y="867.875064935065"/>
      <point x="506.24" y="867.875064935065" type="qcurve" smooth="yes"/>
      <point x="693.1862337662337" y="867.875064935065"/>
      <point x="867.1633766233766" y="635.867533167641"/>
      <point x="867.1633766233766" y="463.5909090909091" type="qcurve" smooth="yes"/>
      <point x="867.1633766233766" y="435.52597402597405" type="line" smooth="yes"/>
      <point x="867.1633766233766" y="261.48267451298705"/>
      <point x="693.1862337662337" y="26.31324675324676"/>
      <point x="506.24" y="26.31324675324676" type="qcurve" smooth="yes"/>
      <point x="380.73662337662336" y="26.31324675324676"/>
      <point x="203.84155844155845" y="127.45168831168832"/>
    </contour>
  </outline>
</glyph>
<glyph name="dotlessi" format="1">
  <advance width="307"/>
  <unicode hex="0131"/>
  <outline>
    <contour>
      <point x="132.80519480519482" y="0.0" type="line"/>
      <point x="174.3709090909091" y="0.0" type="line"/>
      <point x="174.3709090909091" y="894.1883116883117" type="line"/>
      <point x="132.80519480519482" y="894.1883116883117" type="line"/>
    </contour>
  </outline>
</glyph>
<glyph name="OE" format="1">
  <advance width="2110"/>
  <unicode hex="0152"/>
  <outline>
    <contour>
      <point x="120" y="682" type="line" smooth="yes"/>
      <point x="120" y="346"/>
      <point x="479" y="-30"/>
      <point x="761" y="-30" type="qcurve" smooth="yes"/>
      <point x="880" y="-30"/>
      <point x="1097" y="55"/>
      <point x="1175" y="127" type="qcurve"/>
      <point x="1175" y="215" type="line"/>
      <point x="1108" y="132"/>
      <point x="900" y="21"/>
      <point x="757" y="21" type="qcurve" smooth="yes"/>
      <point x="494" y="21"/>
      <point x="173" y="373"/>
      <point x="173" y="682" type="qcurve" smooth="yes"/>
      <point x="173" y="774" type="line" smooth="yes"/>
      <point x="173" y="1083"/>
      <point x="494" y="1435"/>
      <point x="757" y="1435" type="qcurve" smooth="yes"/>
      <point x="900" y="1435"/>
      <point x="1108" y="1324"/>
      <point x="1175" y="1240" type="qcurve"/>
      <point x="1175" y="1328" type="line"/>
      <point x="1096" y="1401"/>
      <point x="880" y="1486"/>
      <point x="761" y="1486" type="qcurve" smooth="yes"/>
      <point x="479" y="1486"/>
      <point x="120" y="1110"/>
      <point x="120" y="774" type="qcurve" smooth="yes"/>
    </contour>
    <contour>
      <point x="1135" y="0" type="line"/>
      <point x="2048" y="0" type="line"/>
      <point x="2048" y="50" type="line"/>
      <point x="1189" y="50" type="line"/>
      <point x="1189" y="732" type="line"/>
      <point x="1916" y="732" type="line"/>
      <point x="1916" y="782" type="line"/>
      <point x="1189" y="782" type="line"/>
      <point x="1189" y="1406" type="line"/>
      <point x="2035" y="1406" type="line"/>
      <point x="2035" y="1456" type="line"/>
      <point x="1135" y="1456" type="line"/>
    </contour>
  </outline>
</glyph>
<glyph name="oe" format="1">
  <advance width="1636"/>
  <unicode hex="0153"/>
  <outline>
    <contour>
      <point x="60.4025974025974" y="434.461038961039" type="line" smooth="yes"/>
      <point x="60.4025974025974" y="230.5974025974026"/>
      <point x="287.56415584415583" y="-24.4025974025974"/>
      <point x="474.9366233766234" y="-24.4025974025974" type="qcurve" smooth="yes"/>
      <point x="621.5433766233766" y="-24.4025974025974"/>
      <point x="824.0062337662338" y="139.3051948051948"/>
      <point x="867.3138961038961" y="276.4038961038961" type="qcurve"/>
      <point x="906.644025974026" y="138.90051948051948"/>
      <point x="1112.9588311688312" y="-24.4025974025974"/>
      <point x="1270.7041558441558" y="-24.4025974025974" type="qcurve" smooth="yes"/>
      <point x="1389.638961038961" y="-24.4025974025974"/>
      <point x="1548.4087012987013" y="51.35376623376624"/>
      <point x="1595.4064935064935" y="100.51038961038961" type="qcurve"/>
      <point x="1559.316883116883" y="137.1727272727273" type="line"/>
      <point x="1508.105064935065" y="80.26753246753248"/>
      <point x="1372.5317541362747" y="20.111948051948048"/>
      <point x="1270.898961038961" y="20.111948051948048" type="qcurve" smooth="yes"/>
      <point x="1077.8461038961038" y="20.111948051948048"/>
      <point x="893.5184415584415" y="256.3009067048437"/>
      <point x="893.5184415584415" y="434.1948051948052" type="qcurve" smooth="yes"/>
      <point x="893.5184415584415" y="461.72727272727275" type="line" smooth="yes"/>
      <point x="893.5184415584415" y="638.1505126452495"/>
      <point x="1069.8035064935066" y="873.3425974025974"/>
      <point x="1237.7371428571428" y="873.3425974025974" type="qcurve" smooth="yes"/>
      <point x="1410.2425974025973" y="873.3425974025974"/>
      <point x="1556.236883116883" y="657.1310352027394"/>
      <point x="1556.236883116883" y="514.7262337662338" type="qcurve"/>
      <point x="1556.236883116883" y="499.8636363636364" type="line"/>
      <point x="863.9325974025974" y="499.8636363636364" type="line"/>
      <point x="863.9325974025974" y="453.987012987013" type="line"/>
      <point x="1601.2924675324675" y="453.987012987013" type="line"/>
      <point x="1601.2924675324675" y="478.9220779220779" type="line" smooth="yes"/>
      <point x="1601.2924675324675" y="682.6695575118393"/>
      <point x="1412.5888311688311" y="918.5909090909091"/>
      <point x="1238.0033766233767" y="918.5909090909091" type="qcurve" smooth="yes"/>
      <point x="1102.4263636363637" y="918.5909090909091"/>
      <point x="910.3489610389611" y="756.0864935064935"/>
      <point x="867.6227272727273" y="617.7844155844156" type="qcurve"/>
      <point x="824.5812987012987" y="755.1493506493507"/>
      <point x="621.5433766233766" y="918.5909090909091"/>
      <point x="474.9366233766234" y="918.5909090909091" type="qcurve" smooth="yes"/>
      <point x="287.56415584415583" y="918.5909090909091"/>
      <point x="60.4025974025974" y="663.8571428571429"/>
      <point x="60.4025974025974" y="461.72727272727275" type="qcurve" smooth="yes"/>
    </contour>
    <contour>
      <point x="103.18025974025974" y="434.1948051948052" type="qcurve" smooth="yes"/>
      <point x="103.18025974025974" y="461.72727272727275" type="line" smooth="yes"/>
      <point x="103.18025974025974" y="636.997518037518"/>
      <point x="292.71870129870126" y="873.7451948051948"/>
      <point x="475.20285714285717" y="873.7451948051948" type="qcurve" smooth="yes"/>
      <point x="657.4207792207792" y="873.7451948051948"/>
      <point x="846.268051948052" y="636.997518037518"/>
      <point x="846.268051948052" y="461.72727272727275" type="qcurve" smooth="yes"/>
      <point x="846.268051948052" y="434.1948051948052" type="line" smooth="yes"/>
      <point x="846.268051948052" y="257.45390535585784"/>
      <point x="657.687012987013" y="20.443116883116886"/>
      <point x="475.20285714285717" y="20.443116883116886" type="qcurve" smooth="yes"/>
      <point x="292.4524675324675" y="20.443116883116886"/>
      <point x="103.18025974025974" y="257.7131144844601"/>
    </contour>
  </outline>
</glyph>
<glyph name="circumflex" format="1">
  <advance width="1181"/>
  <unicode hex="02C6"/>
  <outline>
    <contour>
      <point x="243" y="1156" type="line"/>
      <point x="322" y="1156" type="line"/>
      <point x="590" y="1408" type="line"/>
      <point x="859" y="1156" type="line"/>
      <point x="938" y="1156" type="line"/>
      <point x="629" y="1456" type="line"/>
      <point x="552" y="1456" type="line"/>
    </contour>
  </outline>
</glyph>
<glyph name="ring" format="1">
  <advance width="1187"/>
  <unicode hex="02DA"/>
  <outline>
    <contour>
      <point x="379.39506493506497" y="1344.8246753246754" type="qcurve" smooth="yes"/>
      <point x="379.39506493506497" y="1253.1493506493507"/>
      <point x="504.39922077922074" y="1132.8051948051948"/>
      <point x="594.4779220779221" y="1132.8051948051948" type="qcurve" smooth="yes"/>
      <point x="683.3553246753247" y="1132.8051948051948"/>
      <point x="808.5607792207792" y="1252.8831168831168"/>
      <point x="808.5607792207792" y="1344.5584415584415" type="qcurve" smooth="yes"/>
      <point x="808.5607792207792" y="1436.5"/>
      <point x="683.3553246753247" y="1556.577922077922"/>
      <point x="594.4779220779221" y="1556.577922077922" type="qcurve" smooth="yes"/>
      <point x="504.39922077922074" y="1556.577922077922"/>
      <point x="379.39506493506497" y="1436.5"/>
    </contour>
    <contour>
      <point x="428.67532467532465" y="1345.090909090909" type="qcurve" smooth="yes"/>
      <point x="428.67532467532465" y="1418.0999395432154"/>
      <point x="521.7794805194806" y="1511.0654545454545"/>
      <point x="594.4779220779221" y="1511.0654545454545" type="qcurve" smooth="yes"/>
      <point x="665.7088311688311" y="1511.0654545454545"/>
      <point x="757.812987012987" y="1418.0999395432154"/>
      <point x="757.812987012987" y="1345.090909090909" type="qcurve" smooth="yes"/>
      <point x="757.812987012987" y="1272.4283583083584"/>
      <point x="665.7088311688311" y="1179.0514285714285"/>
      <point x="594.4779220779221" y="1179.0514285714285" type="qcurve" smooth="yes"/>
      <point x="521.7794805194806" y="1179.0514285714285"/>
      <point x="428.67532467532465" y="1272.4283583083584"/>
    </contour>
  </outline>
</glyph>
<glyph name="tilde" format="1">
  <advance width="1283"/>
  <unicode hex="02DC"/>
  <outline>
    <contour>
      <point x="272" y="1152" type="qcurve"/>
      <point x="332" y="1151" type="line"/>
      <point x="332" y="1230"/>
      <point x="392" y="1334"/>
      <point x="458" y="1334" type="qcurve" smooth="yes"/>
      <point x="528" y="1334"/>
      <point x="736" y="1163"/>
      <point x="825" y="1163" type="qcurve" smooth="yes"/>
      <point x="911" y="1163"/>
      <point x="1013" y="1302"/>
      <point x="1013" y="1407" type="qcurve"/>
      <point x="953" y="1407" type="line"/>
      <point x="953" y="1328"/>
      <point x="893" y="1224"/>
      <point x="828" y="1224" type="qcurve" smooth="yes"/>
      <point x="757" y="1224"/>
      <point x="550" y="1395"/>
      <point x="460" y="1395" type="qcurve" smooth="yes"/>
      <point x="375" y="1395"/>
      <point x="272" y="1256"/>
    </contour>
  </outline>
</glyph>
<glyph name="Germandbls" format="1">
  <advance width="1371"/>
  <unicode hex="1E9E"/>
  <outline>
    <contour>
      <point x="198" y="0" type="line"/>
      <point x="252" y="0" type="line"/>
      <point x="252" y="1048" type="line" smooth="yes"/>
      <point x="252" y="1239"/>
      <point x="481" y="1436"/>
      <point x="678" y="1436" type="qcurve" smooth="yes"/>
      <point x="866" y="1436"/>
      <point x="1065" y="1246"/>
      <point x="1067" y="1094" type="qcurve"/>
      <point x="665" y="772" type="line"/>
      <point x="690" y="713" type="line"/>
      <point x="953" y="682"/>
      <point x="1196" y="526"/>
      <point x="1196" y="404" type="qcurve" smooth="yes"/>
      <point x="1196" y="364" type="line" smooth="yes"/>
      <point x="1196" y="204"/>
      <point x="936" y="30"/>
      <point x="730" y="30" type="qcurve" smooth="yes"/>
      <point x="677" y="30"/>
      <point x="551" y="43"/>
      <point x="517" y="48" type="qcurve"/>
      <point x="508" y="-4" type="line"/>
      <point x="551" y="-10"/>
      <point x="683" y="-20"/>
      <point x="744" y="-20" type="qcurve" smooth="yes"/>
      <point x="976" y="-20"/>
      <point x="1250" y="195"/>
      <point x="1250" y="364" type="qcurve" smooth="yes"/>
      <point x="1250" y="404" type="line" smooth="yes"/>
      <point x="1250" y="545"/>
      <point x="971" y="730"/>
      <point x="730" y="760" type="qcurve"/>
      <point x="730" y="765" type="line"/>
      <point x="1120" y="1074" type="line"/>
      <point x="1120" y="1093" type="line" smooth="yes"/>
      <point x="1120" y="1263"/>
      <point x="886" y="1486"/>
      <point x="678" y="1486" type="qcurve" smooth="yes"/>
      <point x="468" y="1486"/>
      <point x="198" y="1264"/>
      <point x="198" y="1048" type="qcurve" smooth="yes"/>
    </contour>
  </outline>
</glyph>
<glyph name="endash" format="1">
  <advance width="1453"/>
  <unicode hex="2013"/>
  <outline>
    <contour>
      <point x="123" y="604" type="line"/>
      <point x="1329" y="604" type="line"/>
      <point x="1329" y="673" type="line"/>
      <point x="123" y="673" type="line"/>
    </contour>
  </outline>
</glyph>
<glyph name="emdash" format="1">
  <advance width="1911"/>
  <unicode hex="2014"/>
  <outline>
    <contour>
      <point x="77" y="604" type="line"/>
      <point x="1833" y="604" type="line"/>
      <point x="1833" y="673" type="line"/>
      <point x="77" y="673" type="line"/>
    </contour>
  </outline>
</glyph>
<glyph name="quoteleft" format="1">
  <advance width="350"/>
  <unicode hex="2018"/>
  <outline>
    <contour>
      <point x="119" y="1194" type="line"/>
      <point x="207" y="1194" type="line"/>
      <point x="207" y="1268" type="line" smooth="yes"/>
      <point x="207" y="1329"/>
      <point x="237" y="1418"/>
      <point x="265" y="1461" type="qcurve"/>
      <point x="206" y="1494" type="line"/>
      <point x="165" y="1449"/>
      <point x="119" y="1340"/>
      <point x="119" y="1268" type="qcurve" smooth="yes"/>
    </contour>
  </outline>
</glyph>
<glyph name="quoteright" format="1">
  <advance width="350"/>
  <unicode hex="2019"/>
  <outline>
    <contour>
      <point x="84" y="1189" type="qcurve"/>
      <point x="143" y="1156" type="line"/>
      <point x="184" y="1200"/>
      <point x="230" y="1310"/>
      <point x="230" y="1382" type="qcurve" smooth="yes"/>
      <point x="230" y="1456" type="line"/>
      <point x="141" y="1456" type="line"/>
      <point x="141" y="1382" type="line" smooth="yes"/>
      <point x="141" y="1321"/>
      <point x="113" y="1231"/>
    </contour>
  </outline>
</glyph>
<glyph name="quotesinglbase" format="1">
  <advance width="350"/>
  <unicode hex="201A"/>
  <outline>
    <contour>
      <point x="84" y="-125" type="qcurve"/>
      <point x="143" y="-158" type="line"/>
      <point x="184" y="-113"/>
      <point x="230" y="-4"/>
      <point x="230" y="68" type="qcurve" smooth="yes"/>
      <point x="230" y="142" type="line"/>
      <point x="141" y="142" type="line"/>
      <point x="141" y="68" type="line" smooth="yes"/>
      <point x="141" y="7"/>
      <point x="113" y="-82"/>
    </contour>
  </outline>
</glyph>
<glyph name="quotedblleft" format="1">
  <advance width="631"/>
  <unicode hex="201C"/>
  <outline>
    <contour>
      <point x="119.26623376623377" y="1214.436103896104" type="line"/>
      <point x="194.24207792207793" y="1214.436103896104" type="line"/>
      <point x="194.24207792207793" y="1284.8046753246754" type="line" smooth="yes"/>
      <point x="194.24207792207793" y="1339.5535064935066"/>
      <point x="218.59792207792208" y="1420.2044155844155"/>
      <point x="242.00805194805196" y="1458.2311688311688" type="qcurve"/>
      <point x="188.5190909090909" y="1485.7467532467533" type="line"/>
      <point x="154.91506493506495" y="1445.3685714285714"/>
      <point x="119.26623376623377" y="1350.1701298701298"/>
      <point x="119.26623376623377" y="1284.8046753246754" type="qcurve" smooth="yes"/>
    </contour>
    <contour>
      <point x="414.78753246753246" y="1214.436103896104" type="line"/>
      <point x="490.4971428571429" y="1214.436103896104" type="line"/>
      <point x="490.4971428571429" y="1284.8046753246754" type="line" smooth="yes"/>
      <point x="490.4971428571429" y="1339.5535064935066"/>
      <point x="514.3854545454545" y="1420.2044155844155"/>
      <point x="537.7955844155845" y="1458.2311688311688" type="qcurve"/>
      <point x="484.5728571428572" y="1485.7467532467533" type="line"/>
      <point x="451.17012987012987" y="1445.3685714285714"/>
      <point x="414.78753246753246" y="1350.1701298701298"/>
      <point x="414.78753246753246" y="1284.8046753246754" type="qcurve" smooth="yes"/>
    </contour>
  </outline>
</glyph>
<glyph name="quotedblright" format="1">
  <advance width="665"/>
  <unicode hex="201D"/>
  <outline>
    <contour>
      <point x="84" y="1189" type="qcurve"/>
      <point x="143" y="1156" type="line"/>
      <point x="184" y="1200"/>
      <point x="230" y="1310"/>
      <point x="230" y="1382" type="qcurve" smooth="yes"/>
      <point x="230" y="1456" type="line"/>
      <point x="141" y="1456" type="line"/>
      <point x="141" y="1382" type="line" smooth="yes"/>
      <point x="141" y="1321"/>
      <point x="113" y="1231"/>
    </contour>
    <contour>
      <point x="402" y="1189" type="qcurve"/>
      <point x="459" y="1156" type="line"/>
      <point x="501" y="1200"/>
      <point x="546" y="1310"/>
      <point x="546" y="1382" type="qcurve" smooth="yes"/>
      <point x="546" y="1456" type="line"/>
      <point x="458" y="1456" type="line"/>
      <point x="458" y="1382" type="line" smooth="yes"/>
      <point x="458" y="1321"/>
      <point x="429" y="1231"/>
    </contour>
  </outline>
</glyph>
